<svg width="183" height="36" viewBox="0 0 183 36" fill="none" xmlns="http://www.w3.org/2000/svg">
<rect x="0.447542" y="0.447542" width="181.908" height="35.0066" rx="17.5033" stroke="white" stroke-width="0.895084"/>
<path d="M20.1403 22.9508V13.2233L21.2043 14.2872H18.0124V12.3113H22.6026V22.9508H20.1403ZM28.0683 23.1332C27.3286 23.1332 26.594 23.037 25.8644 22.8444C25.145 22.6418 24.5269 22.3581 24.0101 21.9933L24.9829 20.1086C25.3882 20.4024 25.8543 20.6355 26.3812 20.8077C26.9183 20.98 27.4604 21.0661 28.0075 21.0661C28.6257 21.0661 29.112 20.9445 29.4667 20.7013C29.8213 20.4582 29.9987 20.1187 29.9987 19.683C29.9987 19.4094 29.9277 19.1662 29.7859 18.9534C29.644 18.7406 29.3907 18.5785 29.0259 18.467C28.6713 18.3556 28.1697 18.2998 27.5212 18.2998H24.8005L25.3477 12.3113H31.8378V14.2872H26.2292L27.506 13.1625L27.126 17.4335L25.8492 16.3087H28.0987C29.1526 16.3087 29.9987 16.4557 30.637 16.7495C31.2855 17.0332 31.7567 17.4233 32.0506 17.9199C32.3444 18.4164 32.4914 18.9787 32.4914 19.607C32.4914 20.2352 32.3343 20.8179 32.0202 21.3549C31.7061 21.8818 31.2197 22.3125 30.561 22.6469C29.9125 22.9711 29.0816 23.1332 28.0683 23.1332ZM33.6879 19.6222V17.7223H37.9894V19.6222H33.6879ZM43.5144 23.0724C42.7443 23.0724 42.0502 22.9002 41.4321 22.5557C40.814 22.201 40.3226 21.7096 39.9578 21.0813C39.6031 20.4531 39.4258 19.7134 39.4258 18.8622C39.4258 18.0009 39.6031 17.2562 39.9578 16.6279C40.3226 15.9997 40.814 15.5133 41.4321 15.1688C42.0502 14.8243 42.7443 14.652 43.5144 14.652C44.2035 14.652 44.8064 14.804 45.3232 15.108C45.8399 15.412 46.2402 15.873 46.5239 16.4911C46.8076 17.1092 46.9495 17.8996 46.9495 18.8622C46.9495 19.8147 46.8127 20.6051 46.5391 21.2333C46.2655 21.8514 45.8703 22.3125 45.3536 22.6165C44.8469 22.9204 44.2339 23.0724 43.5144 23.0724ZM43.9248 21.1269C44.3099 21.1269 44.6595 21.0357 44.9736 20.8533C45.2877 20.6709 45.536 20.4126 45.7183 20.0782C45.9109 19.7336 46.0071 19.3283 46.0071 18.8622C46.0071 18.386 45.9109 17.9807 45.7183 17.6463C45.536 17.3119 45.2877 17.0535 44.9736 16.8711C44.6595 16.6887 44.3099 16.5975 43.9248 16.5975C43.5296 16.5975 43.175 16.6887 42.8609 16.8711C42.5467 17.0535 42.2934 17.3119 42.1009 17.6463C41.9185 17.9807 41.8273 18.386 41.8273 18.8622C41.8273 19.3283 41.9185 19.7336 42.1009 20.0782C42.2934 20.4126 42.5467 20.6709 42.8609 20.8533C43.175 21.0357 43.5296 21.1269 43.9248 21.1269ZM46.0679 22.9508V21.2789L46.1135 18.847L45.9615 16.4303V11.6729H48.3326V22.9508H46.0679ZM54.5854 23.0724C53.6532 23.0724 52.8324 22.89 52.1231 22.5253C51.4239 22.1605 50.8818 21.664 50.4968 21.0357C50.1117 20.3974 49.9192 19.6729 49.9192 18.8622C49.9192 18.0415 50.1066 17.317 50.4816 16.6887C50.8666 16.0503 51.3884 15.5538 52.0471 15.1992C52.7057 14.8344 53.4505 14.652 54.2814 14.652C55.0819 14.652 55.8013 14.8243 56.4397 15.1688C57.0882 15.5032 57.5999 15.9895 57.9748 16.6279C58.3497 17.2562 58.5372 18.0111 58.5372 18.8926C58.5372 18.9838 58.5321 19.0902 58.522 19.2118C58.5119 19.3233 58.5017 19.4297 58.4916 19.531H51.8495V18.1479H57.2453L56.3333 18.5582C56.3333 18.1327 56.2472 17.7628 56.0749 17.4487C55.9027 17.1346 55.6645 16.8914 55.3605 16.7191C55.0566 16.5367 54.7019 16.4455 54.2966 16.4455C53.8913 16.4455 53.5316 16.5367 53.2174 16.7191C52.9134 16.8914 52.6753 17.1396 52.5031 17.4639C52.3308 17.778 52.2447 18.1529 52.2447 18.5886V18.9534C52.2447 19.3993 52.3409 19.7944 52.5335 20.139C52.7361 20.4733 53.0148 20.7317 53.3694 20.9141C53.7342 21.0864 54.1598 21.1725 54.6462 21.1725C55.0819 21.1725 55.4619 21.1067 55.7861 20.9749C56.1205 20.8432 56.4245 20.6456 56.6981 20.3822L57.9596 21.7501C57.5847 22.1757 57.1135 22.505 56.5461 22.7381C55.9786 22.961 55.3251 23.0724 54.5854 23.0724ZM62.0765 21.2789L62.1373 18.391L65.9523 14.7736H68.7794L65.1164 18.4974L63.8852 19.5006L62.0765 21.2789ZM60.1158 22.9508V11.6729H62.4869V22.9508H60.1158ZM66.2107 22.9508L63.4445 19.5158L64.934 17.6767L69.0834 22.9508H66.2107ZM75.0171 22.9508V21.3549L74.8651 21.0053V18.1479C74.8651 17.6412 74.708 17.246 74.3939 16.9623C74.0899 16.6786 73.6188 16.5367 72.9804 16.5367C72.5447 16.5367 72.114 16.6077 71.6884 16.7495C71.273 16.8812 70.9183 17.0636 70.6245 17.2967L69.7733 15.64C70.2192 15.3258 70.7562 15.0826 71.3844 14.9104C72.0127 14.7381 72.6511 14.652 73.2996 14.652C74.5459 14.652 75.5136 14.9459 76.2026 15.5336C76.8917 16.1213 77.2362 17.0383 77.2362 18.2846V22.9508H75.0171ZM72.5244 23.0724C71.886 23.0724 71.3389 22.966 70.8829 22.7533C70.4269 22.5303 70.0773 22.2314 69.8341 21.8565C69.5909 21.4816 69.4693 21.0611 69.4693 20.5949C69.4693 20.1086 69.5859 19.683 69.8189 19.3182C70.0621 18.9534 70.4421 18.6697 70.9589 18.467C71.4756 18.2542 72.1495 18.1479 72.9804 18.1479H75.1539V19.531H73.2388C72.6815 19.531 72.2964 19.6222 72.0836 19.8046C71.881 19.987 71.7796 20.215 71.7796 20.4885C71.7796 20.7925 71.8962 21.0357 72.1292 21.2181C72.3724 21.3904 72.7017 21.4765 73.1172 21.4765C73.5124 21.4765 73.867 21.3853 74.1811 21.2029C74.4952 21.0104 74.7232 20.7317 74.8651 20.367L75.2299 21.4613C75.0576 21.9882 74.7435 22.3885 74.2875 22.6621C73.8315 22.9356 73.2438 23.0724 72.5244 23.0724ZM84.2155 23.0724C83.4961 23.0724 82.878 22.9204 82.3612 22.6165C81.8444 22.3125 81.4493 21.8514 81.1757 21.2333C80.9021 20.6051 80.7653 19.8147 80.7653 18.8622C80.7653 17.8996 80.9071 17.1092 81.1909 16.4911C81.4847 15.873 81.89 15.412 82.4068 15.108C82.9236 14.804 83.5265 14.652 84.2155 14.652C84.9856 14.652 85.6747 14.8243 86.2826 15.1688C86.9008 15.5133 87.3871 15.9997 87.7418 16.6279C88.1066 17.2562 88.289 18.0009 88.289 18.8622C88.289 19.7134 88.1066 20.4531 87.7418 21.0813C87.3871 21.7096 86.9008 22.201 86.2826 22.5557C85.6747 22.9002 84.9856 23.0724 84.2155 23.0724ZM79.3821 22.9508V11.6729H81.7532V16.4303L81.6013 18.847L81.6469 21.2789V22.9508H79.3821ZM83.8052 21.1269C84.2003 21.1269 84.5499 21.0357 84.8539 20.8533C85.168 20.6709 85.4163 20.4126 85.5987 20.0782C85.7912 19.7336 85.8875 19.3283 85.8875 18.8622C85.8875 18.386 85.7912 17.9807 85.5987 17.6463C85.4163 17.3119 85.168 17.0535 84.8539 16.8711C84.5499 16.6887 84.2003 16.5975 83.8052 16.5975C83.41 16.5975 83.0553 16.6887 82.7412 16.8711C82.4271 17.0535 82.1788 17.3119 81.9964 17.6463C81.814 17.9807 81.7228 18.386 81.7228 18.8622C81.7228 19.3283 81.814 19.7336 81.9964 20.0782C82.1788 20.4126 82.4271 20.6709 82.7412 20.8533C83.0553 21.0357 83.41 21.1269 83.8052 21.1269ZM89.8762 22.9508V14.7736H92.1409V17.0839L91.8217 16.4151C92.0649 15.8376 92.455 15.4018 92.9921 15.108C93.5291 14.804 94.1827 14.652 94.9528 14.652V16.8407C94.8515 16.8306 94.7603 16.8255 94.6792 16.8255C94.5982 16.8154 94.512 16.8103 94.4208 16.8103C93.7723 16.8103 93.2454 16.9978 92.8401 17.3727C92.4449 17.7375 92.2473 18.31 92.2473 19.0902V22.9508H89.8762ZM100.225 22.9508V22.1757L104.648 17.8439C105.053 17.4487 105.357 17.1042 105.56 16.8103C105.763 16.5063 105.899 16.2226 105.97 15.9591C106.041 15.6957 106.077 15.4474 106.077 15.2144C106.077 14.5963 105.864 14.1099 105.438 13.7552C105.023 13.4006 104.405 13.2233 103.584 13.2233C102.956 13.2233 102.398 13.3195 101.912 13.5121C101.436 13.7046 101.025 14.0035 100.681 14.4088L99.9058 13.74C100.321 13.2537 100.853 12.8787 101.502 12.6153C102.15 12.3518 102.875 12.2201 103.675 12.2201C104.395 12.2201 105.018 12.3366 105.545 12.5697C106.072 12.7926 106.477 13.1219 106.761 13.5576C107.055 13.9934 107.201 14.5051 107.201 15.0928C107.201 15.4373 107.151 15.7768 107.049 16.1111C106.958 16.4455 106.786 16.8002 106.533 17.1751C106.289 17.5399 105.93 17.9553 105.454 18.4214L101.395 22.4037L101.091 21.9781H107.688V22.9508H100.225ZM113.272 23.042C112.451 23.042 111.722 22.8292 111.083 22.4037C110.445 21.968 109.944 21.3498 109.579 20.5493C109.214 19.7387 109.032 18.766 109.032 17.6311C109.032 16.4962 109.214 15.5285 109.579 14.728C109.944 13.9174 110.445 13.2993 111.083 12.8737C111.722 12.438 112.451 12.2201 113.272 12.2201C114.093 12.2201 114.822 12.438 115.461 12.8737C116.099 13.2993 116.601 13.9174 116.966 14.728C117.341 15.5285 117.528 16.4962 117.528 17.6311C117.528 18.766 117.341 19.7387 116.966 20.5493C116.601 21.3498 116.099 21.968 115.461 22.4037C114.822 22.8292 114.093 23.042 113.272 23.042ZM113.272 22.0389C113.9 22.0389 114.448 21.8717 114.914 21.5373C115.38 21.1928 115.745 20.6963 116.008 20.0478C116.271 19.3891 116.403 18.5836 116.403 17.6311C116.403 16.6786 116.271 15.8781 116.008 15.2296C115.745 14.5709 115.38 14.0744 114.914 13.74C114.448 13.3955 113.9 13.2233 113.272 13.2233C112.664 13.2233 112.122 13.3955 111.646 13.74C111.17 14.0744 110.8 14.5709 110.536 15.2296C110.273 15.8781 110.141 16.6786 110.141 17.6311C110.141 18.5836 110.273 19.3891 110.536 20.0478C110.8 20.6963 111.17 21.1928 111.646 21.5373C112.122 21.8717 112.664 22.0389 113.272 22.0389ZM119.916 16.5519C119.693 16.5519 119.5 16.4709 119.338 16.3087C119.186 16.1466 119.11 15.949 119.11 15.716C119.11 15.4728 119.186 15.2752 119.338 15.1232C119.5 14.9712 119.693 14.8952 119.916 14.8952C120.139 14.8952 120.326 14.9712 120.478 15.1232C120.64 15.2752 120.722 15.4728 120.722 15.716C120.722 15.949 120.64 16.1466 120.478 16.3087C120.326 16.4709 120.139 16.5519 119.916 16.5519ZM119.916 23.0268C119.693 23.0268 119.5 22.9458 119.338 22.7836C119.186 22.6215 119.11 22.4239 119.11 22.1909C119.11 21.9477 119.186 21.7501 119.338 21.5981C119.5 21.4461 119.693 21.3701 119.916 21.3701C120.139 21.3701 120.326 21.4461 120.478 21.5981C120.64 21.7501 120.722 21.9477 120.722 22.1909C120.722 22.4239 120.64 22.6215 120.478 22.7836C120.326 22.9458 120.139 23.0268 119.916 23.0268ZM126.557 23.042C125.736 23.042 125.006 22.8292 124.368 22.4037C123.73 21.968 123.228 21.3498 122.863 20.5493C122.499 19.7387 122.316 18.766 122.316 17.6311C122.316 16.4962 122.499 15.5285 122.863 14.728C123.228 13.9174 123.73 13.2993 124.368 12.8737C125.006 12.438 125.736 12.2201 126.557 12.2201C127.378 12.2201 128.107 12.438 128.745 12.8737C129.384 13.2993 129.885 13.9174 130.25 14.728C130.625 15.5285 130.813 16.4962 130.813 17.6311C130.813 18.766 130.625 19.7387 130.25 20.5493C129.885 21.3498 129.384 21.968 128.745 22.4037C128.107 22.8292 127.378 23.042 126.557 23.042ZM126.557 22.0389C127.185 22.0389 127.732 21.8717 128.198 21.5373C128.664 21.1928 129.029 20.6963 129.293 20.0478C129.556 19.3891 129.688 18.5836 129.688 17.6311C129.688 16.6786 129.556 15.8781 129.293 15.2296C129.029 14.5709 128.664 14.0744 128.198 13.74C127.732 13.3955 127.185 13.2233 126.557 13.2233C125.949 13.2233 125.407 13.3955 124.93 13.74C124.454 14.0744 124.084 14.5709 123.821 15.2296C123.557 15.8781 123.426 16.6786 123.426 17.6311C123.426 18.5836 123.557 19.3891 123.821 20.0478C124.084 20.6963 124.454 21.1928 124.93 21.5373C125.407 21.8717 125.949 22.0389 126.557 22.0389ZM136.62 23.042C135.8 23.042 135.07 22.8292 134.432 22.4037C133.793 21.968 133.292 21.3498 132.927 20.5493C132.562 19.7387 132.38 18.766 132.38 17.6311C132.38 16.4962 132.562 15.5285 132.927 14.728C133.292 13.9174 133.793 13.2993 134.432 12.8737C135.07 12.438 135.8 12.2201 136.62 12.2201C137.441 12.2201 138.171 12.438 138.809 12.8737C139.447 13.2993 139.949 13.9174 140.314 14.728C140.689 15.5285 140.876 16.4962 140.876 17.6311C140.876 18.766 140.689 19.7387 140.314 20.5493C139.949 21.3498 139.447 21.968 138.809 22.4037C138.171 22.8292 137.441 23.042 136.62 23.042ZM136.62 22.0389C137.249 22.0389 137.796 21.8717 138.262 21.5373C138.728 21.1928 139.093 20.6963 139.356 20.0478C139.62 19.3891 139.751 18.5836 139.751 17.6311C139.751 16.6786 139.62 15.8781 139.356 15.2296C139.093 14.5709 138.728 14.0744 138.262 13.74C137.796 13.3955 137.249 13.2233 136.62 13.2233C136.012 13.2233 135.47 13.3955 134.994 13.74C134.518 14.0744 134.148 14.5709 133.884 15.2296C133.621 15.8781 133.489 16.6786 133.489 17.6311C133.489 18.5836 133.621 19.3891 133.884 20.0478C134.148 20.6963 134.518 21.1928 134.994 21.5373C135.47 21.8717 136.012 22.0389 136.62 22.0389ZM150.312 23.0268C149.552 23.0268 148.868 22.8546 148.26 22.5101C147.663 22.1655 147.191 21.6893 146.847 21.0813C146.502 20.4632 146.33 19.7539 146.33 18.9534C146.33 18.1428 146.502 17.4335 146.847 16.8255C147.191 16.2175 147.663 15.7464 148.26 15.412C148.868 15.0675 149.552 14.8952 150.312 14.8952C151.012 14.8952 151.635 15.0523 152.182 15.3664C152.739 15.6805 153.18 16.1415 153.504 16.7495C153.839 17.3474 154.006 18.082 154.006 18.9534C154.006 19.8147 153.844 20.5493 153.519 21.1573C153.195 21.7653 152.754 22.2314 152.197 22.5557C151.65 22.8698 151.022 23.0268 150.312 23.0268ZM150.388 22.0693C150.956 22.0693 151.462 21.9426 151.908 21.6893C152.364 21.4258 152.719 21.0611 152.972 20.5949C153.236 20.1187 153.367 19.5715 153.367 18.9534C153.367 18.3252 153.236 17.778 152.972 17.3119C152.719 16.8458 152.364 16.4861 151.908 16.2327C151.462 15.9693 150.956 15.8376 150.388 15.8376C149.831 15.8376 149.329 15.9693 148.884 16.2327C148.438 16.4861 148.083 16.8458 147.82 17.3119C147.556 17.778 147.424 18.3252 147.424 18.9534C147.424 19.5715 147.556 20.1187 147.82 20.5949C148.083 21.0611 148.438 21.4258 148.884 21.6893C149.329 21.9426 149.831 22.0693 150.388 22.0693ZM153.398 22.9508V20.5493L153.504 18.9382L153.352 17.3271V11.6729H154.431V22.9508H153.398ZM162.437 22.9508V21.1877L162.392 20.8989V17.9503C162.392 17.2714 162.199 16.7495 161.814 16.3847C161.439 16.0199 160.877 15.8376 160.127 15.8376C159.61 15.8376 159.119 15.9237 158.653 16.0959C158.187 16.2682 157.791 16.4962 157.467 16.7799L156.981 15.9743C157.386 15.6298 157.873 15.3664 158.44 15.184C159.007 14.9915 159.605 14.8952 160.233 14.8952C161.267 14.8952 162.062 15.1536 162.62 15.6704C163.187 16.177 163.471 16.9522 163.471 17.9959V22.9508H162.437ZM159.686 23.0268C159.088 23.0268 158.567 22.9306 158.121 22.7381C157.685 22.5354 157.351 22.2618 157.118 21.9173C156.885 21.5626 156.768 21.1573 156.768 20.7013C156.768 20.2859 156.864 19.911 157.057 19.5766C157.259 19.2321 157.584 18.9585 158.03 18.7558C158.486 18.543 159.094 18.4366 159.854 18.4366H162.605V19.2422H159.884C159.114 19.2422 158.577 19.379 158.273 19.6526C157.979 19.9262 157.832 20.2656 157.832 20.6709C157.832 21.1269 158.009 21.4917 158.364 21.7653C158.719 22.0389 159.215 22.1757 159.854 22.1757C160.461 22.1757 160.983 22.0389 161.419 21.7653C161.865 21.4816 162.189 21.0763 162.392 20.5493L162.635 21.2941C162.432 21.821 162.078 22.2415 161.571 22.5557C161.075 22.8698 160.446 23.0268 159.686 23.0268Z" fill="white"/>
</svg>
