<svg width="354" height="147" viewBox="0 0 354 147" fill="none" xmlns="http://www.w3.org/2000/svg">
<g opacity="0.5" filter="url(#filter0_f_12_27)">
<rect x="39" y="62.6602" width="277" height="50" rx="14.4785" fill="#000403"/>
</g>
<g filter="url(#filter1_di_12_27)">
<rect width="354" height="104.245" rx="14.4785" fill="url(#paint0_linear_12_27)"/>
</g>
<mask id="mask0_12_27" style="mask-type:alpha" maskUnits="userSpaceOnUse" x="0" y="0" width="354" height="105">
<rect width="354" height="104.245" rx="14.4785" fill="url(#paint1_linear_12_27)"/>
</mask>
<g mask="url(#mask0_12_27)">
<ellipse opacity="0.5" cx="56.2852" cy="195.459" rx="232.561" ry="232.38" transform="rotate(-180 56.2852 195.459)" fill="url(#paint2_radial_12_27)"/>
<circle opacity="0.6" cx="51.5798" cy="158.72" r="123.972" fill="url(#paint3_radial_12_27)"/>
</g>
<path d="M34.6463 48.1678H31.3666V45.3158H41.0631V48.1678H37.7834V65.2793H34.6463V48.1678ZM42.8416 45.3158H47.0909L50.3421 65.2793H47.205L46.6346 61.3151V61.3722H43.0697L42.4993 65.2793H39.5904L42.8416 45.3158ZM46.2639 58.6628L44.8664 48.7952H44.8094L43.4405 58.6628H46.2639ZM60.1931 67.133C58.7671 67.133 57.8925 66.4961 57.5693 65.2223C56.9799 65.4504 56.2859 65.5645 55.4874 65.5645C53.9473 65.5645 52.7685 65.1272 51.951 64.2526C51.1334 63.378 50.7247 62.1422 50.7247 60.5451V50.05C50.7247 48.453 51.1334 47.2171 51.951 46.3425C52.7685 45.4679 53.9473 45.0307 55.4874 45.0307C57.0274 45.0307 58.2062 45.4679 59.0238 46.3425C59.8413 47.2171 60.2501 48.453 60.2501 50.05V60.5451C60.2501 61.876 59.9554 62.9692 59.366 63.8248C59.4801 64.0149 59.6227 64.1385 59.7938 64.1956C59.9649 64.2526 60.2121 64.2811 60.5353 64.2811H61.0201V67.133H60.1931ZM55.4874 62.7126C56.5711 62.7126 57.113 62.0566 57.113 60.7447V49.8504C57.113 48.5385 56.5711 47.8826 55.4874 47.8826C54.4037 47.8826 53.8618 48.5385 53.8618 49.8504V60.7447C53.8618 62.0566 54.4037 62.7126 55.4874 62.7126ZM61.5161 45.3158H66.3073C67.8664 45.3158 69.0356 45.7341 69.8152 46.5707C70.5947 47.4073 70.9845 48.6336 70.9845 50.2497V60.3455C70.9845 61.9616 70.5947 63.1879 69.8152 64.0245C69.0356 64.861 67.8664 65.2793 66.3073 65.2793H61.5161V45.3158ZM66.2503 62.4274C66.7636 62.4274 67.1534 62.2753 67.4196 61.9711C67.7047 61.6669 67.8473 61.1725 67.8473 60.4881V50.1071C67.8473 49.4226 67.7047 48.9283 67.4196 48.6241C67.1534 48.3199 66.7636 48.1678 66.2503 48.1678H64.6532V62.4274H66.2503ZM72.2464 45.3158H75.3835V65.2793H72.2464V45.3158ZM76.8775 45.3158H81.355L83.3513 59.604H83.4084L85.4047 45.3158H89.8822V65.2793H86.9162V50.1641H86.8592L84.5777 65.2793H81.9539L79.6723 50.1641H79.6153V65.2793H76.8775V45.3158ZM95.9022 65.5645C94.3622 65.5645 93.1834 65.1272 92.3659 64.2526C91.5483 63.378 91.1395 62.1422 91.1395 60.5451V50.05C91.1395 48.453 91.5483 47.2171 92.3659 46.3425C93.1834 45.4679 94.3622 45.0307 95.9022 45.0307C97.4423 45.0307 98.6211 45.4679 99.4386 46.3425C100.256 47.2171 100.665 48.453 100.665 50.05V60.5451C100.665 62.1422 100.256 63.378 99.4386 64.2526C98.6211 65.1272 97.4423 65.5645 95.9022 65.5645ZM95.9022 62.7126C96.986 62.7126 97.5278 62.0566 97.5278 60.7447V49.8504C97.5278 48.5385 96.986 47.8826 95.9022 47.8826C94.8185 47.8826 94.2766 48.5385 94.2766 49.8504V60.7447C94.2766 62.0566 94.8185 62.7126 95.9022 62.7126ZM104.272 48.1678H100.992V45.3158H110.689V48.1678H107.409V65.2793H104.272V48.1678ZM115.064 45.3158H118.201V53.729L122.194 45.3158H125.331L121.595 52.6453L125.388 65.2793H122.109L119.456 56.3813L118.201 58.9195V65.2793H115.064V45.3158ZM128.442 45.3158H132.691L135.942 65.2793H132.805L132.235 61.3151V61.3722H128.67L128.099 65.2793H125.19L128.442 45.3158ZM131.864 58.6628L130.466 48.7952H130.409L129.04 58.6628H131.864ZM136.609 45.3158H140.544L143.596 57.2654H143.653V45.3158H146.448V65.2793H143.225L139.46 50.706H139.403V65.2793H136.609V45.3158ZM150.348 45.3158H154.597L157.848 65.2793H154.711L154.141 61.3151V61.3722H150.576L150.006 65.2793H147.097L150.348 45.3158ZM153.77 58.6628L152.373 48.7952H152.316L150.947 58.6628H153.77ZM158.515 45.3158H161.652V62.4274H166.814V65.2793H158.515V45.3158ZM167.463 45.3158H170.6V65.2793H167.463V45.3158ZM176.543 65.5645C175.022 65.5645 173.862 65.1367 173.063 64.2811C172.265 63.4065 171.866 62.1612 171.866 60.5451V50.05C171.866 48.4339 172.265 47.1981 173.063 46.3425C173.862 45.4679 175.022 45.0307 176.543 45.0307C178.064 45.0307 179.224 45.4679 180.022 46.3425C180.821 47.1981 181.22 48.4339 181.22 50.05V51.7612H178.254V49.8504C178.254 48.5385 177.712 47.8826 176.628 47.8826C175.545 47.8826 175.003 48.5385 175.003 49.8504V60.7733C175.003 62.0661 175.545 62.7126 176.628 62.7126C177.712 62.7126 178.254 62.0661 178.254 60.7733V56.8661H176.685V54.0142H181.22V60.5451C181.22 62.1612 180.821 63.4065 180.022 64.2811C179.224 65.1367 178.064 65.5645 176.543 65.5645ZM184.803 45.3158H189.052L192.303 65.2793H189.166L188.596 61.3151V61.3722H185.031L184.46 65.2793H181.551L184.803 45.3158ZM188.225 58.6628L186.828 48.7952H186.77L185.402 58.6628H188.225ZM205.922 67.133C204.496 67.133 203.621 66.4961 203.298 65.2223C202.709 65.4504 202.015 65.5645 201.216 65.5645C199.676 65.5645 198.497 65.1272 197.68 64.2526C196.862 63.378 196.453 62.1422 196.453 60.5451V50.05C196.453 48.453 196.862 47.2171 197.68 46.3425C198.497 45.4679 199.676 45.0307 201.216 45.0307C202.756 45.0307 203.935 45.4679 204.753 46.3425C205.57 47.2171 205.979 48.453 205.979 50.05V60.5451C205.979 61.876 205.684 62.9692 205.095 63.8248C205.209 64.0149 205.351 64.1385 205.523 64.1956C205.694 64.2526 205.941 64.2811 206.264 64.2811H206.749V67.133H205.922ZM201.216 62.7126C202.3 62.7126 202.842 62.0566 202.842 60.7447V49.8504C202.842 48.5385 202.3 47.8826 201.216 47.8826C200.132 47.8826 199.591 48.5385 199.591 49.8504V60.7447C199.591 62.0566 200.132 62.7126 201.216 62.7126ZM211.779 65.5645C210.239 65.5645 209.061 65.1272 208.243 64.2526C207.425 63.378 207.017 62.1422 207.017 60.5451V50.05C207.017 48.453 207.425 47.2171 208.243 46.3425C209.061 45.4679 210.239 45.0307 211.779 45.0307C213.319 45.0307 214.498 45.4679 215.316 46.3425C216.133 47.2171 216.542 48.453 216.542 50.05V60.5451C216.542 62.1422 216.133 63.378 215.316 64.2526C214.498 65.1272 213.319 65.5645 211.779 65.5645ZM211.779 62.7126C212.863 62.7126 213.405 62.0566 213.405 60.7447V49.8504C213.405 48.5385 212.863 47.8826 211.779 47.8826C210.696 47.8826 210.154 48.5385 210.154 49.8504V60.7447C210.154 62.0566 210.696 62.7126 211.779 62.7126ZM218.835 48.3389H217.808V45.3158H220.831V48.0252L219.091 51.7612H217.637L218.835 48.3389ZM226.406 65.5645C224.885 65.5645 223.735 65.1367 222.955 64.2811C222.176 63.4065 221.786 62.1612 221.786 60.5451V59.4043H224.752V60.7733C224.752 62.0661 225.294 62.7126 226.377 62.7126C226.91 62.7126 227.309 62.5605 227.575 62.2563C227.86 61.933 228.003 61.4197 228.003 60.7162C228.003 59.8797 227.813 59.1477 227.433 58.5202C227.052 57.8738 226.349 57.1038 225.322 56.2102C224.029 55.0694 223.126 54.0427 222.613 53.1301C222.1 52.1985 221.843 51.1528 221.843 49.993C221.843 48.4149 222.242 47.1981 223.041 46.3425C223.839 45.4679 224.999 45.0307 226.52 45.0307C228.022 45.0307 229.153 45.4679 229.914 46.3425C230.693 47.1981 231.083 48.4339 231.083 50.05V50.8771H228.117V49.8504C228.117 49.1659 227.984 48.6716 227.718 48.3674C227.452 48.0442 227.062 47.8826 226.549 47.8826C225.503 47.8826 224.98 48.5195 224.98 49.7934C224.98 50.5158 225.17 51.1908 225.55 51.8182C225.95 52.4456 226.663 53.2062 227.689 54.0998C229.001 55.2405 229.904 56.2767 230.399 57.2084C230.893 58.14 231.14 59.2332 231.14 60.4881C231.14 62.1232 230.731 63.378 229.914 64.2526C229.115 65.1272 227.946 65.5645 226.406 65.5645ZM232.083 45.3158H235.22V53.4438H238.586V45.3158H241.723V65.2793H238.586V56.2957H235.22V65.2793H232.083V45.3158ZM243.204 45.3158H246.341V65.2793H243.204V45.3158ZM247.835 45.3158H250.972V62.4274H256.134V65.2793H247.835V45.3158ZM256.782 45.3158H259.92V65.2793H256.782V45.3158ZM265.492 65.5645C263.971 65.5645 262.82 65.1367 262.041 64.2811C261.261 63.4065 260.872 62.1612 260.872 60.5451V59.4043H263.838V60.7733C263.838 62.0661 264.38 62.7126 265.463 62.7126C265.996 62.7126 266.395 62.5605 266.661 62.2563C266.946 61.933 267.089 61.4197 267.089 60.7162C267.089 59.8797 266.899 59.1477 266.518 58.5202C266.138 57.8738 265.435 57.1038 264.408 56.2102C263.115 55.0694 262.212 54.0427 261.699 53.1301C261.185 52.1985 260.929 51.1528 260.929 49.993C260.929 48.4149 261.328 47.1981 262.127 46.3425C262.925 45.4679 264.085 45.0307 265.606 45.0307C267.108 45.0307 268.239 45.4679 269 46.3425C269.779 47.1981 270.169 48.4339 270.169 50.05V50.8771H267.203V49.8504C267.203 49.1659 267.07 48.6716 266.804 48.3674C266.537 48.0442 266.148 47.8826 265.634 47.8826C264.589 47.8826 264.066 48.5195 264.066 49.7934C264.066 50.5158 264.256 51.1908 264.636 51.8182C265.035 52.4456 265.748 53.2062 266.775 54.0998C268.087 55.2405 268.99 56.2767 269.484 57.2084C269.979 58.14 270.226 59.2332 270.226 60.4881C270.226 62.1232 269.817 63.378 269 64.2526C268.201 65.1272 267.032 65.5645 265.492 65.5645ZM271.169 45.3158H274.306V53.4438H277.671V45.3158H280.809V65.2793H277.671V56.2957H274.306V65.2793H271.169V45.3158Z" fill="url(#paint4_linear_12_27)"/>
<g clip-path="url(#clip0_12_27)">
<path d="M304.5 40.6602C300.39 40.6602 296.445 42.2942 293.541 45.2C290.634 48.1069 289.001 52.0492 289 56.1602C289 60.2694 290.635 64.2146 293.541 67.1204C296.445 70.0261 300.39 71.6602 304.5 71.6602C308.61 71.6602 312.555 70.0261 315.459 67.1204C318.365 64.2146 320 60.2694 320 56.1602C320 52.051 318.365 48.1057 315.459 45.2C312.555 42.2942 308.61 40.6602 304.5 40.6602Z" fill="url(#paint5_linear_12_27)"/>
<path d="M296.016 55.9955C300.535 54.027 303.548 52.7292 305.055 52.1021C309.361 50.3116 310.254 50.0007 310.838 49.9901C310.967 49.9881 311.252 50.0198 311.439 50.1706C311.594 50.2977 311.637 50.4697 311.659 50.5904C311.679 50.711 311.705 50.9859 311.683 51.2005C311.451 53.6514 310.441 59.5991 309.928 62.3442C309.712 63.5058 309.283 63.8952 308.869 63.9332C307.968 64.0161 307.285 63.3384 306.413 62.7671C305.05 61.8727 304.28 61.3162 302.955 60.4436C301.424 59.4351 302.417 58.8807 303.289 57.9749C303.517 57.7378 307.484 54.1305 307.559 53.8033C307.569 53.7623 307.578 53.6098 307.486 53.5293C307.397 53.4487 307.263 53.4763 307.167 53.4981C307.029 53.5291 304.851 54.9696 300.628 57.8195C300.01 58.2443 299.45 58.4513 298.947 58.4404C298.395 58.4286 297.329 58.1275 296.537 57.8703C295.568 57.5547 294.796 57.3879 294.863 56.8519C294.897 56.5729 295.282 56.2874 296.016 55.9955Z" fill="white"/>
</g>
<defs>
<filter id="filter0_f_12_27" x="5.56" y="29.2202" width="343.88" height="116.88" filterUnits="userSpaceOnUse" color-interpolation-filters="sRGB">
<feFlood flood-opacity="0" result="BackgroundImageFix"/>
<feBlend mode="normal" in="SourceGraphic" in2="BackgroundImageFix" result="shape"/>
<feGaussianBlur stdDeviation="16.72" result="effect1_foregroundBlur_12_27"/>
</filter>
<filter id="filter1_di_12_27" x="0" y="0" width="354" height="108.821" filterUnits="userSpaceOnUse" color-interpolation-filters="sRGB">
<feFlood flood-opacity="0" result="BackgroundImageFix"/>
<feColorMatrix in="SourceAlpha" type="matrix" values="0 0 0 0 0 0 0 0 0 0 0 0 0 0 0 0 0 0 127 0" result="hardAlpha"/>
<feOffset dy="4.57594"/>
<feComposite in2="hardAlpha" operator="out"/>
<feColorMatrix type="matrix" values="0 0 0 0 0.0583565 0 0 0 0 0.187575 0 0 0 0 0.122966 0 0 0 1 0"/>
<feBlend mode="normal" in2="BackgroundImageFix" result="effect1_dropShadow_12_27"/>
<feBlend mode="normal" in="SourceGraphic" in2="effect1_dropShadow_12_27" result="shape"/>
<feColorMatrix in="SourceAlpha" type="matrix" values="0 0 0 0 0 0 0 0 0 0 0 0 0 0 0 0 0 0 127 0" result="hardAlpha"/>
<feOffset/>
<feGaussianBlur stdDeviation="16.6794"/>
<feComposite in2="hardAlpha" operator="arithmetic" k2="-1" k3="1"/>
<feColorMatrix type="matrix" values="0 0 0 0 0.445833 0 0 0 0 0.445833 0 0 0 0 0.445833 0 0 0 0.25 0"/>
<feBlend mode="screen" in2="shape" result="effect2_innerShadow_12_27"/>
</filter>
<linearGradient id="paint0_linear_12_27" x1="0" y1="52.1227" x2="354" y2="52.1227" gradientUnits="userSpaceOnUse">
<stop stop-color="#002400"/>
<stop offset="1" stop-color="#0B4E37"/>
</linearGradient>
<linearGradient id="paint1_linear_12_27" x1="0" y1="52.1227" x2="354" y2="52.1227" gradientUnits="userSpaceOnUse">
<stop stop-color="#38B088"/>
<stop offset="1" stop-color="#184A39"/>
</linearGradient>
<radialGradient id="paint2_radial_12_27" cx="0" cy="0" r="1" gradientTransform="matrix(190.936 107.865 -107.766 191.075 -167.046 269.3)" gradientUnits="userSpaceOnUse">
<stop stop-color="#38AA84" stop-opacity="0"/>
<stop offset="1" stop-color="#2F594B"/>
</radialGradient>
<radialGradient id="paint3_radial_12_27" cx="0" cy="0" r="1" gradientUnits="userSpaceOnUse" gradientTransform="translate(147.319 67.6867) rotate(132.418) scale(82.3705 114.729)">
<stop stop-color="#38AA84" stop-opacity="0"/>
<stop offset="1" stop-color="#0C543C"/>
</radialGradient>
<linearGradient id="paint4_linear_12_27" x1="31" y1="56.2793" x2="282" y2="56.2793" gradientUnits="userSpaceOnUse">
<stop stop-color="#FFFCFC"/>
<stop offset="0.519231" stop-color="white"/>
<stop offset="0.966346" stop-color="#FFFCFC"/>
</linearGradient>
<linearGradient id="paint5_linear_12_27" x1="1839" y1="40.6602" x2="1839" y2="3140.66" gradientUnits="userSpaceOnUse">
<stop stop-color="#2AABEE"/>
<stop offset="1" stop-color="#229ED9"/>
</linearGradient>
<clipPath id="clip0_12_27">
<rect width="31" height="31" fill="white" transform="translate(289 40.6602)"/>
</clipPath>
</defs>
</svg>
