<svg xmlns="http://www.w3.org/2000/svg" fill="none" viewBox="11.864150943396227 51.18599999999999 368.47314949201746 152.19" style="max-height: 500px" width="368.47314949201746" height="152.19">
<g filter="url(#filter0_d_12_84)">
<rect fill="white" rx="27.0468" height="140" width="361" y="58.6013" x="16"/>
<rect stroke-width="2" stroke-opacity="0.56" stroke="#173727" rx="26.0468" height="138" width="359" y="59.6013" x="17"/>
</g>
<rect fill="#0C5D2B" rx="7" height="44" width="51" y="78.2458" x="170.5"/>
<path fill="white" d="M187.702 111.246V107.919L196.256 99.841C196.932 99.2286 197.428 98.6794 197.745 98.1937C198.062 97.7079 198.273 97.2644 198.378 96.8631C198.505 96.4618 198.569 96.0922 198.569 95.7543C198.569 94.8673 198.262 94.1914 197.65 93.7268C197.058 93.241 196.182 92.9982 195.02 92.9982C194.091 92.9982 193.225 93.1777 192.423 93.5367C191.641 93.8958 190.976 94.4554 190.427 95.2158L186.689 92.8081C187.533 91.5409 188.716 90.5377 190.237 89.7985C191.757 89.0593 193.51 88.6897 195.496 88.6897C197.143 88.6897 198.579 88.9642 199.804 89.5134C201.05 90.0414 202.011 90.7911 202.687 91.7626C203.384 92.7342 203.732 93.8958 203.732 95.2474C203.732 95.9655 203.637 96.6836 203.447 97.4017C203.278 98.0986 202.919 98.8378 202.37 99.6193C201.842 100.401 201.061 101.277 200.026 102.249L192.93 108.933L191.947 107.064H204.461V111.246H187.702Z"/>
<path fill="black" d="M56.2388 135.002H57.6638V145.712H56.2388V135.002ZM60.6306 143.267C60.6406 143.547 60.7056 143.787 60.8256 143.987C60.9456 144.177 61.1006 144.332 61.2906 144.452C61.4906 144.562 61.7106 144.642 61.9506 144.692C62.2006 144.742 62.4556 144.767 62.7156 144.767C62.9156 144.767 63.1256 144.752 63.3456 144.722C63.5656 144.692 63.7656 144.637 63.9456 144.557C64.1356 144.477 64.2906 144.362 64.4106 144.212C64.5306 144.052 64.5906 143.852 64.5906 143.612C64.5906 143.282 64.4656 143.032 64.2156 142.862C63.9656 142.692 63.6506 142.557 63.2706 142.457C62.9006 142.347 62.4956 142.252 62.0556 142.172C61.6156 142.082 61.2056 141.962 60.8256 141.812C60.4556 141.652 60.1456 141.432 59.8956 141.152C59.6456 140.872 59.5206 140.482 59.5206 139.982C59.5206 139.592 59.6056 139.257 59.7756 138.977C59.9556 138.697 60.1806 138.472 60.4506 138.302C60.7306 138.122 61.0406 137.992 61.3806 137.912C61.7306 137.822 62.0756 137.777 62.4156 137.777C62.8556 137.777 63.2606 137.817 63.6306 137.897C64.0006 137.967 64.3256 138.097 64.6056 138.287C64.8956 138.467 65.1256 138.717 65.2956 139.037C65.4656 139.347 65.5656 139.737 65.5956 140.207H64.3206C64.3006 139.957 64.2356 139.752 64.1256 139.592C64.0156 139.422 63.8756 139.287 63.7056 139.187C63.5356 139.087 63.3456 139.017 63.1356 138.977C62.9356 138.927 62.7306 138.902 62.5206 138.902C62.3306 138.902 62.1356 138.917 61.9356 138.947C61.7456 138.977 61.5706 139.032 61.4106 139.112C61.2506 139.182 61.1206 139.282 61.0206 139.412C60.9206 139.532 60.8706 139.692 60.8706 139.892C60.8706 140.112 60.9456 140.297 61.0956 140.447C61.2556 140.587 61.4556 140.707 61.6956 140.807C61.9356 140.897 62.2056 140.977 62.5056 141.047C62.8056 141.107 63.1056 141.172 63.4056 141.242C63.7256 141.312 64.0356 141.397 64.3356 141.497C64.6456 141.597 64.9156 141.732 65.1456 141.902C65.3856 142.062 65.5756 142.267 65.7156 142.517C65.8656 142.767 65.9406 143.077 65.9406 143.447C65.9406 143.917 65.8406 144.307 65.6406 144.617C65.4506 144.927 65.1956 145.177 64.8756 145.367C64.5656 145.557 64.2106 145.687 63.8106 145.757C63.4206 145.837 63.0306 145.877 62.6406 145.877C62.2106 145.877 61.8006 145.832 61.4106 145.742C61.0206 145.652 60.6756 145.507 60.3756 145.307C60.0756 145.097 59.8356 144.827 59.6556 144.497C59.4756 144.157 59.3756 143.747 59.3556 143.267H60.6306ZM69.1206 137.957H70.6656V139.082H69.1206V143.897C69.1206 144.047 69.1306 144.167 69.1506 144.257C69.1806 144.347 69.2306 144.417 69.3006 144.467C69.3706 144.517 69.4656 144.552 69.5856 144.572C69.7156 144.582 69.8806 144.587 70.0806 144.587H70.6656V145.712H69.6906C69.3606 145.712 69.0756 145.692 68.8356 145.652C68.6056 145.602 68.4156 145.517 68.2656 145.397C68.1256 145.277 68.0206 145.107 67.9506 144.887C67.8806 144.667 67.8456 144.377 67.8456 144.017V139.082H66.5256V137.957H67.8456V135.632H69.1206V137.957ZM78.9521 145.682C78.7321 145.812 78.4271 145.877 78.0371 145.877C77.7071 145.877 77.4421 145.787 77.2421 145.607C77.0521 145.417 76.9571 145.112 76.9571 144.692C76.6071 145.112 76.1971 145.417 75.7271 145.607C75.2671 145.787 74.7671 145.877 74.2271 145.877C73.8771 145.877 73.5421 145.837 73.2221 145.757C72.9121 145.677 72.6421 145.552 72.4121 145.382C72.1821 145.212 71.9971 144.992 71.8571 144.722C71.7271 144.442 71.6621 144.107 71.6621 143.717C71.6621 143.277 71.7371 142.917 71.8871 142.637C72.0371 142.357 72.2321 142.132 72.4721 141.962C72.7221 141.782 73.0021 141.647 73.3121 141.557C73.6321 141.467 73.9571 141.392 74.2871 141.332C74.6371 141.262 74.9671 141.212 75.2771 141.182C75.5971 141.142 75.8771 141.092 76.1171 141.032C76.3571 140.962 76.5471 140.867 76.6871 140.747C76.8271 140.617 76.8971 140.432 76.8971 140.192C76.8971 139.912 76.8421 139.687 76.7321 139.517C76.6321 139.347 76.4971 139.217 76.3271 139.127C76.1671 139.037 75.9821 138.977 75.7721 138.947C75.5721 138.917 75.3721 138.902 75.1721 138.902C74.6321 138.902 74.1821 139.007 73.8221 139.217C73.4621 139.417 73.2671 139.802 73.2371 140.372H71.9621C71.9821 139.892 72.0821 139.487 72.2621 139.157C72.4421 138.827 72.6821 138.562 72.9821 138.362C73.2821 138.152 73.6221 138.002 74.0021 137.912C74.3921 137.822 74.8071 137.777 75.2471 137.777C75.5971 137.777 75.9421 137.802 76.2821 137.852C76.6321 137.902 76.9471 138.007 77.2271 138.167C77.5071 138.317 77.7321 138.532 77.9021 138.812C78.0721 139.092 78.1571 139.457 78.1571 139.907V143.897C78.1571 144.197 78.1721 144.417 78.2021 144.557C78.2421 144.697 78.3621 144.767 78.5621 144.767C78.6721 144.767 78.8021 144.742 78.9521 144.692V145.682ZM76.8821 141.707C76.7221 141.827 76.5121 141.917 76.2521 141.977C75.9921 142.027 75.7171 142.072 75.4271 142.112C75.1471 142.142 74.8621 142.182 74.5721 142.232C74.2821 142.272 74.0221 142.342 73.7921 142.442C73.5621 142.542 73.3721 142.687 73.2221 142.877C73.0821 143.057 73.0121 143.307 73.0121 143.627C73.0121 143.837 73.0521 144.017 73.1321 144.167C73.2221 144.307 73.3321 144.422 73.4621 144.512C73.6021 144.602 73.7621 144.667 73.9421 144.707C74.1221 144.747 74.3121 144.767 74.5121 144.767C74.9321 144.767 75.2921 144.712 75.5921 144.602C75.8921 144.482 76.1371 144.337 76.3271 144.167C76.5171 143.987 76.6571 143.797 76.7471 143.597C76.8371 143.387 76.8821 143.192 76.8821 143.012V141.707ZM86.8287 145.052C86.8287 146.322 86.5387 147.272 85.9587 147.902C85.3787 148.532 84.4687 148.847 83.2287 148.847C82.8687 148.847 82.4987 148.807 82.1187 148.727C81.7487 148.647 81.4087 148.517 81.0987 148.337C80.7987 148.157 80.5487 147.922 80.3487 147.632C80.1487 147.342 80.0387 146.987 80.0187 146.567H81.2937C81.3037 146.797 81.3737 146.992 81.5037 147.152C81.6437 147.312 81.8087 147.442 81.9987 147.542C82.1987 147.642 82.4137 147.712 82.6437 147.752C82.8737 147.802 83.0937 147.827 83.3037 147.827C83.7237 147.827 84.0787 147.752 84.3687 147.602C84.6587 147.462 84.8987 147.262 85.0887 147.002C85.2787 146.752 85.4137 146.447 85.4937 146.087C85.5837 145.727 85.6287 145.332 85.6287 144.902V144.392H85.5987C85.3787 144.872 85.0437 145.227 84.5937 145.457C84.1537 145.677 83.6837 145.787 83.1837 145.787C82.6037 145.787 82.0987 145.682 81.6687 145.472C81.2387 145.262 80.8787 144.982 80.5887 144.632C80.2987 144.272 80.0787 143.857 79.9287 143.387C79.7887 142.907 79.7187 142.402 79.7187 141.872C79.7187 141.412 79.7787 140.942 79.8987 140.462C80.0187 139.972 80.2187 139.532 80.4987 139.142C80.7787 138.742 81.1487 138.417 81.6087 138.167C82.0687 137.907 82.6337 137.777 83.3037 137.777C83.7937 137.777 84.2437 137.887 84.6537 138.107C85.0637 138.317 85.3837 138.637 85.6137 139.067H85.6287V137.957H86.8287V145.052ZM83.2587 144.677C83.6787 144.677 84.0337 144.592 84.3237 144.422C84.6237 144.242 84.8637 144.012 85.0437 143.732C85.2237 143.442 85.3537 143.117 85.4337 142.757C85.5237 142.397 85.5687 142.037 85.5687 141.677C85.5687 141.337 85.5287 141.002 85.4487 140.672C85.3687 140.342 85.2387 140.047 85.0587 139.787C84.8887 139.517 84.6637 139.302 84.3837 139.142C84.1037 138.982 83.7637 138.902 83.3637 138.902C82.9537 138.902 82.6037 138.982 82.3137 139.142C82.0237 139.292 81.7837 139.497 81.5937 139.757C81.4137 140.017 81.2787 140.317 81.1887 140.657C81.1087 140.997 81.0687 141.352 81.0687 141.722C81.0687 142.072 81.1037 142.422 81.1737 142.772C81.2437 143.122 81.3637 143.442 81.5337 143.732C81.7037 144.012 81.9287 144.242 82.2087 144.422C82.4887 144.592 82.8387 144.677 83.2587 144.677ZM90.102 136.562H88.827V135.002H90.102V136.562ZM88.827 137.957H90.102V145.712H88.827V137.957ZM92.0772 137.957H93.2772V139.187H93.3072C93.8372 138.247 94.6772 137.777 95.8272 137.777C96.3372 137.777 96.7622 137.847 97.1022 137.987C97.4422 138.127 97.7172 138.322 97.9272 138.572C98.1372 138.822 98.2822 139.122 98.3622 139.472C98.4522 139.812 98.4972 140.192 98.4972 140.612V145.712H97.2222V140.462C97.2222 139.982 97.0822 139.602 96.8022 139.322C96.5222 139.042 96.1372 138.902 95.6472 138.902C95.2572 138.902 94.9172 138.962 94.6272 139.082C94.3472 139.202 94.1122 139.372 93.9222 139.592C93.7322 139.812 93.5872 140.072 93.4872 140.372C93.3972 140.662 93.3522 140.982 93.3522 141.332V145.712H92.0772V137.957ZM107.102 145.052C107.102 146.322 106.812 147.272 106.232 147.902C105.652 148.532 104.742 148.847 103.502 148.847C103.142 148.847 102.772 148.807 102.392 148.727C102.022 148.647 101.682 148.517 101.372 148.337C101.072 148.157 100.822 147.922 100.622 147.632C100.422 147.342 100.312 146.987 100.292 146.567H101.567C101.577 146.797 101.647 146.992 101.777 147.152C101.917 147.312 102.082 147.442 102.272 147.542C102.472 147.642 102.687 147.712 102.917 147.752C103.147 147.802 103.367 147.827 103.577 147.827C103.997 147.827 104.352 147.752 104.642 147.602C104.932 147.462 105.172 147.262 105.362 147.002C105.552 146.752 105.687 146.447 105.767 146.087C105.857 145.727 105.902 145.332 105.902 144.902V144.392H105.872C105.652 144.872 105.317 145.227 104.867 145.457C104.427 145.677 103.957 145.787 103.457 145.787C102.877 145.787 102.372 145.682 101.942 145.472C101.512 145.262 101.152 144.982 100.862 144.632C100.572 144.272 100.352 143.857 100.202 143.387C100.062 142.907 99.9921 142.402 99.9921 141.872C99.9921 141.412 100.052 140.942 100.172 140.462C100.292 139.972 100.492 139.532 100.772 139.142C101.052 138.742 101.422 138.417 101.882 138.167C102.342 137.907 102.907 137.777 103.577 137.777C104.067 137.777 104.517 137.887 104.927 138.107C105.337 138.317 105.657 138.637 105.887 139.067H105.902V137.957H107.102V145.052ZM103.532 144.677C103.952 144.677 104.307 144.592 104.597 144.422C104.897 144.242 105.137 144.012 105.317 143.732C105.497 143.442 105.627 143.117 105.707 142.757C105.797 142.397 105.842 142.037 105.842 141.677C105.842 141.337 105.802 141.002 105.722 140.672C105.642 140.342 105.512 140.047 105.332 139.787C105.162 139.517 104.937 139.302 104.657 139.142C104.377 138.982 104.037 138.902 103.637 138.902C103.227 138.902 102.877 138.982 102.587 139.142C102.297 139.292 102.057 139.497 101.867 139.757C101.687 140.017 101.552 140.317 101.462 140.657C101.382 140.997 101.342 141.352 101.342 141.722C101.342 142.072 101.377 142.422 101.447 142.772C101.517 143.122 101.637 143.442 101.807 143.732C101.977 144.012 102.202 144.242 102.482 144.422C102.762 144.592 103.112 144.677 103.532 144.677ZM110.375 136.562H109.1V135.002H110.375V136.562ZM109.1 137.957H110.375V145.712H109.1V137.957ZM111.721 144.737L116.401 139.082H112.021V137.957H118.051V138.827L113.311 144.587H118.261V145.712H111.721V144.737ZM126.248 145.052C126.248 146.322 125.958 147.272 125.378 147.902C124.798 148.532 123.888 148.847 122.648 148.847C122.288 148.847 121.918 148.807 121.538 148.727C121.168 148.647 120.828 148.517 120.518 148.337C120.218 148.157 119.968 147.922 119.768 147.632C119.568 147.342 119.458 146.987 119.438 146.567H120.713C120.723 146.797 120.793 146.992 120.923 147.152C121.063 147.312 121.228 147.442 121.418 147.542C121.618 147.642 121.833 147.712 122.063 147.752C122.293 147.802 122.513 147.827 122.723 147.827C123.143 147.827 123.498 147.752 123.788 147.602C124.078 147.462 124.318 147.262 124.508 147.002C124.698 146.752 124.833 146.447 124.913 146.087C125.003 145.727 125.048 145.332 125.048 144.902V144.392H125.018C124.798 144.872 124.463 145.227 124.013 145.457C123.573 145.677 123.103 145.787 122.603 145.787C122.023 145.787 121.518 145.682 121.088 145.472C120.658 145.262 120.298 144.982 120.008 144.632C119.718 144.272 119.498 143.857 119.348 143.387C119.208 142.907 119.138 142.402 119.138 141.872C119.138 141.412 119.198 140.942 119.318 140.462C119.438 139.972 119.638 139.532 119.918 139.142C120.198 138.742 120.568 138.417 121.028 138.167C121.488 137.907 122.053 137.777 122.723 137.777C123.213 137.777 123.663 137.887 124.073 138.107C124.483 138.317 124.803 138.637 125.033 139.067H125.048V137.957H126.248V145.052ZM122.678 144.677C123.098 144.677 123.453 144.592 123.743 144.422C124.043 144.242 124.283 144.012 124.463 143.732C124.643 143.442 124.773 143.117 124.853 142.757C124.943 142.397 124.988 142.037 124.988 141.677C124.988 141.337 124.948 141.002 124.868 140.672C124.788 140.342 124.658 140.047 124.478 139.787C124.308 139.517 124.083 139.302 123.803 139.142C123.523 138.982 123.183 138.902 122.783 138.902C122.373 138.902 122.023 138.982 121.733 139.142C121.443 139.292 121.203 139.497 121.013 139.757C120.833 140.017 120.698 140.317 120.608 140.657C120.528 140.997 120.488 141.352 120.488 141.722C120.488 142.072 120.523 142.422 120.593 142.772C120.663 143.122 120.783 143.442 120.953 143.732C121.123 144.012 121.348 144.242 121.628 144.422C121.908 144.592 122.258 144.677 122.678 144.677ZM135.041 145.682C134.821 145.812 134.516 145.877 134.126 145.877C133.796 145.877 133.531 145.787 133.331 145.607C133.141 145.417 133.046 145.112 133.046 144.692C132.696 145.112 132.286 145.417 131.816 145.607C131.356 145.787 130.856 145.877 130.316 145.877C129.966 145.877 129.631 145.837 129.311 145.757C129.001 145.677 128.731 145.552 128.501 145.382C128.271 145.212 128.086 144.992 127.946 144.722C127.816 144.442 127.751 144.107 127.751 143.717C127.751 143.277 127.826 142.917 127.976 142.637C128.126 142.357 128.321 142.132 128.561 141.962C128.811 141.782 129.091 141.647 129.401 141.557C129.721 141.467 130.046 141.392 130.376 141.332C130.726 141.262 131.056 141.212 131.366 141.182C131.686 141.142 131.966 141.092 132.206 141.032C132.446 140.962 132.636 140.867 132.776 140.747C132.916 140.617 132.986 140.432 132.986 140.192C132.986 139.912 132.931 139.687 132.821 139.517C132.721 139.347 132.586 139.217 132.416 139.127C132.256 139.037 132.071 138.977 131.861 138.947C131.661 138.917 131.461 138.902 131.261 138.902C130.721 138.902 130.271 139.007 129.911 139.217C129.551 139.417 129.356 139.802 129.326 140.372H128.051C128.071 139.892 128.171 139.487 128.351 139.157C128.531 138.827 128.771 138.562 129.071 138.362C129.371 138.152 129.711 138.002 130.091 137.912C130.481 137.822 130.896 137.777 131.336 137.777C131.686 137.777 132.031 137.802 132.371 137.852C132.721 137.902 133.036 138.007 133.316 138.167C133.596 138.317 133.821 138.532 133.991 138.812C134.161 139.092 134.246 139.457 134.246 139.907V143.897C134.246 144.197 134.261 144.417 134.291 144.557C134.331 144.697 134.451 144.767 134.651 144.767C134.761 144.767 134.891 144.742 135.041 144.692V145.682ZM132.971 141.707C132.811 141.827 132.601 141.917 132.341 141.977C132.081 142.027 131.806 142.072 131.516 142.112C131.236 142.142 130.951 142.182 130.661 142.232C130.371 142.272 130.111 142.342 129.881 142.442C129.651 142.542 129.461 142.687 129.311 142.877C129.171 143.057 129.101 143.307 129.101 143.627C129.101 143.837 129.141 144.017 129.221 144.167C129.311 144.307 129.421 144.422 129.551 144.512C129.691 144.602 129.851 144.667 130.031 144.707C130.211 144.747 130.401 144.767 130.601 144.767C131.021 144.767 131.381 144.712 131.681 144.602C131.981 144.482 132.226 144.337 132.416 144.167C132.606 143.987 132.746 143.797 132.836 143.597C132.926 143.387 132.971 143.192 132.971 143.012V141.707ZM140.477 135.002H141.752V141.347L145.292 137.957H147.002L143.927 140.777L147.227 145.712H145.607L142.952 141.662L141.752 142.772V145.712H140.477V135.002ZM149.111 141.842C149.111 142.312 149.171 142.732 149.291 143.102C149.421 143.462 149.596 143.767 149.816 144.017C150.036 144.257 150.291 144.442 150.581 144.572C150.881 144.702 151.196 144.767 151.526 144.767C151.856 144.767 152.166 144.702 152.456 144.572C152.756 144.442 153.016 144.257 153.236 144.017C153.456 143.767 153.626 143.462 153.746 143.102C153.876 142.732 153.941 142.312 153.941 141.842C153.941 141.372 153.876 140.957 153.746 140.597C153.626 140.227 153.456 139.917 153.236 139.667C153.016 139.417 152.756 139.227 152.456 139.097C152.166 138.967 151.856 138.902 151.526 138.902C151.196 138.902 150.881 138.967 150.581 139.097C150.291 139.227 150.036 139.417 149.816 139.667C149.596 139.917 149.421 140.227 149.291 140.597C149.171 140.957 149.111 141.372 149.111 141.842ZM147.761 141.842C147.761 141.272 147.841 140.742 148.001 140.252C148.161 139.752 148.401 139.322 148.721 138.962C149.041 138.592 149.436 138.302 149.906 138.092C150.376 137.882 150.916 137.777 151.526 137.777C152.146 137.777 152.686 137.882 153.146 138.092C153.616 138.302 154.011 138.592 154.331 138.962C154.651 139.322 154.891 139.752 155.051 140.252C155.211 140.742 155.291 141.272 155.291 141.842C155.291 142.412 155.211 142.942 155.051 143.432C154.891 143.922 154.651 144.352 154.331 144.722C154.011 145.082 153.616 145.367 153.146 145.577C152.686 145.777 152.146 145.877 151.526 145.877C150.916 145.877 150.376 145.777 149.906 145.577C149.436 145.367 149.041 145.082 148.721 144.722C148.401 144.352 148.161 143.922 148.001 143.432C147.841 142.942 147.761 142.412 147.761 141.842ZM157.079 135.002H158.744V136.667C158.744 136.967 158.709 137.252 158.639 137.522C158.579 137.782 158.479 138.012 158.339 138.212C158.209 138.412 158.039 138.572 157.829 138.692C157.629 138.812 157.384 138.872 157.094 138.872V138.122C157.264 138.122 157.404 138.082 157.514 138.002C157.624 137.912 157.714 137.797 157.784 137.657C157.854 137.517 157.899 137.362 157.919 137.192C157.949 137.012 157.964 136.837 157.964 136.667H157.079V135.002ZM160.924 137.957H162.124V139.592H162.154C162.464 138.962 162.844 138.497 163.294 138.197C163.744 137.897 164.314 137.757 165.004 137.777V139.127C164.494 139.127 164.059 139.197 163.699 139.337C163.339 139.477 163.049 139.682 162.829 139.952C162.609 140.222 162.449 140.552 162.349 140.942C162.249 141.322 162.199 141.762 162.199 142.262V145.712H160.924V137.957ZM172.834 145.682C172.614 145.812 172.309 145.877 171.919 145.877C171.589 145.877 171.324 145.787 171.124 145.607C170.934 145.417 170.839 145.112 170.839 144.692C170.489 145.112 170.079 145.417 169.609 145.607C169.149 145.787 168.649 145.877 168.109 145.877C167.759 145.877 167.424 145.837 167.104 145.757C166.794 145.677 166.524 145.552 166.294 145.382C166.064 145.212 165.879 144.992 165.739 144.722C165.609 144.442 165.544 144.107 165.544 143.717C165.544 143.277 165.619 142.917 165.769 142.637C165.919 142.357 166.114 142.132 166.354 141.962C166.604 141.782 166.884 141.647 167.194 141.557C167.514 141.467 167.839 141.392 168.169 141.332C168.519 141.262 168.849 141.212 169.159 141.182C169.479 141.142 169.759 141.092 169.999 141.032C170.239 140.962 170.429 140.867 170.569 140.747C170.709 140.617 170.779 140.432 170.779 140.192C170.779 139.912 170.724 139.687 170.614 139.517C170.514 139.347 170.379 139.217 170.209 139.127C170.049 139.037 169.864 138.977 169.654 138.947C169.454 138.917 169.254 138.902 169.054 138.902C168.514 138.902 168.064 139.007 167.704 139.217C167.344 139.417 167.149 139.802 167.119 140.372H165.844C165.864 139.892 165.964 139.487 166.144 139.157C166.324 138.827 166.564 138.562 166.864 138.362C167.164 138.152 167.504 138.002 167.884 137.912C168.274 137.822 168.689 137.777 169.129 137.777C169.479 137.777 169.824 137.802 170.164 137.852C170.514 137.902 170.829 138.007 171.109 138.167C171.389 138.317 171.614 138.532 171.784 138.812C171.954 139.092 172.039 139.457 172.039 139.907V143.897C172.039 144.197 172.054 144.417 172.084 144.557C172.124 144.697 172.244 144.767 172.444 144.767C172.554 144.767 172.684 144.742 172.834 144.692V145.682ZM170.764 141.707C170.604 141.827 170.394 141.917 170.134 141.977C169.874 142.027 169.599 142.072 169.309 142.112C169.029 142.142 168.744 142.182 168.454 142.232C168.164 142.272 167.904 142.342 167.674 142.442C167.444 142.542 167.254 142.687 167.104 142.877C166.964 143.057 166.894 143.307 166.894 143.627C166.894 143.837 166.934 144.017 167.014 144.167C167.104 144.307 167.214 144.422 167.344 144.512C167.484 144.602 167.644 144.667 167.824 144.707C168.004 144.747 168.194 144.767 168.394 144.767C168.814 144.767 169.174 144.712 169.474 144.602C169.774 144.482 170.019 144.337 170.209 144.167C170.399 143.987 170.539 143.797 170.629 143.597C170.719 143.387 170.764 143.192 170.764 143.012V141.707ZM179.965 137.957H181.51V139.082H179.965V143.897C179.965 144.047 179.975 144.167 179.995 144.257C180.025 144.347 180.075 144.417 180.145 144.467C180.215 144.517 180.31 144.552 180.43 144.572C180.56 144.582 180.725 144.587 180.925 144.587H181.51V145.712H180.535C180.205 145.712 179.92 145.692 179.68 145.652C179.45 145.602 179.26 145.517 179.11 145.397C178.97 145.277 178.865 145.107 178.795 144.887C178.725 144.667 178.69 144.377 178.69 144.017V139.082H177.37V137.957H178.69V135.632H179.965V137.957ZM189.797 145.682C189.577 145.812 189.272 145.877 188.882 145.877C188.552 145.877 188.287 145.787 188.087 145.607C187.897 145.417 187.802 145.112 187.802 144.692C187.452 145.112 187.042 145.417 186.572 145.607C186.112 145.787 185.612 145.877 185.072 145.877C184.722 145.877 184.387 145.837 184.067 145.757C183.757 145.677 183.487 145.552 183.257 145.382C183.027 145.212 182.842 144.992 182.702 144.722C182.572 144.442 182.507 144.107 182.507 143.717C182.507 143.277 182.582 142.917 182.732 142.637C182.882 142.357 183.077 142.132 183.317 141.962C183.567 141.782 183.847 141.647 184.157 141.557C184.477 141.467 184.802 141.392 185.132 141.332C185.482 141.262 185.812 141.212 186.122 141.182C186.442 141.142 186.722 141.092 186.962 141.032C187.202 140.962 187.392 140.867 187.532 140.747C187.672 140.617 187.742 140.432 187.742 140.192C187.742 139.912 187.687 139.687 187.577 139.517C187.477 139.347 187.342 139.217 187.172 139.127C187.012 139.037 186.827 138.977 186.617 138.947C186.417 138.917 186.217 138.902 186.017 138.902C185.477 138.902 185.027 139.007 184.667 139.217C184.307 139.417 184.112 139.802 184.082 140.372H182.807C182.827 139.892 182.927 139.487 183.107 139.157C183.287 138.827 183.527 138.562 183.827 138.362C184.127 138.152 184.467 138.002 184.847 137.912C185.237 137.822 185.652 137.777 186.092 137.777C186.442 137.777 186.787 137.802 187.127 137.852C187.477 137.902 187.792 138.007 188.072 138.167C188.352 138.317 188.577 138.532 188.747 138.812C188.917 139.092 189.002 139.457 189.002 139.907V143.897C189.002 144.197 189.017 144.417 189.047 144.557C189.087 144.697 189.207 144.767 189.407 144.767C189.517 144.767 189.647 144.742 189.797 144.692V145.682ZM187.727 141.707C187.567 141.827 187.357 141.917 187.097 141.977C186.837 142.027 186.562 142.072 186.272 142.112C185.992 142.142 185.707 142.182 185.417 142.232C185.127 142.272 184.867 142.342 184.637 142.442C184.407 142.542 184.217 142.687 184.067 142.877C183.927 143.057 183.857 143.307 183.857 143.627C183.857 143.837 183.897 144.017 183.977 144.167C184.067 144.307 184.177 144.422 184.307 144.512C184.447 144.602 184.607 144.667 184.787 144.707C184.967 144.747 185.157 144.767 185.357 144.767C185.777 144.767 186.137 144.712 186.437 144.602C186.737 144.482 186.982 144.337 187.172 144.167C187.362 143.987 187.502 143.797 187.592 143.597C187.682 143.387 187.727 143.192 187.727 143.012V141.707ZM194.028 146.747C193.878 147.127 193.728 147.447 193.578 147.707C193.438 147.967 193.278 148.177 193.098 148.337C192.928 148.507 192.733 148.627 192.513 148.697C192.303 148.777 192.058 148.817 191.778 148.817C191.628 148.817 191.478 148.807 191.328 148.787C191.178 148.767 191.033 148.732 190.893 148.682V147.512C191.003 147.562 191.128 147.602 191.268 147.632C191.418 147.672 191.543 147.692 191.643 147.692C191.903 147.692 192.118 147.627 192.288 147.497C192.468 147.377 192.603 147.202 192.693 146.972L193.218 145.667L190.143 137.957H191.583L193.848 144.302H193.878L196.053 137.957H197.403L194.028 146.747ZM201.528 146.747C201.378 147.127 201.228 147.447 201.078 147.707C200.938 147.967 200.778 148.177 200.598 148.337C200.428 148.507 200.233 148.627 200.013 148.697C199.803 148.777 199.558 148.817 199.278 148.817C199.128 148.817 198.978 148.807 198.828 148.787C198.678 148.767 198.533 148.732 198.393 148.682V147.512C198.503 147.562 198.628 147.602 198.768 147.632C198.918 147.672 199.043 147.692 199.143 147.692C199.403 147.692 199.618 147.627 199.788 147.497C199.968 147.377 200.103 147.202 200.193 146.972L200.718 145.667L197.643 137.957H199.083L201.348 144.302H201.378L203.553 137.957H204.903L201.528 146.747ZM206.913 141.842C206.913 142.312 206.973 142.732 207.093 143.102C207.223 143.462 207.398 143.767 207.618 144.017C207.838 144.257 208.093 144.442 208.383 144.572C208.683 144.702 208.998 144.767 209.328 144.767C209.658 144.767 209.968 144.702 210.258 144.572C210.558 144.442 210.818 144.257 211.038 144.017C211.258 143.767 211.428 143.462 211.548 143.102C211.678 142.732 211.743 142.312 211.743 141.842C211.743 141.372 211.678 140.957 211.548 140.597C211.428 140.227 211.258 139.917 211.038 139.667C210.818 139.417 210.558 139.227 210.258 139.097C209.968 138.967 209.658 138.902 209.328 138.902C208.998 138.902 208.683 138.967 208.383 139.097C208.093 139.227 207.838 139.417 207.618 139.667C207.398 139.917 207.223 140.227 207.093 140.597C206.973 140.957 206.913 141.372 206.913 141.842ZM205.563 141.842C205.563 141.272 205.643 140.742 205.803 140.252C205.963 139.752 206.203 139.322 206.523 138.962C206.843 138.592 207.238 138.302 207.708 138.092C208.178 137.882 208.718 137.777 209.328 137.777C209.948 137.777 210.488 137.882 210.948 138.092C211.418 138.302 211.813 138.592 212.133 138.962C212.453 139.322 212.693 139.752 212.853 140.252C213.013 140.742 213.093 141.272 213.093 141.842C213.093 142.412 213.013 142.942 212.853 143.432C212.693 143.922 212.453 144.352 212.133 144.722C211.813 145.082 211.418 145.367 210.948 145.577C210.488 145.777 209.948 145.877 209.328 145.877C208.718 145.877 208.178 145.777 207.708 145.577C207.238 145.367 206.843 145.082 206.523 144.722C206.203 144.352 205.963 143.922 205.803 143.432C205.643 142.942 205.563 142.412 205.563 141.842ZM214.552 137.957H215.752V139.592H215.782C216.092 138.962 216.472 138.497 216.922 138.197C217.372 137.897 217.942 137.757 218.632 137.777V139.127C218.122 139.127 217.687 139.197 217.327 139.337C216.967 139.477 216.677 139.682 216.457 139.952C216.237 140.222 216.077 140.552 215.977 140.942C215.877 141.322 215.827 141.762 215.827 142.262V145.712H214.552V137.957ZM225.537 137.957H227.082V139.082H225.537V143.897C225.537 144.047 225.547 144.167 225.567 144.257C225.597 144.347 225.647 144.417 225.717 144.467C225.787 144.517 225.882 144.552 226.002 144.572C226.132 144.582 226.297 144.587 226.497 144.587H227.082V145.712H226.107C225.777 145.712 225.492 145.692 225.252 145.652C225.022 145.602 224.832 145.517 224.682 145.397C224.542 145.277 224.437 145.107 224.367 144.887C224.297 144.667 224.262 144.377 224.262 144.017V139.082H222.942V137.957H224.262V135.632H225.537V137.957ZM235.368 145.682C235.148 145.812 234.843 145.877 234.453 145.877C234.123 145.877 233.858 145.787 233.658 145.607C233.468 145.417 233.373 145.112 233.373 144.692C233.023 145.112 232.613 145.417 232.143 145.607C231.683 145.787 231.183 145.877 230.643 145.877C230.293 145.877 229.958 145.837 229.638 145.757C229.328 145.677 229.058 145.552 228.828 145.382C228.598 145.212 228.413 144.992 228.273 144.722C228.143 144.442 228.078 144.107 228.078 143.717C228.078 143.277 228.153 142.917 228.303 142.637C228.453 142.357 228.648 142.132 228.888 141.962C229.138 141.782 229.418 141.647 229.728 141.557C230.048 141.467 230.373 141.392 230.703 141.332C231.053 141.262 231.383 141.212 231.693 141.182C232.013 141.142 232.293 141.092 232.533 141.032C232.773 140.962 232.963 140.867 233.103 140.747C233.243 140.617 233.313 140.432 233.313 140.192C233.313 139.912 233.258 139.687 233.148 139.517C233.048 139.347 232.913 139.217 232.743 139.127C232.583 139.037 232.398 138.977 232.188 138.947C231.988 138.917 231.788 138.902 231.588 138.902C231.048 138.902 230.598 139.007 230.238 139.217C229.878 139.417 229.683 139.802 229.653 140.372H228.378C228.398 139.892 228.498 139.487 228.678 139.157C228.858 138.827 229.098 138.562 229.398 138.362C229.698 138.152 230.038 138.002 230.418 137.912C230.808 137.822 231.223 137.777 231.663 137.777C232.013 137.777 232.358 137.802 232.698 137.852C233.048 137.902 233.363 138.007 233.643 138.167C233.923 138.317 234.148 138.532 234.318 138.812C234.488 139.092 234.573 139.457 234.573 139.907V143.897C234.573 144.197 234.588 144.417 234.618 144.557C234.658 144.697 234.778 144.767 234.978 144.767C235.088 144.767 235.218 144.742 235.368 144.692V145.682ZM233.298 141.707C233.138 141.827 232.928 141.917 232.668 141.977C232.408 142.027 232.133 142.072 231.843 142.112C231.563 142.142 231.278 142.182 230.988 142.232C230.698 142.272 230.438 142.342 230.208 142.442C229.978 142.542 229.788 142.687 229.638 142.877C229.498 143.057 229.428 143.307 229.428 143.627C229.428 143.837 229.468 144.017 229.548 144.167C229.638 144.307 229.748 144.422 229.878 144.512C230.018 144.602 230.178 144.667 230.358 144.707C230.538 144.747 230.728 144.767 230.928 144.767C231.348 144.767 231.708 144.712 232.008 144.602C232.308 144.482 232.553 144.337 232.743 144.167C232.933 143.987 233.073 143.797 233.163 143.597C233.253 143.387 233.298 143.192 233.298 143.012V141.707ZM236.84 135.002H238.505V136.667C238.505 136.967 238.47 137.252 238.4 137.522C238.34 137.782 238.24 138.012 238.1 138.212C237.97 138.412 237.8 138.572 237.59 138.692C237.39 138.812 237.145 138.872 236.855 138.872V138.122C237.025 138.122 237.165 138.082 237.275 138.002C237.385 137.912 237.475 137.797 237.545 137.657C237.615 137.517 237.66 137.362 237.68 137.192C237.71 137.012 237.725 136.837 237.725 136.667H236.84V135.002ZM240.73 137.957H241.93V139.097H241.96C242.54 138.217 243.375 137.777 244.465 137.777C244.945 137.777 245.38 137.877 245.77 138.077C246.16 138.277 246.435 138.617 246.595 139.097C246.855 138.677 247.195 138.352 247.615 138.122C248.045 137.892 248.515 137.777 249.025 137.777C249.415 137.777 249.765 137.822 250.075 137.912C250.395 137.992 250.665 138.122 250.885 138.302C251.115 138.482 251.29 138.717 251.41 139.007C251.54 139.287 251.605 139.627 251.605 140.027V145.712H250.33V140.627C250.33 140.387 250.31 140.162 250.27 139.952C250.23 139.742 250.155 139.562 250.045 139.412C249.935 139.252 249.78 139.127 249.58 139.037C249.39 138.947 249.14 138.902 248.83 138.902C248.2 138.902 247.705 139.082 247.345 139.442C246.985 139.802 246.805 140.282 246.805 140.882V145.712H245.53V140.627C245.53 140.377 245.505 140.147 245.455 139.937C245.415 139.727 245.34 139.547 245.23 139.397C245.12 139.237 244.97 139.117 244.78 139.037C244.6 138.947 244.365 138.902 244.075 138.902C243.705 138.902 243.385 138.977 243.115 139.127C242.855 139.277 242.64 139.457 242.47 139.667C242.31 139.877 242.19 140.097 242.11 140.327C242.04 140.547 242.005 140.732 242.005 140.882V145.712H240.73V137.957ZM254.868 136.562H253.593V135.002H254.868V136.562ZM253.593 137.957H254.868V145.712H253.593V137.957ZM256.798 137.957H257.998V139.592H258.028C258.338 138.962 258.718 138.497 259.168 138.197C259.618 137.897 260.188 137.757 260.878 137.777V139.127C260.368 139.127 259.933 139.197 259.573 139.337C259.213 139.477 258.923 139.682 258.703 139.952C258.483 140.222 258.323 140.552 258.223 140.942C258.123 141.322 258.073 141.762 258.073 142.262V145.712H256.798V137.957ZM261.913 135.002H263.188V145.712H261.913V135.002ZM272.033 145.682C271.813 145.812 271.508 145.877 271.118 145.877C270.788 145.877 270.523 145.787 270.323 145.607C270.133 145.417 270.038 145.112 270.038 144.692C269.688 145.112 269.278 145.417 268.808 145.607C268.348 145.787 267.848 145.877 267.308 145.877C266.958 145.877 266.623 145.837 266.303 145.757C265.993 145.677 265.723 145.552 265.493 145.382C265.263 145.212 265.078 144.992 264.938 144.722C264.808 144.442 264.743 144.107 264.743 143.717C264.743 143.277 264.818 142.917 264.968 142.637C265.118 142.357 265.313 142.132 265.553 141.962C265.803 141.782 266.083 141.647 266.393 141.557C266.713 141.467 267.038 141.392 267.368 141.332C267.718 141.262 268.048 141.212 268.358 141.182C268.678 141.142 268.958 141.092 269.198 141.032C269.438 140.962 269.628 140.867 269.768 140.747C269.908 140.617 269.978 140.432 269.978 140.192C269.978 139.912 269.923 139.687 269.813 139.517C269.713 139.347 269.578 139.217 269.408 139.127C269.248 139.037 269.063 138.977 268.853 138.947C268.653 138.917 268.453 138.902 268.253 138.902C267.713 138.902 267.263 139.007 266.903 139.217C266.543 139.417 266.348 139.802 266.318 140.372H265.043C265.063 139.892 265.163 139.487 265.343 139.157C265.523 138.827 265.763 138.562 266.063 138.362C266.363 138.152 266.703 138.002 267.083 137.912C267.473 137.822 267.888 137.777 268.328 137.777C268.678 137.777 269.023 137.802 269.363 137.852C269.713 137.902 270.028 138.007 270.308 138.167C270.588 138.317 270.813 138.532 270.983 138.812C271.153 139.092 271.238 139.457 271.238 139.907V143.897C271.238 144.197 271.253 144.417 271.283 144.557C271.323 144.697 271.443 144.767 271.643 144.767C271.753 144.767 271.883 144.742 272.033 144.692V145.682ZM269.963 141.707C269.803 141.827 269.593 141.917 269.333 141.977C269.073 142.027 268.798 142.072 268.508 142.112C268.228 142.142 267.943 142.182 267.653 142.232C267.363 142.272 267.103 142.342 266.873 142.442C266.643 142.542 266.453 142.687 266.303 142.877C266.163 143.057 266.093 143.307 266.093 143.627C266.093 143.837 266.133 144.017 266.213 144.167C266.303 144.307 266.413 144.422 266.543 144.512C266.683 144.602 266.843 144.667 267.023 144.707C267.203 144.747 267.393 144.767 267.593 144.767C268.013 144.767 268.373 144.712 268.673 144.602C268.973 144.482 269.218 144.337 269.408 144.167C269.598 143.987 269.738 143.797 269.828 143.597C269.918 143.387 269.963 143.192 269.963 143.012V141.707ZM273.22 137.957H274.42V139.187H274.45C274.98 138.247 275.82 137.777 276.97 137.777C277.48 137.777 277.905 137.847 278.245 137.987C278.585 138.127 278.86 138.322 279.07 138.572C279.28 138.822 279.425 139.122 279.505 139.472C279.595 139.812 279.64 140.192 279.64 140.612V145.712H278.365V140.462C278.365 139.982 278.225 139.602 277.945 139.322C277.665 139.042 277.28 138.902 276.79 138.902C276.4 138.902 276.06 138.962 275.77 139.082C275.49 139.202 275.255 139.372 275.065 139.592C274.875 139.812 274.73 140.072 274.63 140.372C274.54 140.662 274.495 140.982 274.495 141.332V145.712H273.22V137.957ZM288.245 145.052C288.245 146.322 287.955 147.272 287.375 147.902C286.795 148.532 285.885 148.847 284.645 148.847C284.285 148.847 283.915 148.807 283.535 148.727C283.165 148.647 282.825 148.517 282.515 148.337C282.215 148.157 281.965 147.922 281.765 147.632C281.565 147.342 281.455 146.987 281.435 146.567H282.71C282.72 146.797 282.79 146.992 282.92 147.152C283.06 147.312 283.225 147.442 283.415 147.542C283.615 147.642 283.83 147.712 284.06 147.752C284.29 147.802 284.51 147.827 284.72 147.827C285.14 147.827 285.495 147.752 285.785 147.602C286.075 147.462 286.315 147.262 286.505 147.002C286.695 146.752 286.83 146.447 286.91 146.087C287 145.727 287.045 145.332 287.045 144.902V144.392H287.015C286.795 144.872 286.46 145.227 286.01 145.457C285.57 145.677 285.1 145.787 284.6 145.787C284.02 145.787 283.515 145.682 283.085 145.472C282.655 145.262 282.295 144.982 282.005 144.632C281.715 144.272 281.495 143.857 281.345 143.387C281.205 142.907 281.135 142.402 281.135 141.872C281.135 141.412 281.195 140.942 281.315 140.462C281.435 139.972 281.635 139.532 281.915 139.142C282.195 138.742 282.565 138.417 283.025 138.167C283.485 137.907 284.05 137.777 284.72 137.777C285.21 137.777 285.66 137.887 286.07 138.107C286.48 138.317 286.8 138.637 287.03 139.067H287.045V137.957H288.245V145.052ZM284.675 144.677C285.095 144.677 285.45 144.592 285.74 144.422C286.04 144.242 286.28 144.012 286.46 143.732C286.64 143.442 286.77 143.117 286.85 142.757C286.94 142.397 286.985 142.037 286.985 141.677C286.985 141.337 286.945 141.002 286.865 140.672C286.785 140.342 286.655 140.047 286.475 139.787C286.305 139.517 286.08 139.302 285.8 139.142C285.52 138.982 285.18 138.902 284.78 138.902C284.37 138.902 284.02 138.982 283.73 139.142C283.44 139.292 283.2 139.497 283.01 139.757C282.83 140.017 282.695 140.317 282.605 140.657C282.525 140.997 282.485 141.352 282.485 141.722C282.485 142.072 282.52 142.422 282.59 142.772C282.66 143.122 282.78 143.442 282.95 143.732C283.12 144.012 283.345 144.242 283.625 144.422C283.905 144.592 284.255 144.677 284.675 144.677ZM297.038 145.682C296.818 145.812 296.513 145.877 296.123 145.877C295.793 145.877 295.528 145.787 295.328 145.607C295.138 145.417 295.043 145.112 295.043 144.692C294.693 145.112 294.283 145.417 293.813 145.607C293.353 145.787 292.853 145.877 292.313 145.877C291.963 145.877 291.628 145.837 291.308 145.757C290.998 145.677 290.728 145.552 290.498 145.382C290.268 145.212 290.083 144.992 289.943 144.722C289.813 144.442 289.748 144.107 289.748 143.717C289.748 143.277 289.823 142.917 289.973 142.637C290.123 142.357 290.318 142.132 290.558 141.962C290.808 141.782 291.088 141.647 291.398 141.557C291.718 141.467 292.043 141.392 292.373 141.332C292.723 141.262 293.053 141.212 293.363 141.182C293.683 141.142 293.963 141.092 294.203 141.032C294.443 140.962 294.633 140.867 294.773 140.747C294.913 140.617 294.983 140.432 294.983 140.192C294.983 139.912 294.928 139.687 294.818 139.517C294.718 139.347 294.583 139.217 294.413 139.127C294.253 139.037 294.068 138.977 293.858 138.947C293.658 138.917 293.458 138.902 293.258 138.902C292.718 138.902 292.268 139.007 291.908 139.217C291.548 139.417 291.353 139.802 291.323 140.372H290.048C290.068 139.892 290.168 139.487 290.348 139.157C290.528 138.827 290.768 138.562 291.068 138.362C291.368 138.152 291.708 138.002 292.088 137.912C292.478 137.822 292.893 137.777 293.333 137.777C293.683 137.777 294.028 137.802 294.368 137.852C294.718 137.902 295.033 138.007 295.313 138.167C295.593 138.317 295.818 138.532 295.988 138.812C296.158 139.092 296.243 139.457 296.243 139.907V143.897C296.243 144.197 296.258 144.417 296.288 144.557C296.328 144.697 296.448 144.767 296.648 144.767C296.758 144.767 296.888 144.742 297.038 144.692V145.682ZM294.968 141.707C294.808 141.827 294.598 141.917 294.338 141.977C294.078 142.027 293.803 142.072 293.513 142.112C293.233 142.142 292.948 142.182 292.658 142.232C292.368 142.272 292.108 142.342 291.878 142.442C291.648 142.542 291.458 142.687 291.308 142.877C291.168 143.057 291.098 143.307 291.098 143.627C291.098 143.837 291.138 144.017 291.218 144.167C291.308 144.307 291.418 144.422 291.548 144.512C291.688 144.602 291.848 144.667 292.028 144.707C292.208 144.747 292.398 144.767 292.598 144.767C293.018 144.767 293.378 144.712 293.678 144.602C293.978 144.482 294.223 144.337 294.413 144.167C294.603 143.987 294.743 143.797 294.833 143.597C294.923 143.387 294.968 143.192 294.968 143.012V141.707ZM298.225 137.957H299.425V139.187H299.455C299.985 138.247 300.825 137.777 301.975 137.777C302.485 137.777 302.91 137.847 303.25 137.987C303.59 138.127 303.865 138.322 304.075 138.572C304.285 138.822 304.43 139.122 304.51 139.472C304.6 139.812 304.645 140.192 304.645 140.612V145.712H303.37V140.462C303.37 139.982 303.23 139.602 302.95 139.322C302.67 139.042 302.285 138.902 301.795 138.902C301.405 138.902 301.065 138.962 300.775 139.082C300.495 139.202 300.26 139.372 300.07 139.592C299.88 139.812 299.735 140.072 299.635 140.372C299.545 140.662 299.5 140.982 299.5 141.332V145.712H298.225V137.957ZM313.779 146.747C313.629 147.127 313.479 147.447 313.329 147.707C313.189 147.967 313.029 148.177 312.849 148.337C312.679 148.507 312.484 148.627 312.264 148.697C312.054 148.777 311.809 148.817 311.529 148.817C311.379 148.817 311.229 148.807 311.079 148.787C310.929 148.767 310.784 148.732 310.644 148.682V147.512C310.754 147.562 310.879 147.602 311.019 147.632C311.169 147.672 311.294 147.692 311.394 147.692C311.654 147.692 311.869 147.627 312.039 147.497C312.219 147.377 312.354 147.202 312.444 146.972L312.969 145.667L309.894 137.957H311.334L313.599 144.302H313.629L315.804 137.957H317.154L313.779 146.747ZM319.164 141.842C319.164 142.312 319.224 142.732 319.344 143.102C319.474 143.462 319.649 143.767 319.869 144.017C320.089 144.257 320.344 144.442 320.634 144.572C320.934 144.702 321.249 144.767 321.579 144.767C321.909 144.767 322.219 144.702 322.509 144.572C322.809 144.442 323.069 144.257 323.289 144.017C323.509 143.767 323.679 143.462 323.799 143.102C323.929 142.732 323.994 142.312 323.994 141.842C323.994 141.372 323.929 140.957 323.799 140.597C323.679 140.227 323.509 139.917 323.289 139.667C323.069 139.417 322.809 139.227 322.509 139.097C322.219 138.967 321.909 138.902 321.579 138.902C321.249 138.902 320.934 138.967 320.634 139.097C320.344 139.227 320.089 139.417 319.869 139.667C319.649 139.917 319.474 140.227 319.344 140.597C319.224 140.957 319.164 141.372 319.164 141.842ZM317.814 141.842C317.814 141.272 317.894 140.742 318.054 140.252C318.214 139.752 318.454 139.322 318.774 138.962C319.094 138.592 319.489 138.302 319.959 138.092C320.429 137.882 320.969 137.777 321.579 137.777C322.199 137.777 322.739 137.882 323.199 138.092C323.669 138.302 324.064 138.592 324.384 138.962C324.704 139.322 324.944 139.752 325.104 140.252C325.264 140.742 325.344 141.272 325.344 141.842C325.344 142.412 325.264 142.942 325.104 143.432C324.944 143.922 324.704 144.352 324.384 144.722C324.064 145.082 323.669 145.367 323.199 145.577C322.739 145.777 322.199 145.877 321.579 145.877C320.969 145.877 320.429 145.777 319.959 145.577C319.489 145.367 319.094 145.082 318.774 144.722C318.454 144.352 318.214 143.922 318.054 143.432C317.894 142.942 317.814 142.412 317.814 141.842ZM326.923 135.002H328.198V141.347L331.738 137.957H333.448L330.373 140.777L333.673 145.712H332.053L329.398 141.662L328.198 142.772V145.712H326.923V135.002ZM335.976 136.562H334.701V135.002H335.976V136.562ZM334.701 137.957H335.976V145.712H334.701V137.957ZM54.1248 156.002H55.3998V162.347L58.9398 158.957H60.6498L57.5748 161.777L60.8748 166.712H59.2548L56.5998 162.662L55.3998 163.772V166.712H54.1248V156.002ZM68.6982 166.682C68.4782 166.812 68.1732 166.877 67.7832 166.877C67.4532 166.877 67.1882 166.787 66.9882 166.607C66.7982 166.417 66.7032 166.112 66.7032 165.692C66.3532 166.112 65.9432 166.417 65.4732 166.607C65.0132 166.787 64.5132 166.877 63.9732 166.877C63.6232 166.877 63.2882 166.837 62.9682 166.757C62.6582 166.677 62.3882 166.552 62.1582 166.382C61.9282 166.212 61.7432 165.992 61.6032 165.722C61.4732 165.442 61.4082 165.107 61.4082 164.717C61.4082 164.277 61.4832 163.917 61.6332 163.637C61.7832 163.357 61.9782 163.132 62.2182 162.962C62.4682 162.782 62.7482 162.647 63.0582 162.557C63.3782 162.467 63.7032 162.392 64.0332 162.332C64.3832 162.262 64.7132 162.212 65.0232 162.182C65.3432 162.142 65.6232 162.092 65.8632 162.032C66.1032 161.962 66.2932 161.867 66.4332 161.747C66.5732 161.617 66.6432 161.432 66.6432 161.192C66.6432 160.912 66.5882 160.687 66.4782 160.517C66.3782 160.347 66.2432 160.217 66.0732 160.127C65.9132 160.037 65.7282 159.977 65.5182 159.947C65.3182 159.917 65.1182 159.902 64.9182 159.902C64.3782 159.902 63.9282 160.007 63.5682 160.217C63.2082 160.417 63.0132 160.802 62.9832 161.372H61.7082C61.7282 160.892 61.8282 160.487 62.0082 160.157C62.1882 159.827 62.4282 159.562 62.7282 159.362C63.0282 159.152 63.3682 159.002 63.7482 158.912C64.1382 158.822 64.5532 158.777 64.9932 158.777C65.3432 158.777 65.6882 158.802 66.0282 158.852C66.3782 158.902 66.6932 159.007 66.9732 159.167C67.2532 159.317 67.4782 159.532 67.6482 159.812C67.8182 160.092 67.9032 160.457 67.9032 160.907V164.897C67.9032 165.197 67.9182 165.417 67.9482 165.557C67.9882 165.697 68.1082 165.767 68.3082 165.767C68.4182 165.767 68.5482 165.742 68.6982 165.692V166.682ZM66.6282 162.707C66.4682 162.827 66.2582 162.917 65.9982 162.977C65.7382 163.027 65.4632 163.072 65.1732 163.112C64.8932 163.142 64.6082 163.182 64.3182 163.232C64.0282 163.272 63.7682 163.342 63.5382 163.442C63.3082 163.542 63.1182 163.687 62.9682 163.877C62.8282 164.057 62.7582 164.307 62.7582 164.627C62.7582 164.837 62.7982 165.017 62.8782 165.167C62.9682 165.307 63.0782 165.422 63.2082 165.512C63.3482 165.602 63.5082 165.667 63.6882 165.707C63.8682 165.747 64.0582 165.767 64.2582 165.767C64.6782 165.767 65.0382 165.712 65.3382 165.602C65.6382 165.482 65.8832 165.337 66.0732 165.167C66.2632 164.987 66.4032 164.797 66.4932 164.597C66.5832 164.387 66.6282 164.192 66.6282 164.012V162.707ZM69.8398 158.957H71.0398V160.592H71.0698C71.3798 159.962 71.7598 159.497 72.2098 159.197C72.6598 158.897 73.2298 158.757 73.9198 158.777V160.127C73.4098 160.127 72.9748 160.197 72.6148 160.337C72.2548 160.477 71.9648 160.682 71.7448 160.952C71.5248 161.222 71.3648 161.552 71.2648 161.942C71.1648 162.322 71.1148 162.762 71.1148 163.262V166.712H69.8398V158.957ZM75.5463 162.842C75.5463 163.312 75.6063 163.732 75.7263 164.102C75.8563 164.462 76.0313 164.767 76.2513 165.017C76.4713 165.257 76.7263 165.442 77.0163 165.572C77.3163 165.702 77.6313 165.767 77.9613 165.767C78.2913 165.767 78.6013 165.702 78.8913 165.572C79.1913 165.442 79.4513 165.257 79.6713 165.017C79.8913 164.767 80.0613 164.462 80.1813 164.102C80.3113 163.732 80.3763 163.312 80.3763 162.842C80.3763 162.372 80.3113 161.957 80.1813 161.597C80.0613 161.227 79.8913 160.917 79.6713 160.667C79.4513 160.417 79.1913 160.227 78.8913 160.097C78.6013 159.967 78.2913 159.902 77.9613 159.902C77.6313 159.902 77.3163 159.967 77.0163 160.097C76.7263 160.227 76.4713 160.417 76.2513 160.667C76.0313 160.917 75.8563 161.227 75.7263 161.597C75.6063 161.957 75.5463 162.372 75.5463 162.842ZM74.1963 162.842C74.1963 162.272 74.2763 161.742 74.4363 161.252C74.5963 160.752 74.8363 160.322 75.1563 159.962C75.4763 159.592 75.8713 159.302 76.3413 159.092C76.8113 158.882 77.3513 158.777 77.9613 158.777C78.5813 158.777 79.1213 158.882 79.5813 159.092C80.0513 159.302 80.4463 159.592 80.7663 159.962C81.0863 160.322 81.3263 160.752 81.4863 161.252C81.6463 161.742 81.7263 162.272 81.7263 162.842C81.7263 163.412 81.6463 163.942 81.4863 164.432C81.3263 164.922 81.0863 165.352 80.7663 165.722C80.4463 166.082 80.0513 166.367 79.5813 166.577C79.1213 166.777 78.5813 166.877 77.9613 166.877C77.3513 166.877 76.8113 166.777 76.3413 166.577C75.8713 166.367 75.4763 166.082 75.1563 165.722C74.8363 165.352 74.5963 164.922 74.4363 164.432C74.2763 163.942 74.1963 163.412 74.1963 162.842ZM83.2745 156.002H84.5495V160.007H84.5795C84.7895 159.577 85.1195 159.267 85.5695 159.077C86.0195 158.877 86.5145 158.777 87.0545 158.777C87.6545 158.777 88.1745 158.887 88.6145 159.107C89.0645 159.327 89.4345 159.627 89.7245 160.007C90.0245 160.377 90.2495 160.807 90.3995 161.297C90.5495 161.787 90.6245 162.307 90.6245 162.857C90.6245 163.407 90.5495 163.927 90.3995 164.417C90.2595 164.907 90.0395 165.337 89.7395 165.707C89.4495 166.067 89.0795 166.352 88.6295 166.562C88.1895 166.772 87.6745 166.877 87.0845 166.877C86.8945 166.877 86.6795 166.857 86.4395 166.817C86.2095 166.777 85.9795 166.712 85.7495 166.622C85.5195 166.532 85.2995 166.412 85.0895 166.262C84.8895 166.102 84.7195 165.907 84.5795 165.677H84.5495V166.712H83.2745V156.002ZM89.2745 162.767C89.2745 162.407 89.2245 162.057 89.1245 161.717C89.0345 161.367 88.8895 161.057 88.6895 160.787C88.4995 160.517 88.2495 160.302 87.9395 160.142C87.6395 159.982 87.2845 159.902 86.8745 159.902C86.4445 159.902 86.0795 159.987 85.7795 160.157C85.4795 160.327 85.2345 160.552 85.0445 160.832C84.8545 161.102 84.7145 161.412 84.6245 161.762C84.5445 162.112 84.5045 162.467 84.5045 162.827C84.5045 163.207 84.5495 163.577 84.6395 163.937C84.7295 164.287 84.8695 164.597 85.0595 164.867C85.2595 165.137 85.5145 165.357 85.8245 165.527C86.1345 165.687 86.5095 165.767 86.9495 165.767C87.3895 165.767 87.7545 165.682 88.0445 165.512C88.3445 165.342 88.5845 165.117 88.7645 164.837C88.9445 164.557 89.0745 164.237 89.1545 163.877C89.2345 163.517 89.2745 163.147 89.2745 162.767ZM92.1961 156.002H93.4711V162.347L97.0111 158.957H98.7211L95.6461 161.777L98.9461 166.712H97.3261L94.6711 162.662L93.4711 163.772V166.712H92.1961V156.002ZM106.769 166.682C106.549 166.812 106.244 166.877 105.854 166.877C105.524 166.877 105.259 166.787 105.059 166.607C104.869 166.417 104.774 166.112 104.774 165.692C104.424 166.112 104.014 166.417 103.544 166.607C103.084 166.787 102.584 166.877 102.044 166.877C101.694 166.877 101.359 166.837 101.039 166.757C100.729 166.677 100.459 166.552 100.229 166.382C99.9995 166.212 99.8145 165.992 99.6745 165.722C99.5445 165.442 99.4795 165.107 99.4795 164.717C99.4795 164.277 99.5545 163.917 99.7045 163.637C99.8545 163.357 100.049 163.132 100.289 162.962C100.539 162.782 100.819 162.647 101.129 162.557C101.449 162.467 101.774 162.392 102.104 162.332C102.454 162.262 102.784 162.212 103.094 162.182C103.414 162.142 103.694 162.092 103.934 162.032C104.174 161.962 104.364 161.867 104.504 161.747C104.644 161.617 104.714 161.432 104.714 161.192C104.714 160.912 104.659 160.687 104.549 160.517C104.449 160.347 104.314 160.217 104.144 160.127C103.984 160.037 103.799 159.977 103.589 159.947C103.389 159.917 103.189 159.902 102.989 159.902C102.449 159.902 101.999 160.007 101.639 160.217C101.279 160.417 101.084 160.802 101.054 161.372H99.7795C99.7995 160.892 99.8995 160.487 100.079 160.157C100.259 159.827 100.499 159.562 100.799 159.362C101.099 159.152 101.439 159.002 101.819 158.912C102.209 158.822 102.624 158.777 103.064 158.777C103.414 158.777 103.759 158.802 104.099 158.852C104.449 158.902 104.764 159.007 105.044 159.167C105.324 159.317 105.549 159.532 105.719 159.812C105.889 160.092 105.974 160.457 105.974 160.907V164.897C105.974 165.197 105.989 165.417 106.019 165.557C106.059 165.697 106.179 165.767 106.379 165.767C106.489 165.767 106.619 165.742 106.769 165.692V166.682ZM104.699 162.707C104.539 162.827 104.329 162.917 104.069 162.977C103.809 163.027 103.534 163.072 103.244 163.112C102.964 163.142 102.679 163.182 102.389 163.232C102.099 163.272 101.839 163.342 101.609 163.442C101.379 163.542 101.189 163.687 101.039 163.877C100.899 164.057 100.829 164.307 100.829 164.627C100.829 164.837 100.869 165.017 100.949 165.167C101.039 165.307 101.149 165.422 101.279 165.512C101.419 165.602 101.579 165.667 101.759 165.707C101.939 165.747 102.129 165.767 102.329 165.767C102.749 165.767 103.109 165.712 103.409 165.602C103.709 165.482 103.954 165.337 104.144 165.167C104.334 164.987 104.474 164.797 104.564 164.597C104.654 164.387 104.699 164.192 104.699 164.012V162.707ZM112.131 156.002H113.406V160.097H113.436C113.536 159.857 113.676 159.657 113.856 159.497C114.036 159.327 114.236 159.192 114.456 159.092C114.686 158.982 114.921 158.902 115.161 158.852C115.411 158.802 115.651 158.777 115.881 158.777C116.391 158.777 116.816 158.847 117.156 158.987C117.496 159.127 117.771 159.322 117.981 159.572C118.191 159.822 118.336 160.122 118.416 160.472C118.506 160.812 118.551 161.192 118.551 161.612V166.712H117.276V161.462C117.276 160.982 117.136 160.602 116.856 160.322C116.576 160.042 116.191 159.902 115.701 159.902C115.311 159.902 114.971 159.962 114.681 160.082C114.401 160.202 114.166 160.372 113.976 160.592C113.786 160.812 113.641 161.072 113.541 161.372C113.451 161.662 113.406 161.982 113.406 162.332V166.712H112.131V156.002ZM121.396 162.842C121.396 163.312 121.456 163.732 121.576 164.102C121.706 164.462 121.881 164.767 122.101 165.017C122.321 165.257 122.576 165.442 122.866 165.572C123.166 165.702 123.481 165.767 123.811 165.767C124.141 165.767 124.451 165.702 124.741 165.572C125.041 165.442 125.301 165.257 125.521 165.017C125.741 164.767 125.911 164.462 126.031 164.102C126.161 163.732 126.226 163.312 126.226 162.842C126.226 162.372 126.161 161.957 126.031 161.597C125.911 161.227 125.741 160.917 125.521 160.667C125.301 160.417 125.041 160.227 124.741 160.097C124.451 159.967 124.141 159.902 123.811 159.902C123.481 159.902 123.166 159.967 122.866 160.097C122.576 160.227 122.321 160.417 122.101 160.667C121.881 160.917 121.706 161.227 121.576 161.597C121.456 161.957 121.396 162.372 121.396 162.842ZM120.046 162.842C120.046 162.272 120.126 161.742 120.286 161.252C120.446 160.752 120.686 160.322 121.006 159.962C121.326 159.592 121.721 159.302 122.191 159.092C122.661 158.882 123.201 158.777 123.811 158.777C124.431 158.777 124.971 158.882 125.431 159.092C125.901 159.302 126.296 159.592 126.616 159.962C126.936 160.322 127.176 160.752 127.336 161.252C127.496 161.742 127.576 162.272 127.576 162.842C127.576 163.412 127.496 163.942 127.336 164.432C127.176 164.922 126.936 165.352 126.616 165.722C126.296 166.082 125.901 166.367 125.431 166.577C124.971 166.777 124.431 166.877 123.811 166.877C123.201 166.877 122.661 166.777 122.191 166.577C121.721 166.367 121.326 166.082 121.006 165.722C120.686 165.352 120.446 164.922 120.286 164.432C120.126 163.942 120.046 163.412 120.046 162.842ZM129.154 156.002H130.429V166.712H129.154V156.002ZM139.274 166.682C139.054 166.812 138.749 166.877 138.359 166.877C138.029 166.877 137.764 166.787 137.564 166.607C137.374 166.417 137.279 166.112 137.279 165.692C136.929 166.112 136.519 166.417 136.049 166.607C135.589 166.787 135.089 166.877 134.549 166.877C134.199 166.877 133.864 166.837 133.544 166.757C133.234 166.677 132.964 166.552 132.734 166.382C132.504 166.212 132.319 165.992 132.179 165.722C132.049 165.442 131.984 165.107 131.984 164.717C131.984 164.277 132.059 163.917 132.209 163.637C132.359 163.357 132.554 163.132 132.794 162.962C133.044 162.782 133.324 162.647 133.634 162.557C133.954 162.467 134.279 162.392 134.609 162.332C134.959 162.262 135.289 162.212 135.599 162.182C135.919 162.142 136.199 162.092 136.439 162.032C136.679 161.962 136.869 161.867 137.009 161.747C137.149 161.617 137.219 161.432 137.219 161.192C137.219 160.912 137.164 160.687 137.054 160.517C136.954 160.347 136.819 160.217 136.649 160.127C136.489 160.037 136.304 159.977 136.094 159.947C135.894 159.917 135.694 159.902 135.494 159.902C134.954 159.902 134.504 160.007 134.144 160.217C133.784 160.417 133.589 160.802 133.559 161.372H132.284C132.304 160.892 132.404 160.487 132.584 160.157C132.764 159.827 133.004 159.562 133.304 159.362C133.604 159.152 133.944 159.002 134.324 158.912C134.714 158.822 135.129 158.777 135.569 158.777C135.919 158.777 136.264 158.802 136.604 158.852C136.954 158.902 137.269 159.007 137.549 159.167C137.829 159.317 138.054 159.532 138.224 159.812C138.394 160.092 138.479 160.457 138.479 160.907V164.897C138.479 165.197 138.494 165.417 138.524 165.557C138.564 165.697 138.684 165.767 138.884 165.767C138.994 165.767 139.124 165.742 139.274 165.692V166.682ZM137.204 162.707C137.044 162.827 136.834 162.917 136.574 162.977C136.314 163.027 136.039 163.072 135.749 163.112C135.469 163.142 135.184 163.182 134.894 163.232C134.604 163.272 134.344 163.342 134.114 163.442C133.884 163.542 133.694 163.687 133.544 163.877C133.404 164.057 133.334 164.307 133.334 164.627C133.334 164.837 133.374 165.017 133.454 165.167C133.544 165.307 133.654 165.422 133.784 165.512C133.924 165.602 134.084 165.667 134.264 165.707C134.444 165.747 134.634 165.767 134.834 165.767C135.254 165.767 135.614 165.712 135.914 165.602C136.214 165.482 136.459 165.337 136.649 165.167C136.839 164.987 136.979 164.797 137.069 164.597C137.159 164.387 137.204 164.192 137.204 164.012V162.707ZM142.231 158.957H143.776V160.082H142.231V164.897C142.231 165.047 142.241 165.167 142.261 165.257C142.291 165.347 142.341 165.417 142.411 165.467C142.481 165.517 142.576 165.552 142.696 165.572C142.826 165.582 142.991 165.587 143.191 165.587H143.776V166.712H142.801C142.471 166.712 142.186 166.692 141.946 166.652C141.716 166.602 141.526 166.517 141.376 166.397C141.236 166.277 141.131 166.107 141.061 165.887C140.991 165.667 140.956 165.377 140.956 165.017V160.082H139.636V158.957H140.956V156.632H142.231V158.957ZM146.542 157.562H145.267V156.002H146.542V157.562ZM145.267 158.957H146.542V166.712H145.267V158.957ZM149.448 162.902C149.448 163.262 149.493 163.617 149.583 163.967C149.683 164.307 149.828 164.612 150.018 164.882C150.218 165.152 150.468 165.367 150.768 165.527C151.078 165.687 151.438 165.767 151.848 165.767C152.278 165.767 152.643 165.682 152.943 165.512C153.243 165.342 153.488 165.122 153.678 164.852C153.868 164.572 154.003 164.257 154.083 163.907C154.173 163.557 154.218 163.202 154.218 162.842C154.218 162.462 154.173 162.097 154.083 161.747C153.993 161.387 153.848 161.072 153.648 160.802C153.458 160.532 153.208 160.317 152.898 160.157C152.588 159.987 152.213 159.902 151.773 159.902C151.343 159.902 150.978 159.987 150.678 160.157C150.378 160.327 150.138 160.552 149.958 160.832C149.778 161.112 149.648 161.432 149.568 161.792C149.488 162.152 149.448 162.522 149.448 162.902ZM155.448 166.712H154.173V165.662H154.143C153.933 166.092 153.603 166.402 153.153 166.592C152.703 166.782 152.208 166.877 151.668 166.877C151.068 166.877 150.543 166.767 150.093 166.547C149.653 166.327 149.283 166.032 148.983 165.662C148.693 165.292 148.473 164.862 148.323 164.372C148.173 163.882 148.098 163.362 148.098 162.812C148.098 162.262 148.168 161.742 148.308 161.252C148.458 160.762 148.678 160.337 148.968 159.977C149.268 159.607 149.638 159.317 150.078 159.107C150.528 158.887 151.048 158.777 151.638 158.777C151.838 158.777 152.053 158.797 152.283 158.837C152.513 158.877 152.743 158.947 152.973 159.047C153.203 159.137 153.418 159.262 153.618 159.422C153.828 159.572 154.003 159.762 154.143 159.992H154.173V156.002H155.448V166.712ZM164.279 166.682C164.059 166.812 163.754 166.877 163.364 166.877C163.034 166.877 162.769 166.787 162.569 166.607C162.379 166.417 162.284 166.112 162.284 165.692C161.934 166.112 161.524 166.417 161.054 166.607C160.594 166.787 160.094 166.877 159.554 166.877C159.204 166.877 158.869 166.837 158.549 166.757C158.239 166.677 157.969 166.552 157.739 166.382C157.509 166.212 157.324 165.992 157.184 165.722C157.054 165.442 156.989 165.107 156.989 164.717C156.989 164.277 157.064 163.917 157.214 163.637C157.364 163.357 157.559 163.132 157.799 162.962C158.049 162.782 158.329 162.647 158.639 162.557C158.959 162.467 159.284 162.392 159.614 162.332C159.964 162.262 160.294 162.212 160.604 162.182C160.924 162.142 161.204 162.092 161.444 162.032C161.684 161.962 161.874 161.867 162.014 161.747C162.154 161.617 162.224 161.432 162.224 161.192C162.224 160.912 162.169 160.687 162.059 160.517C161.959 160.347 161.824 160.217 161.654 160.127C161.494 160.037 161.309 159.977 161.099 159.947C160.899 159.917 160.699 159.902 160.499 159.902C159.959 159.902 159.509 160.007 159.149 160.217C158.789 160.417 158.594 160.802 158.564 161.372H157.289C157.309 160.892 157.409 160.487 157.589 160.157C157.769 159.827 158.009 159.562 158.309 159.362C158.609 159.152 158.949 159.002 159.329 158.912C159.719 158.822 160.134 158.777 160.574 158.777C160.924 158.777 161.269 158.802 161.609 158.852C161.959 158.902 162.274 159.007 162.554 159.167C162.834 159.317 163.059 159.532 163.229 159.812C163.399 160.092 163.484 160.457 163.484 160.907V164.897C163.484 165.197 163.499 165.417 163.529 165.557C163.569 165.697 163.689 165.767 163.889 165.767C163.999 165.767 164.129 165.742 164.279 165.692V166.682ZM162.209 162.707C162.049 162.827 161.839 162.917 161.579 162.977C161.319 163.027 161.044 163.072 160.754 163.112C160.474 163.142 160.189 163.182 159.899 163.232C159.609 163.272 159.349 163.342 159.119 163.442C158.889 163.542 158.699 163.687 158.549 163.877C158.409 164.057 158.339 164.307 158.339 164.627C158.339 164.837 158.379 165.017 158.459 165.167C158.549 165.307 158.659 165.422 158.789 165.512C158.929 165.602 159.089 165.667 159.269 165.707C159.449 165.747 159.639 165.767 159.839 165.767C160.259 165.767 160.619 165.712 160.919 165.602C161.219 165.482 161.464 165.337 161.654 165.167C161.844 164.987 161.984 164.797 162.074 164.597C162.164 164.387 162.209 164.192 162.209 164.012V162.707ZM171.726 162.632L169.026 158.957H170.661L172.521 161.672L174.456 158.957H175.986L173.316 162.527L176.316 166.712H174.681L172.521 163.502L170.361 166.712H168.816L171.726 162.632ZM178.334 162.842C178.334 163.312 178.394 163.732 178.514 164.102C178.644 164.462 178.819 164.767 179.039 165.017C179.259 165.257 179.514 165.442 179.804 165.572C180.104 165.702 180.419 165.767 180.749 165.767C181.079 165.767 181.389 165.702 181.679 165.572C181.979 165.442 182.239 165.257 182.459 165.017C182.679 164.767 182.849 164.462 182.969 164.102C183.099 163.732 183.164 163.312 183.164 162.842C183.164 162.372 183.099 161.957 182.969 161.597C182.849 161.227 182.679 160.917 182.459 160.667C182.239 160.417 181.979 160.227 181.679 160.097C181.389 159.967 181.079 159.902 180.749 159.902C180.419 159.902 180.104 159.967 179.804 160.097C179.514 160.227 179.259 160.417 179.039 160.667C178.819 160.917 178.644 161.227 178.514 161.597C178.394 161.957 178.334 162.372 178.334 162.842ZM176.984 162.842C176.984 162.272 177.064 161.742 177.224 161.252C177.384 160.752 177.624 160.322 177.944 159.962C178.264 159.592 178.659 159.302 179.129 159.092C179.599 158.882 180.139 158.777 180.749 158.777C181.369 158.777 181.909 158.882 182.369 159.092C182.839 159.302 183.234 159.592 183.554 159.962C183.874 160.322 184.114 160.752 184.274 161.252C184.434 161.742 184.514 162.272 184.514 162.842C184.514 163.412 184.434 163.942 184.274 164.432C184.114 164.922 183.874 165.352 183.554 165.722C183.234 166.082 182.839 166.367 182.369 166.577C181.909 166.777 181.369 166.877 180.749 166.877C180.139 166.877 179.599 166.777 179.129 166.577C178.659 166.367 178.264 166.082 177.944 165.722C177.624 165.352 177.384 164.922 177.224 164.432C177.064 163.942 176.984 163.412 176.984 162.842ZM186.018 158.957H187.218V160.187H187.248C187.778 159.247 188.618 158.777 189.768 158.777C190.278 158.777 190.703 158.847 191.043 158.987C191.383 159.127 191.658 159.322 191.868 159.572C192.078 159.822 192.223 160.122 192.303 160.472C192.393 160.812 192.438 161.192 192.438 161.612V166.712H191.163V161.462C191.163 160.982 191.023 160.602 190.743 160.322C190.463 160.042 190.078 159.902 189.588 159.902C189.198 159.902 188.858 159.962 188.568 160.082C188.288 160.202 188.053 160.372 187.863 160.592C187.673 160.812 187.528 161.072 187.428 161.372C187.338 161.662 187.293 161.982 187.293 162.332V166.712H186.018V158.957ZM201.223 166.682C201.003 166.812 200.698 166.877 200.308 166.877C199.978 166.877 199.713 166.787 199.513 166.607C199.323 166.417 199.228 166.112 199.228 165.692C198.878 166.112 198.468 166.417 197.998 166.607C197.538 166.787 197.038 166.877 196.498 166.877C196.148 166.877 195.813 166.837 195.493 166.757C195.183 166.677 194.913 166.552 194.683 166.382C194.453 166.212 194.268 165.992 194.128 165.722C193.998 165.442 193.933 165.107 193.933 164.717C193.933 164.277 194.008 163.917 194.158 163.637C194.308 163.357 194.503 163.132 194.743 162.962C194.993 162.782 195.273 162.647 195.583 162.557C195.903 162.467 196.228 162.392 196.558 162.332C196.908 162.262 197.238 162.212 197.548 162.182C197.868 162.142 198.148 162.092 198.388 162.032C198.628 161.962 198.818 161.867 198.958 161.747C199.098 161.617 199.168 161.432 199.168 161.192C199.168 160.912 199.113 160.687 199.003 160.517C198.903 160.347 198.768 160.217 198.598 160.127C198.438 160.037 198.253 159.977 198.043 159.947C197.843 159.917 197.643 159.902 197.443 159.902C196.903 159.902 196.453 160.007 196.093 160.217C195.733 160.417 195.538 160.802 195.508 161.372H194.233C194.253 160.892 194.353 160.487 194.533 160.157C194.713 159.827 194.953 159.562 195.253 159.362C195.553 159.152 195.893 159.002 196.273 158.912C196.663 158.822 197.078 158.777 197.518 158.777C197.868 158.777 198.213 158.802 198.553 158.852C198.903 158.902 199.218 159.007 199.498 159.167C199.778 159.317 200.003 159.532 200.173 159.812C200.343 160.092 200.428 160.457 200.428 160.907V164.897C200.428 165.197 200.443 165.417 200.473 165.557C200.513 165.697 200.633 165.767 200.833 165.767C200.943 165.767 201.073 165.742 201.223 165.692V166.682ZM199.153 162.707C198.993 162.827 198.783 162.917 198.523 162.977C198.263 163.027 197.988 163.072 197.698 163.112C197.418 163.142 197.133 163.182 196.843 163.232C196.553 163.272 196.293 163.342 196.063 163.442C195.833 163.542 195.643 163.687 195.493 163.877C195.353 164.057 195.283 164.307 195.283 164.627C195.283 164.837 195.323 165.017 195.403 165.167C195.493 165.307 195.603 165.422 195.733 165.512C195.873 165.602 196.033 165.667 196.213 165.707C196.393 165.747 196.583 165.767 196.783 165.767C197.203 165.767 197.563 165.712 197.863 165.602C198.163 165.482 198.408 165.337 198.598 165.167C198.788 164.987 198.928 164.797 199.018 164.597C199.108 164.387 199.153 164.192 199.153 164.012V162.707ZM203.339 162.902C203.339 163.262 203.384 163.617 203.474 163.967C203.574 164.307 203.719 164.612 203.909 164.882C204.109 165.152 204.359 165.367 204.659 165.527C204.969 165.687 205.329 165.767 205.739 165.767C206.169 165.767 206.534 165.682 206.834 165.512C207.134 165.342 207.379 165.122 207.569 164.852C207.759 164.572 207.894 164.257 207.974 163.907C208.064 163.557 208.109 163.202 208.109 162.842C208.109 162.462 208.064 162.097 207.974 161.747C207.884 161.387 207.739 161.072 207.539 160.802C207.349 160.532 207.099 160.317 206.789 160.157C206.479 159.987 206.104 159.902 205.664 159.902C205.234 159.902 204.869 159.987 204.569 160.157C204.269 160.327 204.029 160.552 203.849 160.832C203.669 161.112 203.539 161.432 203.459 161.792C203.379 162.152 203.339 162.522 203.339 162.902ZM209.339 166.712H208.064V165.662H208.034C207.824 166.092 207.494 166.402 207.044 166.592C206.594 166.782 206.099 166.877 205.559 166.877C204.959 166.877 204.434 166.767 203.984 166.547C203.544 166.327 203.174 166.032 202.874 165.662C202.584 165.292 202.364 164.862 202.214 164.372C202.064 163.882 201.989 163.362 201.989 162.812C201.989 162.262 202.059 161.742 202.199 161.252C202.349 160.762 202.569 160.337 202.859 159.977C203.159 159.607 203.529 159.317 203.969 159.107C204.419 158.887 204.939 158.777 205.529 158.777C205.729 158.777 205.944 158.797 206.174 158.837C206.404 158.877 206.634 158.947 206.864 159.047C207.094 159.137 207.309 159.262 207.509 159.422C207.719 159.572 207.894 159.762 208.034 159.992H208.064V156.002H209.339V166.712ZM212.231 162.842C212.231 163.312 212.291 163.732 212.411 164.102C212.541 164.462 212.716 164.767 212.936 165.017C213.156 165.257 213.411 165.442 213.701 165.572C214.001 165.702 214.316 165.767 214.646 165.767C214.976 165.767 215.286 165.702 215.576 165.572C215.876 165.442 216.136 165.257 216.356 165.017C216.576 164.767 216.746 164.462 216.866 164.102C216.996 163.732 217.061 163.312 217.061 162.842C217.061 162.372 216.996 161.957 216.866 161.597C216.746 161.227 216.576 160.917 216.356 160.667C216.136 160.417 215.876 160.227 215.576 160.097C215.286 159.967 214.976 159.902 214.646 159.902C214.316 159.902 214.001 159.967 213.701 160.097C213.411 160.227 213.156 160.417 212.936 160.667C212.716 160.917 212.541 161.227 212.411 161.597C212.291 161.957 212.231 162.372 212.231 162.842ZM210.881 162.842C210.881 162.272 210.961 161.742 211.121 161.252C211.281 160.752 211.521 160.322 211.841 159.962C212.161 159.592 212.556 159.302 213.026 159.092C213.496 158.882 214.036 158.777 214.646 158.777C215.266 158.777 215.806 158.882 216.266 159.092C216.736 159.302 217.131 159.592 217.451 159.962C217.771 160.322 218.011 160.752 218.171 161.252C218.331 161.742 218.411 162.272 218.411 162.842C218.411 163.412 218.331 163.942 218.171 164.432C218.011 164.922 217.771 165.352 217.451 165.722C217.131 166.082 216.736 166.367 216.266 166.577C215.806 166.777 215.266 166.877 214.646 166.877C214.036 166.877 213.496 166.777 213.026 166.577C212.556 166.367 212.161 166.082 211.841 165.722C211.521 165.352 211.281 164.922 211.121 164.432C210.961 163.942 210.881 163.412 210.881 162.842ZM219.914 158.957H221.114V160.187H221.144C221.674 159.247 222.514 158.777 223.664 158.777C224.174 158.777 224.599 158.847 224.939 158.987C225.279 159.127 225.554 159.322 225.764 159.572C225.974 159.822 226.119 160.122 226.199 160.472C226.289 160.812 226.334 161.192 226.334 161.612V166.712H225.059V161.462C225.059 160.982 224.919 160.602 224.639 160.322C224.359 160.042 223.974 159.902 223.484 159.902C223.094 159.902 222.754 159.962 222.464 160.082C222.184 160.202 221.949 160.372 221.759 160.592C221.569 160.812 221.424 161.072 221.324 161.372C221.234 161.662 221.189 161.982 221.189 162.332V166.712H219.914V158.957ZM228.324 156.002H229.599V166.712H228.324V156.002ZM238.444 166.682C238.224 166.812 237.919 166.877 237.529 166.877C237.199 166.877 236.934 166.787 236.734 166.607C236.544 166.417 236.449 166.112 236.449 165.692C236.099 166.112 235.689 166.417 235.219 166.607C234.759 166.787 234.259 166.877 233.719 166.877C233.369 166.877 233.034 166.837 232.714 166.757C232.404 166.677 232.134 166.552 231.904 166.382C231.674 166.212 231.489 165.992 231.349 165.722C231.219 165.442 231.154 165.107 231.154 164.717C231.154 164.277 231.229 163.917 231.379 163.637C231.529 163.357 231.724 163.132 231.964 162.962C232.214 162.782 232.494 162.647 232.804 162.557C233.124 162.467 233.449 162.392 233.779 162.332C234.129 162.262 234.459 162.212 234.769 162.182C235.089 162.142 235.369 162.092 235.609 162.032C235.849 161.962 236.039 161.867 236.179 161.747C236.319 161.617 236.389 161.432 236.389 161.192C236.389 160.912 236.334 160.687 236.224 160.517C236.124 160.347 235.989 160.217 235.819 160.127C235.659 160.037 235.474 159.977 235.264 159.947C235.064 159.917 234.864 159.902 234.664 159.902C234.124 159.902 233.674 160.007 233.314 160.217C232.954 160.417 232.759 160.802 232.729 161.372H231.454C231.474 160.892 231.574 160.487 231.754 160.157C231.934 159.827 232.174 159.562 232.474 159.362C232.774 159.152 233.114 159.002 233.494 158.912C233.884 158.822 234.299 158.777 234.739 158.777C235.089 158.777 235.434 158.802 235.774 158.852C236.124 158.902 236.439 159.007 236.719 159.167C236.999 159.317 237.224 159.532 237.394 159.812C237.564 160.092 237.649 160.457 237.649 160.907V164.897C237.649 165.197 237.664 165.417 237.694 165.557C237.734 165.697 237.854 165.767 238.054 165.767C238.164 165.767 238.294 165.742 238.444 165.692V166.682ZM236.374 162.707C236.214 162.827 236.004 162.917 235.744 162.977C235.484 163.027 235.209 163.072 234.919 163.112C234.639 163.142 234.354 163.182 234.064 163.232C233.774 163.272 233.514 163.342 233.284 163.442C233.054 163.542 232.864 163.687 232.714 163.877C232.574 164.057 232.504 164.307 232.504 164.627C232.504 164.837 232.544 165.017 232.624 165.167C232.714 165.307 232.824 165.422 232.954 165.512C233.094 165.602 233.254 165.667 233.434 165.707C233.614 165.747 233.804 165.767 234.004 165.767C234.424 165.767 234.784 165.712 235.084 165.602C235.384 165.482 235.629 165.337 235.819 165.167C236.009 164.987 236.149 164.797 236.239 164.597C236.329 164.387 236.374 164.192 236.374 164.012V162.707ZM239.586 158.957H240.786V160.592H240.816C241.126 159.962 241.506 159.497 241.956 159.197C242.406 158.897 242.976 158.757 243.666 158.777V160.127C243.156 160.127 242.721 160.197 242.361 160.337C242.001 160.477 241.711 160.682 241.491 160.952C241.271 161.222 241.111 161.552 241.011 161.942C240.911 162.322 240.861 162.762 240.861 163.262V166.712H239.586V158.957ZM244.89 158.957H246.09V160.187H246.12C246.65 159.247 247.49 158.777 248.64 158.777C249.15 158.777 249.575 158.847 249.915 158.987C250.255 159.127 250.53 159.322 250.74 159.572C250.95 159.822 251.095 160.122 251.175 160.472C251.265 160.812 251.31 161.192 251.31 161.612V166.712H250.035V161.462C250.035 160.982 249.895 160.602 249.615 160.322C249.335 160.042 248.95 159.902 248.46 159.902C248.07 159.902 247.73 159.962 247.44 160.082C247.16 160.202 246.925 160.372 246.735 160.592C246.545 160.812 246.4 161.072 246.3 161.372C246.21 161.662 246.165 161.982 246.165 162.332V166.712H244.89V158.957ZM254.575 157.562H253.3V156.002H254.575V157.562ZM253.3 158.957H254.575V166.712H253.3V158.957ZM262.495 158.957H264.04V160.082H262.495V164.897C262.495 165.047 262.505 165.167 262.525 165.257C262.555 165.347 262.605 165.417 262.675 165.467C262.745 165.517 262.84 165.552 262.96 165.572C263.09 165.582 263.255 165.587 263.455 165.587H264.04V166.712H263.065C262.735 166.712 262.45 166.692 262.21 166.652C261.98 166.602 261.79 166.517 261.64 166.397C261.5 166.277 261.395 166.107 261.325 165.887C261.255 165.667 261.22 165.377 261.22 165.017V160.082H259.9V158.957H261.22V156.632H262.495V158.957ZM272.326 166.682C272.106 166.812 271.801 166.877 271.411 166.877C271.081 166.877 270.816 166.787 270.616 166.607C270.426 166.417 270.331 166.112 270.331 165.692C269.981 166.112 269.571 166.417 269.101 166.607C268.641 166.787 268.141 166.877 267.601 166.877C267.251 166.877 266.916 166.837 266.596 166.757C266.286 166.677 266.016 166.552 265.786 166.382C265.556 166.212 265.371 165.992 265.231 165.722C265.101 165.442 265.036 165.107 265.036 164.717C265.036 164.277 265.111 163.917 265.261 163.637C265.411 163.357 265.606 163.132 265.846 162.962C266.096 162.782 266.376 162.647 266.686 162.557C267.006 162.467 267.331 162.392 267.661 162.332C268.011 162.262 268.341 162.212 268.651 162.182C268.971 162.142 269.251 162.092 269.491 162.032C269.731 161.962 269.921 161.867 270.061 161.747C270.201 161.617 270.271 161.432 270.271 161.192C270.271 160.912 270.216 160.687 270.106 160.517C270.006 160.347 269.871 160.217 269.701 160.127C269.541 160.037 269.356 159.977 269.146 159.947C268.946 159.917 268.746 159.902 268.546 159.902C268.006 159.902 267.556 160.007 267.196 160.217C266.836 160.417 266.641 160.802 266.611 161.372H265.336C265.356 160.892 265.456 160.487 265.636 160.157C265.816 159.827 266.056 159.562 266.356 159.362C266.656 159.152 266.996 159.002 267.376 158.912C267.766 158.822 268.181 158.777 268.621 158.777C268.971 158.777 269.316 158.802 269.656 158.852C270.006 158.902 270.321 159.007 270.601 159.167C270.881 159.317 271.106 159.532 271.276 159.812C271.446 160.092 271.531 160.457 271.531 160.907V164.897C271.531 165.197 271.546 165.417 271.576 165.557C271.616 165.697 271.736 165.767 271.936 165.767C272.046 165.767 272.176 165.742 272.326 165.692V166.682ZM270.256 162.707C270.096 162.827 269.886 162.917 269.626 162.977C269.366 163.027 269.091 163.072 268.801 163.112C268.521 163.142 268.236 163.182 267.946 163.232C267.656 163.272 267.396 163.342 267.166 163.442C266.936 163.542 266.746 163.687 266.596 163.877C266.456 164.057 266.386 164.307 266.386 164.627C266.386 164.837 266.426 165.017 266.506 165.167C266.596 165.307 266.706 165.422 266.836 165.512C266.976 165.602 267.136 165.667 267.316 165.707C267.496 165.747 267.686 165.767 267.886 165.767C268.306 165.767 268.666 165.712 268.966 165.602C269.266 165.482 269.511 165.337 269.701 165.167C269.891 164.987 270.031 164.797 270.121 164.597C270.211 164.387 270.256 164.192 270.256 164.012V162.707ZM273.513 158.957H274.713V160.187H274.743C275.273 159.247 276.113 158.777 277.263 158.777C277.773 158.777 278.198 158.847 278.538 158.987C278.878 159.127 279.153 159.322 279.363 159.572C279.573 159.822 279.718 160.122 279.798 160.472C279.888 160.812 279.933 161.192 279.933 161.612V166.712H278.658V161.462C278.658 160.982 278.518 160.602 278.238 160.322C277.958 160.042 277.573 159.902 277.083 159.902C276.693 159.902 276.353 159.962 276.063 160.082C275.783 160.202 275.548 160.372 275.358 160.592C275.168 160.812 275.023 161.072 274.923 161.372C274.833 161.662 274.788 161.982 274.788 162.332V166.712H273.513V158.957ZM281.923 156.002H283.198V166.712H281.923V156.002ZM292.043 166.682C291.823 166.812 291.518 166.877 291.128 166.877C290.798 166.877 290.533 166.787 290.333 166.607C290.143 166.417 290.048 166.112 290.048 165.692C289.698 166.112 289.288 166.417 288.818 166.607C288.358 166.787 287.858 166.877 287.318 166.877C286.968 166.877 286.633 166.837 286.313 166.757C286.003 166.677 285.733 166.552 285.503 166.382C285.273 166.212 285.088 165.992 284.948 165.722C284.818 165.442 284.753 165.107 284.753 164.717C284.753 164.277 284.828 163.917 284.978 163.637C285.128 163.357 285.323 163.132 285.563 162.962C285.813 162.782 286.093 162.647 286.403 162.557C286.723 162.467 287.048 162.392 287.378 162.332C287.728 162.262 288.058 162.212 288.368 162.182C288.688 162.142 288.968 162.092 289.208 162.032C289.448 161.962 289.638 161.867 289.778 161.747C289.918 161.617 289.988 161.432 289.988 161.192C289.988 160.912 289.933 160.687 289.823 160.517C289.723 160.347 289.588 160.217 289.418 160.127C289.258 160.037 289.073 159.977 288.863 159.947C288.663 159.917 288.463 159.902 288.263 159.902C287.723 159.902 287.273 160.007 286.913 160.217C286.553 160.417 286.358 160.802 286.328 161.372H285.053C285.073 160.892 285.173 160.487 285.353 160.157C285.533 159.827 285.773 159.562 286.073 159.362C286.373 159.152 286.713 159.002 287.093 158.912C287.483 158.822 287.898 158.777 288.338 158.777C288.688 158.777 289.033 158.802 289.373 158.852C289.723 158.902 290.038 159.007 290.318 159.167C290.598 159.317 290.823 159.532 290.993 159.812C291.163 160.092 291.248 160.457 291.248 160.907V164.897C291.248 165.197 291.263 165.417 291.293 165.557C291.333 165.697 291.453 165.767 291.653 165.767C291.763 165.767 291.893 165.742 292.043 165.692V166.682ZM289.973 162.707C289.813 162.827 289.603 162.917 289.343 162.977C289.083 163.027 288.808 163.072 288.518 163.112C288.238 163.142 287.953 163.182 287.663 163.232C287.373 163.272 287.113 163.342 286.883 163.442C286.653 163.542 286.463 163.687 286.313 163.877C286.173 164.057 286.103 164.307 286.103 164.627C286.103 164.837 286.143 165.017 286.223 165.167C286.313 165.307 286.423 165.422 286.553 165.512C286.693 165.602 286.853 165.667 287.033 165.707C287.213 165.747 287.403 165.767 287.603 165.767C288.023 165.767 288.383 165.712 288.683 165.602C288.983 165.482 289.228 165.337 289.418 165.167C289.608 164.987 289.748 164.797 289.838 164.597C289.928 164.387 289.973 164.192 289.973 164.012V162.707ZM294.01 164.267C294.02 164.547 294.085 164.787 294.205 164.987C294.325 165.177 294.48 165.332 294.67 165.452C294.87 165.562 295.09 165.642 295.33 165.692C295.58 165.742 295.835 165.767 296.095 165.767C296.295 165.767 296.505 165.752 296.725 165.722C296.945 165.692 297.145 165.637 297.325 165.557C297.515 165.477 297.67 165.362 297.79 165.212C297.91 165.052 297.97 164.852 297.97 164.612C297.97 164.282 297.845 164.032 297.595 163.862C297.345 163.692 297.03 163.557 296.65 163.457C296.28 163.347 295.875 163.252 295.435 163.172C294.995 163.082 294.585 162.962 294.205 162.812C293.835 162.652 293.525 162.432 293.275 162.152C293.025 161.872 292.9 161.482 292.9 160.982C292.9 160.592 292.985 160.257 293.155 159.977C293.335 159.697 293.56 159.472 293.83 159.302C294.11 159.122 294.42 158.992 294.76 158.912C295.11 158.822 295.455 158.777 295.795 158.777C296.235 158.777 296.64 158.817 297.01 158.897C297.38 158.967 297.705 159.097 297.985 159.287C298.275 159.467 298.505 159.717 298.675 160.037C298.845 160.347 298.945 160.737 298.975 161.207H297.7C297.68 160.957 297.615 160.752 297.505 160.592C297.395 160.422 297.255 160.287 297.085 160.187C296.915 160.087 296.725 160.017 296.515 159.977C296.315 159.927 296.11 159.902 295.9 159.902C295.71 159.902 295.515 159.917 295.315 159.947C295.125 159.977 294.95 160.032 294.79 160.112C294.63 160.182 294.5 160.282 294.4 160.412C294.3 160.532 294.25 160.692 294.25 160.892C294.25 161.112 294.325 161.297 294.475 161.447C294.635 161.587 294.835 161.707 295.075 161.807C295.315 161.897 295.585 161.977 295.885 162.047C296.185 162.107 296.485 162.172 296.785 162.242C297.105 162.312 297.415 162.397 297.715 162.497C298.025 162.597 298.295 162.732 298.525 162.902C298.765 163.062 298.955 163.267 299.095 163.517C299.245 163.767 299.32 164.077 299.32 164.447C299.32 164.917 299.22 165.307 299.02 165.617C298.83 165.927 298.575 166.177 298.255 166.367C297.945 166.557 297.59 166.687 297.19 166.757C296.8 166.837 296.41 166.877 296.02 166.877C295.59 166.877 295.18 166.832 294.79 166.742C294.4 166.652 294.055 166.507 293.755 166.307C293.455 166.097 293.215 165.827 293.035 165.497C292.855 165.157 292.755 164.747 292.735 164.267H294.01ZM300.73 156.002H302.005V160.097H302.035C302.135 159.857 302.275 159.657 302.455 159.497C302.635 159.327 302.835 159.192 303.055 159.092C303.285 158.982 303.52 158.902 303.76 158.852C304.01 158.802 304.25 158.777 304.48 158.777C304.99 158.777 305.415 158.847 305.755 158.987C306.095 159.127 306.37 159.322 306.58 159.572C306.79 159.822 306.935 160.122 307.015 160.472C307.105 160.812 307.15 161.192 307.15 161.612V166.712H305.875V161.462C305.875 160.982 305.735 160.602 305.455 160.322C305.175 160.042 304.79 159.902 304.3 159.902C303.91 159.902 303.57 159.962 303.28 160.082C303 160.202 302.765 160.372 302.575 160.592C302.385 160.812 302.24 161.072 302.14 161.372C302.05 161.662 302.005 161.982 302.005 162.332V166.712H300.73V156.002ZM310.414 157.562H309.139V156.002H310.414V157.562ZM309.139 158.957H310.414V166.712H309.139V158.957ZM312.39 158.957H313.59V160.187H313.62C314.15 159.247 314.99 158.777 316.14 158.777C316.65 158.777 317.075 158.847 317.415 158.987C317.755 159.127 318.03 159.322 318.24 159.572C318.45 159.822 318.595 160.122 318.675 160.472C318.765 160.812 318.81 161.192 318.81 161.612V166.712H317.535V161.462C317.535 160.982 317.395 160.602 317.115 160.322C316.835 160.042 316.45 159.902 315.96 159.902C315.57 159.902 315.23 159.962 314.94 160.082C314.66 160.202 314.425 160.372 314.235 160.592C314.045 160.812 313.9 161.072 313.8 161.372C313.71 161.662 313.665 161.982 313.665 162.332V166.712H312.39V158.957ZM327.415 166.052C327.415 167.322 327.125 168.272 326.545 168.902C325.965 169.532 325.055 169.847 323.815 169.847C323.455 169.847 323.085 169.807 322.705 169.727C322.335 169.647 321.995 169.517 321.685 169.337C321.385 169.157 321.135 168.922 320.935 168.632C320.735 168.342 320.625 167.987 320.605 167.567H321.88C321.89 167.797 321.96 167.992 322.09 168.152C322.23 168.312 322.395 168.442 322.585 168.542C322.785 168.642 323 168.712 323.23 168.752C323.46 168.802 323.68 168.827 323.89 168.827C324.31 168.827 324.665 168.752 324.955 168.602C325.245 168.462 325.485 168.262 325.675 168.002C325.865 167.752 326 167.447 326.08 167.087C326.17 166.727 326.215 166.332 326.215 165.902V165.392H326.185C325.965 165.872 325.63 166.227 325.18 166.457C324.74 166.677 324.27 166.787 323.77 166.787C323.19 166.787 322.685 166.682 322.255 166.472C321.825 166.262 321.465 165.982 321.175 165.632C320.885 165.272 320.665 164.857 320.515 164.387C320.375 163.907 320.305 163.402 320.305 162.872C320.305 162.412 320.365 161.942 320.485 161.462C320.605 160.972 320.805 160.532 321.085 160.142C321.365 159.742 321.735 159.417 322.195 159.167C322.655 158.907 323.22 158.777 323.89 158.777C324.38 158.777 324.83 158.887 325.24 159.107C325.65 159.317 325.97 159.637 326.2 160.067H326.215V158.957H327.415V166.052ZM323.845 165.677C324.265 165.677 324.62 165.592 324.91 165.422C325.21 165.242 325.45 165.012 325.63 164.732C325.81 164.442 325.94 164.117 326.02 163.757C326.11 163.397 326.155 163.037 326.155 162.677C326.155 162.337 326.115 162.002 326.035 161.672C325.955 161.342 325.825 161.047 325.645 160.787C325.475 160.517 325.25 160.302 324.97 160.142C324.69 159.982 324.35 159.902 323.95 159.902C323.54 159.902 323.19 159.982 322.9 160.142C322.61 160.292 322.37 160.497 322.18 160.757C322 161.017 321.865 161.317 321.775 161.657C321.695 161.997 321.655 162.352 321.655 162.722C321.655 163.072 321.69 163.422 321.76 163.772C321.83 164.122 321.95 164.442 322.12 164.732C322.29 165.012 322.515 165.242 322.795 165.422C323.075 165.592 323.425 165.677 323.845 165.677ZM330.688 157.562H329.413V156.002H330.688V157.562ZM329.413 158.957H330.688V166.712H329.413V158.957ZM332.033 165.737L336.713 160.082H332.333V158.957H338.363V159.827L333.623 165.587H338.573V166.712H332.033V165.737Z"/>
<defs>
<filter color-interpolation-filters="sRGB" filterUnits="userSpaceOnUse" height="284.249" width="505.249" y="1.90735e-06" x="-56.1247" id="filter0_d_12_84">
<feFlood result="BackgroundImageFix" flood-opacity="0"/>
<feColorMatrix result="hardAlpha" values="0 0 0 0 0 0 0 0 0 0 0 0 0 0 0 0 0 0 127 0" type="matrix" in="SourceAlpha"/>
<feOffset dy="13.5234"/>
<feGaussianBlur stdDeviation="36.0623"/>
<feComposite operator="out" in2="hardAlpha"/>
<feColorMatrix values="0 0 0 0 0 0 0 0 0 0 0 0 0 0 0 0 0 0 0.05 0" type="matrix"/>
<feBlend result="effect1_dropShadow_12_84" in2="BackgroundImageFix" mode="normal"/>
<feBlend result="shape" in2="effect1_dropShadow_12_84" in="SourceGraphic" mode="normal"/>
</filter>
</defs>
</svg>