<svg xmlns="http://www.w3.org/2000/svg" fill="none" viewBox="12.732710280373833 54.95759999999999 366.677570093458 168.3" style="max-height: 500px" width="366.677570093458" height="168.3">
<g filter="url(#filter0_d_12_78)">
<rect fill="white" rx="27.0468" height="161" width="361" y="58.6013" x="16"/>
<rect stroke-width="2" stroke-opacity="0.56" stroke="#173727" rx="26.0468" height="159" width="359" y="59.6013" x="17"/>
</g>
<rect fill="#0C5D2B" rx="7" height="44" width="45" y="78.2458" x="173.5"/>
<path fill="white" d="M194.454 111.246V90.9706L196.672 93.1882H190.019V89.0698H199.586V111.246H194.454Z"/>
<path fill="black" d="M59.6732 139.337H62.0582C62.4782 139.337 62.8232 139.237 63.0932 139.037C63.3632 138.837 63.4982 138.512 63.4982 138.062C63.4982 137.812 63.4532 137.607 63.3632 137.447C63.2732 137.287 63.1532 137.162 63.0032 137.072C62.8532 136.982 62.6782 136.922 62.4782 136.892C62.2882 136.852 62.0882 136.832 61.8782 136.832H59.6732V139.337ZM57.3182 135.002H62.3582C62.8682 135.002 63.3332 135.047 63.7532 135.137C64.1732 135.227 64.5332 135.377 64.8332 135.587C65.1332 135.787 65.3632 136.057 65.5232 136.397C65.6932 136.737 65.7782 137.157 65.7782 137.657C65.7782 138.197 65.6532 138.647 65.4032 139.007C65.1632 139.367 64.8032 139.662 64.3232 139.892C64.9832 140.082 65.4732 140.417 65.7932 140.897C66.1232 141.367 66.2882 141.937 66.2882 142.607C66.2882 143.147 66.1832 143.617 65.9732 144.017C65.7632 144.407 65.4782 144.727 65.1182 144.977C64.7682 145.227 64.3632 145.412 63.9032 145.532C63.4532 145.652 62.9882 145.712 62.5082 145.712H57.3182V135.002ZM59.6732 143.882H62.1932C62.4232 143.882 62.6432 143.862 62.8532 143.822C63.0632 143.772 63.2482 143.697 63.4082 143.597C63.5682 143.487 63.6932 143.342 63.7832 143.162C63.8832 142.982 63.9332 142.752 63.9332 142.472C63.9332 141.922 63.7782 141.532 63.4682 141.302C63.1582 141.062 62.7482 140.942 62.2382 140.942H59.6732V143.882ZM69.5447 141.842C69.5447 142.152 69.5747 142.457 69.6347 142.757C69.6947 143.047 69.7947 143.312 69.9347 143.552C70.0847 143.782 70.2797 143.967 70.5197 144.107C70.7597 144.247 71.0597 144.317 71.4197 144.317C71.7797 144.317 72.0797 144.247 72.3197 144.107C72.5697 143.967 72.7647 143.782 72.9047 143.552C73.0547 143.312 73.1597 143.047 73.2197 142.757C73.2797 142.457 73.3097 142.152 73.3097 141.842C73.3097 141.532 73.2797 141.227 73.2197 140.927C73.1597 140.627 73.0547 140.362 72.9047 140.132C72.7647 139.902 72.5697 139.717 72.3197 139.577C72.0797 139.427 71.7797 139.352 71.4197 139.352C71.0597 139.352 70.7597 139.427 70.5197 139.577C70.2797 139.717 70.0847 139.902 69.9347 140.132C69.7947 140.362 69.6947 140.627 69.6347 140.927C69.5747 141.227 69.5447 141.532 69.5447 141.842ZM67.4147 141.842C67.4147 141.222 67.5097 140.662 67.6997 140.162C67.8897 139.652 68.1597 139.222 68.5097 138.872C68.8597 138.512 69.2797 138.237 69.7697 138.047C70.2597 137.847 70.8097 137.747 71.4197 137.747C72.0297 137.747 72.5797 137.847 73.0697 138.047C73.5697 138.237 73.9947 138.512 74.3447 138.872C74.6947 139.222 74.9647 139.652 75.1547 140.162C75.3447 140.662 75.4397 141.222 75.4397 141.842C75.4397 142.462 75.3447 143.022 75.1547 143.522C74.9647 144.022 74.6947 144.452 74.3447 144.812C73.9947 145.162 73.5697 145.432 73.0697 145.622C72.5797 145.812 72.0297 145.907 71.4197 145.907C70.8097 145.907 70.2597 145.812 69.7697 145.622C69.2797 145.432 68.8597 145.162 68.5097 144.812C68.1597 144.452 67.8897 144.022 67.6997 143.522C67.5097 143.022 67.4147 142.462 67.4147 141.842ZM78.4746 143.192C78.4746 143.422 78.5196 143.622 78.6096 143.792C78.7096 143.952 78.8346 144.087 78.9846 144.197C79.1346 144.297 79.3046 144.372 79.4946 144.422C79.6946 144.472 79.8996 144.497 80.1096 144.497C80.2596 144.497 80.4146 144.482 80.5746 144.452C80.7446 144.412 80.8946 144.357 81.0246 144.287C81.1646 144.207 81.2796 144.107 81.3696 143.987C81.4596 143.857 81.5046 143.697 81.5046 143.507C81.5046 143.187 81.2896 142.947 80.8596 142.787C80.4396 142.627 79.8496 142.467 79.0896 142.307C78.7796 142.237 78.4746 142.157 78.1746 142.067C77.8846 141.967 77.6246 141.842 77.3946 141.692C77.1646 141.532 76.9796 141.337 76.8396 141.107C76.6996 140.867 76.6296 140.577 76.6296 140.237C76.6296 139.737 76.7246 139.327 76.9146 139.007C77.1146 138.687 77.3746 138.437 77.6946 138.257C78.0146 138.067 78.3746 137.937 78.7746 137.867C79.1746 137.787 79.5846 137.747 80.0046 137.747C80.4246 137.747 80.8296 137.787 81.2196 137.867C81.6196 137.947 81.9746 138.082 82.2846 138.272C82.5946 138.462 82.8496 138.717 83.0496 139.037C83.2596 139.347 83.3846 139.742 83.4246 140.222H81.3996C81.3696 139.812 81.2146 139.537 80.9346 139.397C80.6546 139.247 80.3246 139.172 79.9446 139.172C79.8246 139.172 79.6946 139.182 79.5546 139.202C79.4146 139.212 79.2846 139.242 79.1646 139.292C79.0546 139.342 78.9596 139.417 78.8796 139.517C78.7996 139.607 78.7596 139.732 78.7596 139.892C78.7596 140.082 78.8296 140.237 78.9696 140.357C79.1096 140.477 79.2896 140.577 79.5096 140.657C79.7396 140.727 79.9996 140.792 80.2896 140.852C80.5796 140.912 80.8746 140.977 81.1746 141.047C81.4846 141.117 81.7846 141.202 82.0746 141.302C82.3746 141.402 82.6396 141.537 82.8696 141.707C83.0996 141.867 83.2846 142.072 83.4246 142.322C83.5646 142.562 83.6346 142.862 83.6346 143.222C83.6346 143.732 83.5296 144.162 83.3196 144.512C83.1196 144.852 82.8546 145.127 82.5246 145.337C82.1946 145.547 81.8146 145.692 81.3846 145.772C80.9646 145.862 80.5346 145.907 80.0946 145.907C79.6446 145.907 79.2046 145.862 78.7746 145.772C78.3446 145.682 77.9596 145.532 77.6196 145.322C77.2896 145.112 77.0146 144.837 76.7946 144.497C76.5846 144.147 76.4696 143.712 76.4496 143.192H78.4746ZM84.8813 135.002H87.0113V139.037H87.0563C87.3263 138.587 87.6713 138.262 88.0913 138.062C88.5113 137.852 88.9213 137.747 89.3213 137.747C89.8913 137.747 90.3563 137.827 90.7163 137.987C91.0863 138.137 91.3763 138.352 91.5863 138.632C91.7963 138.902 91.9413 139.237 92.0213 139.637C92.1113 140.027 92.1563 140.462 92.1563 140.942V145.712H90.0263V141.332C90.0263 140.692 89.9263 140.217 89.7263 139.907C89.5263 139.587 89.1713 139.427 88.6613 139.427C88.0813 139.427 87.6613 139.602 87.4013 139.952C87.1413 140.292 87.0113 140.857 87.0113 141.647V145.712H84.8813V135.002ZM93.8329 135.002H95.9629V145.712H93.8329V135.002ZM97.5501 140.342C97.5801 139.842 97.7051 139.427 97.9251 139.097C98.1451 138.767 98.4251 138.502 98.7651 138.302C99.1051 138.102 99.4851 137.962 99.9051 137.882C100.335 137.792 100.765 137.747 101.195 137.747C101.585 137.747 101.98 137.777 102.38 137.837C102.78 137.887 103.145 137.992 103.475 138.152C103.805 138.312 104.075 138.537 104.285 138.827C104.495 139.107 104.6 139.482 104.6 139.952V143.987C104.6 144.337 104.62 144.672 104.66 144.992C104.7 145.312 104.77 145.552 104.87 145.712H102.71C102.67 145.592 102.635 145.472 102.605 145.352C102.585 145.222 102.57 145.092 102.56 144.962C102.22 145.312 101.82 145.557 101.36 145.697C100.9 145.837 100.43 145.907 99.9501 145.907C99.5801 145.907 99.2351 145.862 98.9151 145.772C98.5951 145.682 98.3151 145.542 98.0751 145.352C97.8351 145.162 97.6451 144.922 97.5051 144.632C97.3751 144.342 97.3101 143.997 97.3101 143.597C97.3101 143.157 97.3851 142.797 97.5351 142.517C97.6951 142.227 97.8951 141.997 98.1351 141.827C98.3851 141.657 98.6651 141.532 98.9751 141.452C99.2951 141.362 99.6151 141.292 99.9351 141.242C100.255 141.192 100.57 141.152 100.88 141.122C101.19 141.092 101.465 141.047 101.705 140.987C101.945 140.927 102.135 140.842 102.275 140.732C102.415 140.612 102.48 140.442 102.47 140.222C102.47 139.992 102.43 139.812 102.35 139.682C102.28 139.542 102.18 139.437 102.05 139.367C101.93 139.287 101.785 139.237 101.615 139.217C101.455 139.187 101.28 139.172 101.09 139.172C100.67 139.172 100.34 139.262 100.1 139.442C99.8601 139.622 99.7201 139.922 99.6801 140.342H97.5501ZM102.47 141.917C102.38 141.997 102.265 142.062 102.125 142.112C101.995 142.152 101.85 142.187 101.69 142.217C101.54 142.247 101.38 142.272 101.21 142.292C101.04 142.312 100.87 142.337 100.7 142.367C100.54 142.397 100.38 142.437 100.22 142.487C100.07 142.537 99.9351 142.607 99.8151 142.697C99.7051 142.777 99.6151 142.882 99.5451 143.012C99.4751 143.142 99.4401 143.307 99.4401 143.507C99.4401 143.697 99.4751 143.857 99.5451 143.987C99.6151 144.117 99.7101 144.222 99.8301 144.302C99.9501 144.372 100.09 144.422 100.25 144.452C100.41 144.482 100.575 144.497 100.745 144.497C101.165 144.497 101.49 144.427 101.72 144.287C101.95 144.147 102.12 143.982 102.23 143.792C102.34 143.592 102.405 143.392 102.425 143.192C102.455 142.992 102.47 142.832 102.47 142.712V141.917ZM106.253 137.957H108.278V139.037H108.323C108.593 138.587 108.943 138.262 109.373 138.062C109.803 137.852 110.243 137.747 110.693 137.747C111.263 137.747 111.728 137.827 112.088 137.987C112.458 138.137 112.748 138.352 112.958 138.632C113.168 138.902 113.313 139.237 113.393 139.637C113.483 140.027 113.528 140.462 113.528 140.942V145.712H111.398V141.332C111.398 140.692 111.298 140.217 111.098 139.907C110.898 139.587 110.543 139.427 110.033 139.427C109.453 139.427 109.033 139.602 108.773 139.952C108.513 140.292 108.383 140.857 108.383 141.647V145.712H106.253V137.957ZM118.76 143.882C119.06 143.882 119.325 143.822 119.555 143.702C119.785 143.582 119.975 143.422 120.125 143.222C120.275 143.022 120.385 142.797 120.455 142.547C120.535 142.287 120.575 142.017 120.575 141.737C120.575 141.417 120.545 141.117 120.485 140.837C120.425 140.547 120.325 140.292 120.185 140.072C120.045 139.852 119.86 139.677 119.63 139.547C119.4 139.417 119.11 139.352 118.76 139.352C118.46 139.352 118.2 139.412 117.98 139.532C117.77 139.652 117.59 139.817 117.44 140.027C117.3 140.227 117.195 140.462 117.125 140.732C117.065 140.992 117.035 141.267 117.035 141.557C117.035 141.837 117.06 142.117 117.11 142.397C117.17 142.667 117.265 142.912 117.395 143.132C117.535 143.352 117.715 143.532 117.935 143.672C118.155 143.812 118.43 143.882 118.76 143.882ZM122.6 145.217C122.6 145.527 122.555 145.882 122.465 146.282C122.385 146.682 122.205 147.052 121.925 147.392C121.645 147.742 121.24 148.037 120.71 148.277C120.18 148.517 119.47 148.637 118.58 148.637C118.2 148.637 117.81 148.587 117.41 148.487C117.02 148.397 116.66 148.252 116.33 148.052C116.01 147.852 115.74 147.592 115.52 147.272C115.31 146.962 115.19 146.587 115.16 146.147H117.275C117.375 146.547 117.57 146.822 117.86 146.972C118.15 147.132 118.485 147.212 118.865 147.212C119.465 147.212 119.9 147.032 120.17 146.672C120.45 146.312 120.585 145.857 120.575 145.307V144.287H120.545C120.315 144.697 119.985 145.002 119.555 145.202C119.135 145.392 118.69 145.487 118.22 145.487C117.64 145.487 117.14 145.387 116.72 145.187C116.3 144.977 115.955 144.697 115.685 144.347C115.415 143.987 115.215 143.572 115.085 143.102C114.965 142.622 114.905 142.117 114.905 141.587C114.905 141.087 114.975 140.607 115.115 140.147C115.265 139.677 115.48 139.267 115.76 138.917C116.04 138.557 116.385 138.272 116.795 138.062C117.215 137.852 117.695 137.747 118.235 137.747C118.745 137.747 119.19 137.842 119.57 138.032C119.96 138.222 120.285 138.542 120.545 138.992H120.575V137.957H122.6V145.217ZM124.525 135.002H126.655V137.297C126.665 137.627 126.615 137.937 126.505 138.227C126.405 138.517 126.26 138.772 126.07 138.992C125.88 139.212 125.65 139.397 125.38 139.547C125.12 139.687 124.835 139.777 124.525 139.817V138.827C124.905 138.697 125.165 138.507 125.305 138.257C125.445 137.997 125.515 137.682 125.515 137.312H124.525V135.002ZM130.68 136.757H128.55V135.002H130.68V136.757ZM128.55 137.957H130.68V145.712H128.55V137.957ZM137.637 140.687C137.497 139.797 136.972 139.352 136.062 139.352C135.722 139.352 135.437 139.432 135.207 139.592C134.977 139.742 134.787 139.942 134.637 140.192C134.497 140.432 134.397 140.702 134.337 141.002C134.277 141.292 134.247 141.582 134.247 141.872C134.247 142.152 134.277 142.437 134.337 142.727C134.397 143.017 134.492 143.282 134.622 143.522C134.762 143.752 134.947 143.942 135.177 144.092C135.407 144.242 135.687 144.317 136.017 144.317C136.527 144.317 136.917 144.177 137.187 143.897C137.467 143.607 137.642 143.222 137.712 142.742H139.767C139.627 143.772 139.227 144.557 138.567 145.097C137.907 145.637 137.062 145.907 136.032 145.907C135.452 145.907 134.917 145.812 134.427 145.622C133.947 145.422 133.537 145.147 133.197 144.797C132.857 144.447 132.592 144.032 132.402 143.552C132.212 143.062 132.117 142.527 132.117 141.947C132.117 141.347 132.202 140.792 132.372 140.282C132.552 139.762 132.812 139.317 133.152 138.947C133.492 138.567 133.907 138.272 134.397 138.062C134.887 137.852 135.447 137.747 136.077 137.747C136.537 137.747 136.977 137.807 137.397 137.927C137.827 138.047 138.207 138.232 138.537 138.482C138.877 138.722 139.152 139.027 139.362 139.397C139.572 139.757 139.692 140.187 139.722 140.687H137.637ZM140.97 135.002H143.1V139.037H143.145C143.415 138.587 143.76 138.262 144.18 138.062C144.6 137.852 145.01 137.747 145.41 137.747C145.98 137.747 146.445 137.827 146.805 137.987C147.175 138.137 147.465 138.352 147.675 138.632C147.885 138.902 148.03 139.237 148.11 139.637C148.2 140.027 148.245 140.462 148.245 140.942V145.712H146.115V141.332C146.115 140.692 146.015 140.217 145.815 139.907C145.615 139.587 145.26 139.427 144.75 139.427C144.17 139.427 143.75 139.602 143.49 139.952C143.23 140.292 143.1 140.857 143.1 141.647V145.712H140.97V135.002ZM156.737 137.957H158.297V139.382H156.737V143.222C156.737 143.582 156.797 143.822 156.917 143.942C157.037 144.062 157.277 144.122 157.637 144.122C157.757 144.122 157.872 144.117 157.982 144.107C158.092 144.097 158.197 144.082 158.297 144.062V145.712C158.117 145.742 157.917 145.762 157.697 145.772C157.477 145.782 157.262 145.787 157.052 145.787C156.722 145.787 156.407 145.762 156.107 145.712C155.817 145.672 155.557 145.587 155.327 145.457C155.107 145.327 154.932 145.142 154.802 144.902C154.672 144.662 154.607 144.347 154.607 143.957V139.382H153.317V137.957H154.607V135.632H156.737V137.957ZM161.2 141.842C161.2 142.152 161.23 142.457 161.29 142.757C161.35 143.047 161.45 143.312 161.59 143.552C161.74 143.782 161.935 143.967 162.175 144.107C162.415 144.247 162.715 144.317 163.075 144.317C163.435 144.317 163.735 144.247 163.975 144.107C164.225 143.967 164.42 143.782 164.56 143.552C164.71 143.312 164.815 143.047 164.875 142.757C164.935 142.457 164.965 142.152 164.965 141.842C164.965 141.532 164.935 141.227 164.875 140.927C164.815 140.627 164.71 140.362 164.56 140.132C164.42 139.902 164.225 139.717 163.975 139.577C163.735 139.427 163.435 139.352 163.075 139.352C162.715 139.352 162.415 139.427 162.175 139.577C161.935 139.717 161.74 139.902 161.59 140.132C161.45 140.362 161.35 140.627 161.29 140.927C161.23 141.227 161.2 141.532 161.2 141.842ZM159.07 141.842C159.07 141.222 159.165 140.662 159.355 140.162C159.545 139.652 159.815 139.222 160.165 138.872C160.515 138.512 160.935 138.237 161.425 138.047C161.915 137.847 162.465 137.747 163.075 137.747C163.685 137.747 164.235 137.847 164.725 138.047C165.225 138.237 165.65 138.512 166 138.872C166.35 139.222 166.62 139.652 166.81 140.162C167 140.662 167.095 141.222 167.095 141.842C167.095 142.462 167 143.022 166.81 143.522C166.62 144.022 166.35 144.452 166 144.812C165.65 145.162 165.225 145.432 164.725 145.622C164.235 145.812 163.685 145.907 163.075 145.907C162.465 145.907 161.915 145.812 161.425 145.622C160.935 145.432 160.515 145.162 160.165 144.812C159.815 144.452 159.545 144.022 159.355 143.522C159.165 143.022 159.07 142.462 159.07 141.842ZM168.69 135.002H170.82V137.297C170.83 137.627 170.78 137.937 170.67 138.227C170.57 138.517 170.425 138.772 170.235 138.992C170.045 139.212 169.815 139.397 169.545 139.547C169.285 139.687 169 139.777 168.69 139.817V138.827C169.07 138.697 169.33 138.507 169.47 138.257C169.61 137.997 169.68 137.682 169.68 137.312H168.69V135.002ZM172.715 135.002H174.845V145.712H172.715V135.002ZM178.412 141.842C178.412 142.152 178.442 142.457 178.502 142.757C178.562 143.047 178.662 143.312 178.802 143.552C178.952 143.782 179.147 143.967 179.387 144.107C179.627 144.247 179.927 144.317 180.287 144.317C180.647 144.317 180.947 144.247 181.187 144.107C181.437 143.967 181.632 143.782 181.772 143.552C181.922 143.312 182.027 143.047 182.087 142.757C182.147 142.457 182.177 142.152 182.177 141.842C182.177 141.532 182.147 141.227 182.087 140.927C182.027 140.627 181.922 140.362 181.772 140.132C181.632 139.902 181.437 139.717 181.187 139.577C180.947 139.427 180.647 139.352 180.287 139.352C179.927 139.352 179.627 139.427 179.387 139.577C179.147 139.717 178.952 139.902 178.802 140.132C178.662 140.362 178.562 140.627 178.502 140.927C178.442 141.227 178.412 141.532 178.412 141.842ZM176.282 141.842C176.282 141.222 176.377 140.662 176.567 140.162C176.757 139.652 177.027 139.222 177.377 138.872C177.727 138.512 178.147 138.237 178.637 138.047C179.127 137.847 179.677 137.747 180.287 137.747C180.897 137.747 181.447 137.847 181.937 138.047C182.437 138.237 182.862 138.512 183.212 138.872C183.562 139.222 183.832 139.652 184.022 140.162C184.212 140.662 184.307 141.222 184.307 141.842C184.307 142.462 184.212 143.022 184.022 143.522C183.832 144.022 183.562 144.452 183.212 144.812C182.862 145.162 182.437 145.432 181.937 145.622C181.447 145.812 180.897 145.907 180.287 145.907C179.677 145.907 179.127 145.812 178.637 145.622C178.147 145.432 177.727 145.162 177.377 144.812C177.027 144.452 176.757 144.022 176.567 143.522C176.377 143.022 176.282 142.462 176.282 141.842ZM189.982 145.712H187.612L184.957 137.957H187.192L188.827 143.252H188.857L190.492 137.957H192.607L189.982 145.712ZM195.135 143.192C195.135 143.422 195.18 143.622 195.27 143.792C195.37 143.952 195.495 144.087 195.645 144.197C195.795 144.297 195.965 144.372 196.155 144.422C196.355 144.472 196.56 144.497 196.77 144.497C196.92 144.497 197.075 144.482 197.235 144.452C197.405 144.412 197.555 144.357 197.685 144.287C197.825 144.207 197.94 144.107 198.03 143.987C198.12 143.857 198.165 143.697 198.165 143.507C198.165 143.187 197.95 142.947 197.52 142.787C197.1 142.627 196.51 142.467 195.75 142.307C195.44 142.237 195.135 142.157 194.835 142.067C194.545 141.967 194.285 141.842 194.055 141.692C193.825 141.532 193.64 141.337 193.5 141.107C193.36 140.867 193.29 140.577 193.29 140.237C193.29 139.737 193.385 139.327 193.575 139.007C193.775 138.687 194.035 138.437 194.355 138.257C194.675 138.067 195.035 137.937 195.435 137.867C195.835 137.787 196.245 137.747 196.665 137.747C197.085 137.747 197.49 137.787 197.88 137.867C198.28 137.947 198.635 138.082 198.945 138.272C199.255 138.462 199.51 138.717 199.71 139.037C199.92 139.347 200.045 139.742 200.085 140.222H198.06C198.03 139.812 197.875 139.537 197.595 139.397C197.315 139.247 196.985 139.172 196.605 139.172C196.485 139.172 196.355 139.182 196.215 139.202C196.075 139.212 195.945 139.242 195.825 139.292C195.715 139.342 195.62 139.417 195.54 139.517C195.46 139.607 195.42 139.732 195.42 139.892C195.42 140.082 195.49 140.237 195.63 140.357C195.77 140.477 195.95 140.577 196.17 140.657C196.4 140.727 196.66 140.792 196.95 140.852C197.24 140.912 197.535 140.977 197.835 141.047C198.145 141.117 198.445 141.202 198.735 141.302C199.035 141.402 199.3 141.537 199.53 141.707C199.76 141.867 199.945 142.072 200.085 142.322C200.225 142.562 200.295 142.862 200.295 143.222C200.295 143.732 200.19 144.162 199.98 144.512C199.78 144.852 199.515 145.127 199.185 145.337C198.855 145.547 198.475 145.692 198.045 145.772C197.625 145.862 197.195 145.907 196.755 145.907C196.305 145.907 195.865 145.862 195.435 145.772C195.005 145.682 194.62 145.532 194.28 145.322C193.95 145.112 193.675 144.837 193.455 144.497C193.245 144.147 193.13 143.712 193.11 143.192H195.135ZM203.731 136.757H201.601V135.002H203.731V136.757ZM201.601 137.957H203.731V145.712H201.601V137.957ZM204.929 144.107L208.964 139.562H205.229V137.957H211.769V139.562L207.734 144.107H212.054V145.712H204.929V144.107ZM213.622 144.047H215.287V145.562C215.287 146.132 215.157 146.622 214.897 147.032C214.637 147.442 214.217 147.732 213.637 147.902V147.152C213.807 147.092 213.947 147.002 214.057 146.882C214.177 146.772 214.272 146.647 214.342 146.507C214.412 146.377 214.457 146.242 214.477 146.102C214.507 145.962 214.517 145.832 214.507 145.712H213.622V144.047ZM222.212 139.082H220.907V137.957H222.212V136.802C222.212 136.172 222.392 135.697 222.752 135.377C223.122 135.047 223.657 134.882 224.357 134.882C224.477 134.882 224.612 134.892 224.762 134.912C224.922 134.932 225.062 134.962 225.182 135.002V136.112C225.072 136.072 224.952 136.047 224.822 136.037C224.692 136.017 224.572 136.007 224.462 136.007C224.152 136.007 223.912 136.067 223.742 136.187C223.572 136.307 223.487 136.537 223.487 136.877V137.957H224.987V139.082H223.487V145.712H222.212V139.082ZM227.055 141.842C227.055 142.312 227.115 142.732 227.235 143.102C227.365 143.462 227.54 143.767 227.76 144.017C227.98 144.257 228.235 144.442 228.525 144.572C228.825 144.702 229.14 144.767 229.47 144.767C229.8 144.767 230.11 144.702 230.4 144.572C230.7 144.442 230.96 144.257 231.18 144.017C231.4 143.767 231.57 143.462 231.69 143.102C231.82 142.732 231.885 142.312 231.885 141.842C231.885 141.372 231.82 140.957 231.69 140.597C231.57 140.227 231.4 139.917 231.18 139.667C230.96 139.417 230.7 139.227 230.4 139.097C230.11 138.967 229.8 138.902 229.47 138.902C229.14 138.902 228.825 138.967 228.525 139.097C228.235 139.227 227.98 139.417 227.76 139.667C227.54 139.917 227.365 140.227 227.235 140.597C227.115 140.957 227.055 141.372 227.055 141.842ZM225.705 141.842C225.705 141.272 225.785 140.742 225.945 140.252C226.105 139.752 226.345 139.322 226.665 138.962C226.985 138.592 227.38 138.302 227.85 138.092C228.32 137.882 228.86 137.777 229.47 137.777C230.09 137.777 230.63 137.882 231.09 138.092C231.56 138.302 231.955 138.592 232.275 138.962C232.595 139.322 232.835 139.752 232.995 140.252C233.155 140.742 233.235 141.272 233.235 141.842C233.235 142.412 233.155 142.942 232.995 143.432C232.835 143.922 232.595 144.352 232.275 144.722C231.955 145.082 231.56 145.367 231.09 145.577C230.63 145.777 230.09 145.877 229.47 145.877C228.86 145.877 228.32 145.777 227.85 145.577C227.38 145.367 226.985 145.082 226.665 144.722C226.345 144.352 226.105 143.922 225.945 143.432C225.785 142.942 225.705 142.412 225.705 141.842ZM236.088 136.562H234.813V135.002H236.088V136.562ZM234.813 137.957H236.088V145.712H234.813V137.957ZM237.434 144.737L242.114 139.082H237.734V137.957H243.764V138.827L239.024 144.587H243.974V145.712H237.434V144.737ZM252.94 145.712H251.575L248.695 137.957H250.12L252.295 144.422H252.325L254.44 137.957H255.775L252.94 145.712ZM263.815 145.682C263.595 145.812 263.29 145.877 262.9 145.877C262.57 145.877 262.305 145.787 262.105 145.607C261.915 145.417 261.82 145.112 261.82 144.692C261.47 145.112 261.06 145.417 260.59 145.607C260.13 145.787 259.63 145.877 259.09 145.877C258.74 145.877 258.405 145.837 258.085 145.757C257.775 145.677 257.505 145.552 257.275 145.382C257.045 145.212 256.86 144.992 256.72 144.722C256.59 144.442 256.525 144.107 256.525 143.717C256.525 143.277 256.6 142.917 256.75 142.637C256.9 142.357 257.095 142.132 257.335 141.962C257.585 141.782 257.865 141.647 258.175 141.557C258.495 141.467 258.82 141.392 259.15 141.332C259.5 141.262 259.83 141.212 260.14 141.182C260.46 141.142 260.74 141.092 260.98 141.032C261.22 140.962 261.41 140.867 261.55 140.747C261.69 140.617 261.76 140.432 261.76 140.192C261.76 139.912 261.705 139.687 261.595 139.517C261.495 139.347 261.36 139.217 261.19 139.127C261.03 139.037 260.845 138.977 260.635 138.947C260.435 138.917 260.235 138.902 260.035 138.902C259.495 138.902 259.045 139.007 258.685 139.217C258.325 139.417 258.13 139.802 258.1 140.372H256.825C256.845 139.892 256.945 139.487 257.125 139.157C257.305 138.827 257.545 138.562 257.845 138.362C258.145 138.152 258.485 138.002 258.865 137.912C259.255 137.822 259.67 137.777 260.11 137.777C260.46 137.777 260.805 137.802 261.145 137.852C261.495 137.902 261.81 138.007 262.09 138.167C262.37 138.317 262.595 138.532 262.765 138.812C262.935 139.092 263.02 139.457 263.02 139.907V143.897C263.02 144.197 263.035 144.417 263.065 144.557C263.105 144.697 263.225 144.767 263.425 144.767C263.535 144.767 263.665 144.742 263.815 144.692V145.682ZM261.745 141.707C261.585 141.827 261.375 141.917 261.115 141.977C260.855 142.027 260.58 142.072 260.29 142.112C260.01 142.142 259.725 142.182 259.435 142.232C259.145 142.272 258.885 142.342 258.655 142.442C258.425 142.542 258.235 142.687 258.085 142.877C257.945 143.057 257.875 143.307 257.875 143.627C257.875 143.837 257.915 144.017 257.995 144.167C258.085 144.307 258.195 144.422 258.325 144.512C258.465 144.602 258.625 144.667 258.805 144.707C258.985 144.747 259.175 144.767 259.375 144.767C259.795 144.767 260.155 144.712 260.455 144.602C260.755 144.482 261 144.337 261.19 144.167C261.38 143.987 261.52 143.797 261.61 143.597C261.7 143.387 261.745 143.192 261.745 143.012V141.707ZM269.132 137.957H270.332V139.592H270.362C270.672 138.962 271.052 138.497 271.502 138.197C271.952 137.897 272.522 137.757 273.212 137.777V139.127C272.702 139.127 272.267 139.197 271.907 139.337C271.547 139.477 271.257 139.682 271.037 139.952C270.817 140.222 270.657 140.552 270.557 140.942C270.457 141.322 270.407 141.762 270.407 142.262V145.712H269.132V137.957ZM281.042 145.682C280.822 145.812 280.517 145.877 280.127 145.877C279.797 145.877 279.532 145.787 279.332 145.607C279.142 145.417 279.047 145.112 279.047 144.692C278.697 145.112 278.287 145.417 277.817 145.607C277.357 145.787 276.857 145.877 276.317 145.877C275.967 145.877 275.632 145.837 275.312 145.757C275.002 145.677 274.732 145.552 274.502 145.382C274.272 145.212 274.087 144.992 273.947 144.722C273.817 144.442 273.752 144.107 273.752 143.717C273.752 143.277 273.827 142.917 273.977 142.637C274.127 142.357 274.322 142.132 274.562 141.962C274.812 141.782 275.092 141.647 275.402 141.557C275.722 141.467 276.047 141.392 276.377 141.332C276.727 141.262 277.057 141.212 277.367 141.182C277.687 141.142 277.967 141.092 278.207 141.032C278.447 140.962 278.637 140.867 278.777 140.747C278.917 140.617 278.987 140.432 278.987 140.192C278.987 139.912 278.932 139.687 278.822 139.517C278.722 139.347 278.587 139.217 278.417 139.127C278.257 139.037 278.072 138.977 277.862 138.947C277.662 138.917 277.462 138.902 277.262 138.902C276.722 138.902 276.272 139.007 275.912 139.217C275.552 139.417 275.357 139.802 275.327 140.372H274.052C274.072 139.892 274.172 139.487 274.352 139.157C274.532 138.827 274.772 138.562 275.072 138.362C275.372 138.152 275.712 138.002 276.092 137.912C276.482 137.822 276.897 137.777 277.337 137.777C277.687 137.777 278.032 137.802 278.372 137.852C278.722 137.902 279.037 138.007 279.317 138.167C279.597 138.317 279.822 138.532 279.992 138.812C280.162 139.092 280.247 139.457 280.247 139.907V143.897C280.247 144.197 280.262 144.417 280.292 144.557C280.332 144.697 280.452 144.767 280.652 144.767C280.762 144.767 280.892 144.742 281.042 144.692V145.682ZM278.972 141.707C278.812 141.827 278.602 141.917 278.342 141.977C278.082 142.027 277.807 142.072 277.517 142.112C277.237 142.142 276.952 142.182 276.662 142.232C276.372 142.272 276.112 142.342 275.882 142.442C275.652 142.542 275.462 142.687 275.312 142.877C275.172 143.057 275.102 143.307 275.102 143.627C275.102 143.837 275.142 144.017 275.222 144.167C275.312 144.307 275.422 144.422 275.552 144.512C275.692 144.602 275.852 144.667 276.032 144.707C276.212 144.747 276.402 144.767 276.602 144.767C277.022 144.767 277.382 144.712 277.682 144.602C277.982 144.482 278.227 144.337 278.417 144.167C278.607 143.987 278.747 143.797 278.837 143.597C278.927 143.387 278.972 143.192 278.972 143.012V141.707ZM283.009 143.267C283.019 143.547 283.084 143.787 283.204 143.987C283.324 144.177 283.479 144.332 283.669 144.452C283.869 144.562 284.089 144.642 284.329 144.692C284.579 144.742 284.834 144.767 285.094 144.767C285.294 144.767 285.504 144.752 285.724 144.722C285.944 144.692 286.144 144.637 286.324 144.557C286.514 144.477 286.669 144.362 286.789 144.212C286.909 144.052 286.969 143.852 286.969 143.612C286.969 143.282 286.844 143.032 286.594 142.862C286.344 142.692 286.029 142.557 285.649 142.457C285.279 142.347 284.874 142.252 284.434 142.172C283.994 142.082 283.584 141.962 283.204 141.812C282.834 141.652 282.524 141.432 282.274 141.152C282.024 140.872 281.899 140.482 281.899 139.982C281.899 139.592 281.984 139.257 282.154 138.977C282.334 138.697 282.559 138.472 282.829 138.302C283.109 138.122 283.419 137.992 283.759 137.912C284.109 137.822 284.454 137.777 284.794 137.777C285.234 137.777 285.639 137.817 286.009 137.897C286.379 137.967 286.704 138.097 286.984 138.287C287.274 138.467 287.504 138.717 287.674 139.037C287.844 139.347 287.944 139.737 287.974 140.207H286.699C286.679 139.957 286.614 139.752 286.504 139.592C286.394 139.422 286.254 139.287 286.084 139.187C285.914 139.087 285.724 139.017 285.514 138.977C285.314 138.927 285.109 138.902 284.899 138.902C284.709 138.902 284.514 138.917 284.314 138.947C284.124 138.977 283.949 139.032 283.789 139.112C283.629 139.182 283.499 139.282 283.399 139.412C283.299 139.532 283.249 139.692 283.249 139.892C283.249 140.112 283.324 140.297 283.474 140.447C283.634 140.587 283.834 140.707 284.074 140.807C284.314 140.897 284.584 140.977 284.884 141.047C285.184 141.107 285.484 141.172 285.784 141.242C286.104 141.312 286.414 141.397 286.714 141.497C287.024 141.597 287.294 141.732 287.524 141.902C287.764 142.062 287.954 142.267 288.094 142.517C288.244 142.767 288.319 143.077 288.319 143.447C288.319 143.917 288.219 144.307 288.019 144.617C287.829 144.927 287.574 145.177 287.254 145.367C286.944 145.557 286.589 145.687 286.189 145.757C285.799 145.837 285.409 145.877 285.019 145.877C284.589 145.877 284.179 145.832 283.789 145.742C283.399 145.652 283.054 145.507 282.754 145.307C282.454 145.097 282.214 144.827 282.034 144.497C281.854 144.157 281.754 143.747 281.734 143.267H283.009ZM289.729 137.957H290.929V139.097H290.959C291.539 138.217 292.374 137.777 293.464 137.777C293.944 137.777 294.379 137.877 294.769 138.077C295.159 138.277 295.434 138.617 295.594 139.097C295.854 138.677 296.194 138.352 296.614 138.122C297.044 137.892 297.514 137.777 298.024 137.777C298.414 137.777 298.764 137.822 299.074 137.912C299.394 137.992 299.664 138.122 299.884 138.302C300.114 138.482 300.289 138.717 300.409 139.007C300.539 139.287 300.604 139.627 300.604 140.027V145.712H299.329V140.627C299.329 140.387 299.309 140.162 299.269 139.952C299.229 139.742 299.154 139.562 299.044 139.412C298.934 139.252 298.779 139.127 298.579 139.037C298.389 138.947 298.139 138.902 297.829 138.902C297.199 138.902 296.704 139.082 296.344 139.442C295.984 139.802 295.804 140.282 295.804 140.882V145.712H294.529V140.627C294.529 140.377 294.504 140.147 294.454 139.937C294.414 139.727 294.339 139.547 294.229 139.397C294.119 139.237 293.969 139.117 293.779 139.037C293.599 138.947 293.364 138.902 293.074 138.902C292.704 138.902 292.384 138.977 292.114 139.127C291.854 139.277 291.639 139.457 291.469 139.667C291.309 139.877 291.189 140.097 291.109 140.327C291.039 140.547 291.004 140.732 291.004 140.882V145.712H289.729V137.957ZM303.867 136.562H302.592V135.002H303.867V136.562ZM302.592 137.957H303.867V145.712H302.592V137.957ZM308.887 146.747C308.737 147.127 308.587 147.447 308.437 147.707C308.297 147.967 308.137 148.177 307.957 148.337C307.787 148.507 307.592 148.627 307.372 148.697C307.162 148.777 306.917 148.817 306.637 148.817C306.487 148.817 306.337 148.807 306.187 148.787C306.037 148.767 305.892 148.732 305.752 148.682V147.512C305.862 147.562 305.987 147.602 306.127 147.632C306.277 147.672 306.402 147.692 306.502 147.692C306.762 147.692 306.977 147.627 307.147 147.497C307.327 147.377 307.462 147.202 307.552 146.972L308.077 145.667L305.002 137.957H306.442L308.707 144.302H308.737L310.912 137.957H312.262L308.887 146.747ZM318.867 136.562H317.592V135.002H318.867V136.562ZM317.592 137.957H318.867V145.712H317.592V137.957ZM321.622 143.267C321.632 143.547 321.697 143.787 321.817 143.987C321.937 144.177 322.092 144.332 322.282 144.452C322.482 144.562 322.702 144.642 322.942 144.692C323.192 144.742 323.447 144.767 323.707 144.767C323.907 144.767 324.117 144.752 324.337 144.722C324.557 144.692 324.757 144.637 324.937 144.557C325.127 144.477 325.282 144.362 325.402 144.212C325.522 144.052 325.582 143.852 325.582 143.612C325.582 143.282 325.457 143.032 325.207 142.862C324.957 142.692 324.642 142.557 324.262 142.457C323.892 142.347 323.487 142.252 323.047 142.172C322.607 142.082 322.197 141.962 321.817 141.812C321.447 141.652 321.137 141.432 320.887 141.152C320.637 140.872 320.512 140.482 320.512 139.982C320.512 139.592 320.597 139.257 320.767 138.977C320.947 138.697 321.172 138.472 321.442 138.302C321.722 138.122 322.032 137.992 322.372 137.912C322.722 137.822 323.067 137.777 323.407 137.777C323.847 137.777 324.252 137.817 324.622 137.897C324.992 137.967 325.317 138.097 325.597 138.287C325.887 138.467 326.117 138.717 326.287 139.037C326.457 139.347 326.557 139.737 326.587 140.207H325.312C325.292 139.957 325.227 139.752 325.117 139.592C325.007 139.422 324.867 139.287 324.697 139.187C324.527 139.087 324.337 139.017 324.127 138.977C323.927 138.927 323.722 138.902 323.512 138.902C323.322 138.902 323.127 138.917 322.927 138.947C322.737 138.977 322.562 139.032 322.402 139.112C322.242 139.182 322.112 139.282 322.012 139.412C321.912 139.532 321.862 139.692 321.862 139.892C321.862 140.112 321.937 140.297 322.087 140.447C322.247 140.587 322.447 140.707 322.687 140.807C322.927 140.897 323.197 140.977 323.497 141.047C323.797 141.107 324.097 141.172 324.397 141.242C324.717 141.312 325.027 141.397 325.327 141.497C325.637 141.597 325.907 141.732 326.137 141.902C326.377 142.062 326.567 142.267 326.707 142.517C326.857 142.767 326.932 143.077 326.932 143.447C326.932 143.917 326.832 144.307 326.632 144.617C326.442 144.927 326.187 145.177 325.867 145.367C325.557 145.557 325.202 145.687 324.802 145.757C324.412 145.837 324.022 145.877 323.632 145.877C323.202 145.877 322.792 145.832 322.402 145.742C322.012 145.652 321.667 145.507 321.367 145.307C321.067 145.097 320.827 144.827 320.647 144.497C320.467 144.157 320.367 143.747 320.347 143.267H321.622ZM328.342 135.002H329.617V139.097H329.647C329.747 138.857 329.887 138.657 330.067 138.497C330.247 138.327 330.447 138.192 330.667 138.092C330.897 137.982 331.132 137.902 331.372 137.852C331.622 137.802 331.862 137.777 332.092 137.777C332.602 137.777 333.027 137.847 333.367 137.987C333.707 138.127 333.982 138.322 334.192 138.572C334.402 138.822 334.547 139.122 334.627 139.472C334.717 139.812 334.762 140.192 334.762 140.612V145.712H333.487V140.462C333.487 139.982 333.347 139.602 333.067 139.322C332.787 139.042 332.402 138.902 331.912 138.902C331.522 138.902 331.182 138.962 330.892 139.082C330.612 139.202 330.377 139.372 330.187 139.592C329.997 139.812 329.852 140.072 329.752 140.372C329.662 140.662 329.617 140.982 329.617 141.332V145.712H328.342V135.002ZM40.2534 157.562H38.9784V156.002H40.2534V157.562ZM40.2534 167.687C40.2534 168.377 40.0834 168.877 39.7434 169.187C39.4134 169.507 38.9634 169.667 38.3934 169.667C38.1634 169.667 37.9484 169.647 37.7484 169.607V168.512C37.7984 168.522 37.8434 168.527 37.8834 168.527C37.9134 168.537 37.9484 168.542 37.9884 168.542H38.2584C38.5384 168.542 38.7284 168.462 38.8284 168.302C38.9284 168.152 38.9784 167.877 38.9784 167.477V158.957H40.2534V167.687ZM43.1586 162.842C43.1586 163.312 43.2186 163.732 43.3386 164.102C43.4686 164.462 43.6436 164.767 43.8636 165.017C44.0836 165.257 44.3386 165.442 44.6286 165.572C44.9286 165.702 45.2436 165.767 45.5736 165.767C45.9036 165.767 46.2136 165.702 46.5036 165.572C46.8036 165.442 47.0636 165.257 47.2836 165.017C47.5036 164.767 47.6736 164.462 47.7936 164.102C47.9236 163.732 47.9886 163.312 47.9886 162.842C47.9886 162.372 47.9236 161.957 47.7936 161.597C47.6736 161.227 47.5036 160.917 47.2836 160.667C47.0636 160.417 46.8036 160.227 46.5036 160.097C46.2136 159.967 45.9036 159.902 45.5736 159.902C45.2436 159.902 44.9286 159.967 44.6286 160.097C44.3386 160.227 44.0836 160.417 43.8636 160.667C43.6436 160.917 43.4686 161.227 43.3386 161.597C43.2186 161.957 43.1586 162.372 43.1586 162.842ZM41.8086 162.842C41.8086 162.272 41.8886 161.742 42.0486 161.252C42.2086 160.752 42.4486 160.322 42.7686 159.962C43.0886 159.592 43.4836 159.302 43.9536 159.092C44.4236 158.882 44.9636 158.777 45.5736 158.777C46.1936 158.777 46.7336 158.882 47.1936 159.092C47.6636 159.302 48.0586 159.592 48.3786 159.962C48.6986 160.322 48.9386 160.752 49.0986 161.252C49.2586 161.742 49.3386 162.272 49.3386 162.842C49.3386 163.412 49.2586 163.942 49.0986 164.432C48.9386 164.922 48.6986 165.352 48.3786 165.722C48.0586 166.082 47.6636 166.367 47.1936 166.577C46.7336 166.777 46.1936 166.877 45.5736 166.877C44.9636 166.877 44.4236 166.777 43.9536 166.577C43.4836 166.367 43.0886 166.082 42.7686 165.722C42.4486 165.352 42.2086 164.922 42.0486 164.432C41.8886 163.942 41.8086 163.412 41.8086 162.842ZM53.8868 167.747C53.7368 168.127 53.5868 168.447 53.4368 168.707C53.2968 168.967 53.1368 169.177 52.9568 169.337C52.7868 169.507 52.5918 169.627 52.3718 169.697C52.1618 169.777 51.9168 169.817 51.6368 169.817C51.4868 169.817 51.3368 169.807 51.1868 169.787C51.0368 169.767 50.8918 169.732 50.7518 169.682V168.512C50.8618 168.562 50.9868 168.602 51.1268 168.632C51.2768 168.672 51.4018 168.692 51.5018 168.692C51.7618 168.692 51.9768 168.627 52.1468 168.497C52.3268 168.377 52.4618 168.202 52.5518 167.972L53.0768 166.667L50.0018 158.957H51.4418L53.7068 165.302H53.7368L55.9118 158.957H57.2618L53.8868 167.747ZM59.6918 157.562H58.4168V156.002H59.6918V157.562ZM58.4168 158.957H59.6918V166.712H58.4168V158.957ZM62.447 164.267C62.457 164.547 62.522 164.787 62.642 164.987C62.762 165.177 62.917 165.332 63.107 165.452C63.307 165.562 63.527 165.642 63.767 165.692C64.017 165.742 64.272 165.767 64.532 165.767C64.732 165.767 64.942 165.752 65.162 165.722C65.382 165.692 65.582 165.637 65.762 165.557C65.952 165.477 66.107 165.362 66.227 165.212C66.347 165.052 66.407 164.852 66.407 164.612C66.407 164.282 66.282 164.032 66.032 163.862C65.782 163.692 65.467 163.557 65.087 163.457C64.717 163.347 64.312 163.252 63.872 163.172C63.432 163.082 63.022 162.962 62.642 162.812C62.272 162.652 61.962 162.432 61.712 162.152C61.462 161.872 61.337 161.482 61.337 160.982C61.337 160.592 61.422 160.257 61.592 159.977C61.772 159.697 61.997 159.472 62.267 159.302C62.547 159.122 62.857 158.992 63.197 158.912C63.547 158.822 63.892 158.777 64.232 158.777C64.672 158.777 65.077 158.817 65.447 158.897C65.817 158.967 66.142 159.097 66.422 159.287C66.712 159.467 66.942 159.717 67.112 160.037C67.282 160.347 67.382 160.737 67.412 161.207H66.137C66.117 160.957 66.052 160.752 65.942 160.592C65.832 160.422 65.692 160.287 65.522 160.187C65.352 160.087 65.162 160.017 64.952 159.977C64.752 159.927 64.547 159.902 64.337 159.902C64.147 159.902 63.952 159.917 63.752 159.947C63.562 159.977 63.387 160.032 63.227 160.112C63.067 160.182 62.937 160.282 62.837 160.412C62.737 160.532 62.687 160.692 62.687 160.892C62.687 161.112 62.762 161.297 62.912 161.447C63.072 161.587 63.272 161.707 63.512 161.807C63.752 161.897 64.022 161.977 64.322 162.047C64.622 162.107 64.922 162.172 65.222 162.242C65.542 162.312 65.852 162.397 66.152 162.497C66.462 162.597 66.732 162.732 66.962 162.902C67.202 163.062 67.392 163.267 67.532 163.517C67.682 163.767 67.757 164.077 67.757 164.447C67.757 164.917 67.657 165.307 67.457 165.617C67.267 165.927 67.012 166.177 66.692 166.367C66.382 166.557 66.027 166.687 65.627 166.757C65.237 166.837 64.847 166.877 64.457 166.877C64.027 166.877 63.617 166.832 63.227 166.742C62.837 166.652 62.492 166.507 62.192 166.307C61.892 166.097 61.652 165.827 61.472 165.497C61.292 165.157 61.192 164.747 61.172 164.267H62.447ZM70.517 157.562H69.242V156.002H70.517V157.562ZM69.242 158.957H70.517V166.712H69.242V158.957ZM71.8622 165.737L76.5422 160.082H72.1622V158.957H78.1922V159.827L73.4522 165.587H78.4022V166.712H71.8622V165.737ZM89.1241 158.792C89.0641 158.312 88.8791 157.927 88.5691 157.637C88.2591 157.347 87.8491 157.202 87.3391 157.202C86.7991 157.202 86.3641 157.337 86.0341 157.607C85.7041 157.867 85.4441 158.202 85.2541 158.612C85.0741 159.012 84.9491 159.447 84.8791 159.917C84.8091 160.387 84.7691 160.827 84.7591 161.237L84.7891 161.267C85.0891 160.777 85.4591 160.422 85.8991 160.202C86.3491 159.982 86.8641 159.872 87.4441 159.872C87.9541 159.872 88.4091 159.962 88.8091 160.142C89.2191 160.312 89.5591 160.552 89.8291 160.862C90.1091 161.172 90.3241 161.537 90.4741 161.957C90.6241 162.377 90.6991 162.832 90.6991 163.322C90.6991 163.712 90.6391 164.117 90.5191 164.537C90.3991 164.957 90.1991 165.342 89.9191 165.692C89.6491 166.032 89.2841 166.317 88.8241 166.547C88.3741 166.767 87.8141 166.877 87.1441 166.877C86.3541 166.877 85.7191 166.717 85.2391 166.397C84.7591 166.077 84.3891 165.667 84.1291 165.167C83.8691 164.667 83.6941 164.117 83.6041 163.517C83.5241 162.917 83.4841 162.337 83.4841 161.777C83.4841 161.047 83.5441 160.342 83.6641 159.662C83.7941 158.972 84.0091 158.362 84.3091 157.832C84.6091 157.302 85.0091 156.877 85.5091 156.557C86.0091 156.237 86.6391 156.077 87.3991 156.077C88.2791 156.077 88.9791 156.312 89.4991 156.782C90.0191 157.242 90.3191 157.912 90.3991 158.792H89.1241ZM87.2041 160.997C86.8441 160.997 86.5291 161.062 86.2591 161.192C85.9891 161.312 85.7591 161.482 85.5691 161.702C85.3791 161.912 85.2341 162.167 85.1341 162.467C85.0441 162.757 84.9991 163.067 84.9991 163.397C84.9991 163.727 85.0491 164.037 85.1491 164.327C85.2491 164.617 85.3891 164.867 85.5691 165.077C85.7591 165.287 85.9891 165.457 86.2591 165.587C86.5391 165.707 86.8541 165.767 87.2041 165.767C87.5541 165.767 87.8591 165.707 88.1191 165.587C88.3891 165.457 88.6141 165.282 88.7941 165.062C88.9741 164.842 89.1091 164.592 89.1991 164.312C89.2991 164.022 89.3491 163.722 89.3491 163.412C89.3491 163.082 89.3041 162.772 89.2141 162.482C89.1341 162.182 89.0041 161.927 88.8241 161.717C88.6441 161.497 88.4191 161.322 88.1491 161.192C87.8791 161.062 87.5641 160.997 87.2041 160.997ZM98.299 157.382H94.009L93.439 160.442L93.469 160.472C93.699 160.212 93.994 160.022 94.354 159.902C94.724 159.772 95.089 159.707 95.449 159.707C95.919 159.707 96.364 159.782 96.784 159.932C97.204 160.082 97.569 160.312 97.879 160.622C98.189 160.922 98.434 161.302 98.614 161.762C98.794 162.212 98.884 162.742 98.884 163.352C98.884 163.802 98.804 164.242 98.644 164.672C98.494 165.092 98.264 165.467 97.954 165.797C97.644 166.127 97.254 166.392 96.784 166.592C96.324 166.782 95.784 166.877 95.164 166.877C94.704 166.877 94.269 166.812 93.859 166.682C93.459 166.542 93.104 166.347 92.794 166.097C92.484 165.837 92.239 165.517 92.059 165.137C91.879 164.757 91.784 164.327 91.774 163.847H93.049C93.069 164.117 93.134 164.372 93.244 164.612C93.364 164.842 93.519 165.047 93.709 165.227C93.909 165.397 94.139 165.532 94.399 165.632C94.669 165.722 94.964 165.767 95.284 165.767C95.584 165.767 95.869 165.717 96.139 165.617C96.419 165.507 96.659 165.347 96.859 165.137C97.069 164.927 97.234 164.667 97.354 164.357C97.474 164.037 97.534 163.667 97.534 163.247C97.534 162.897 97.474 162.577 97.354 162.287C97.244 161.987 97.084 161.732 96.874 161.522C96.664 161.302 96.409 161.132 96.109 161.012C95.819 160.892 95.494 160.832 95.134 160.832C94.714 160.832 94.339 160.927 94.009 161.117C93.689 161.297 93.404 161.537 93.154 161.837L92.059 161.777L93.049 156.257H98.299V157.382ZM105.649 162.842C105.649 163.312 105.709 163.732 105.829 164.102C105.959 164.462 106.134 164.767 106.354 165.017C106.574 165.257 106.829 165.442 107.119 165.572C107.419 165.702 107.734 165.767 108.064 165.767C108.394 165.767 108.704 165.702 108.994 165.572C109.294 165.442 109.554 165.257 109.774 165.017C109.994 164.767 110.164 164.462 110.284 164.102C110.414 163.732 110.479 163.312 110.479 162.842C110.479 162.372 110.414 161.957 110.284 161.597C110.164 161.227 109.994 160.917 109.774 160.667C109.554 160.417 109.294 160.227 108.994 160.097C108.704 159.967 108.394 159.902 108.064 159.902C107.734 159.902 107.419 159.967 107.119 160.097C106.829 160.227 106.574 160.417 106.354 160.667C106.134 160.917 105.959 161.227 105.829 161.597C105.709 161.957 105.649 162.372 105.649 162.842ZM104.299 162.842C104.299 162.272 104.379 161.742 104.539 161.252C104.699 160.752 104.939 160.322 105.259 159.962C105.579 159.592 105.974 159.302 106.444 159.092C106.914 158.882 107.454 158.777 108.064 158.777C108.684 158.777 109.224 158.882 109.684 159.092C110.154 159.302 110.549 159.592 110.869 159.962C111.189 160.322 111.429 160.752 111.589 161.252C111.749 161.742 111.829 162.272 111.829 162.842C111.829 163.412 111.749 163.942 111.589 164.432C111.429 164.922 111.189 165.352 110.869 165.722C110.549 166.082 110.154 166.367 109.684 166.577C109.224 166.777 108.684 166.877 108.064 166.877C107.454 166.877 106.914 166.777 106.444 166.577C105.974 166.367 105.579 166.082 105.259 165.722C104.939 165.352 104.699 164.922 104.539 164.432C104.379 163.942 104.299 163.412 104.299 162.842ZM116.377 167.747C116.227 168.127 116.077 168.447 115.927 168.707C115.787 168.967 115.627 169.177 115.447 169.337C115.277 169.507 115.082 169.627 114.862 169.697C114.652 169.777 114.407 169.817 114.127 169.817C113.977 169.817 113.827 169.807 113.677 169.787C113.527 169.767 113.382 169.732 113.242 169.682V168.512C113.352 168.562 113.477 168.602 113.617 168.632C113.767 168.672 113.892 168.692 113.992 168.692C114.252 168.692 114.467 168.627 114.637 168.497C114.817 168.377 114.952 168.202 115.042 167.972L115.567 166.667L112.492 158.957H113.932L116.197 165.302H116.227L118.402 158.957H119.752L116.377 167.747ZM127.522 166.052C127.522 167.322 127.232 168.272 126.652 168.902C126.072 169.532 125.162 169.847 123.922 169.847C123.562 169.847 123.192 169.807 122.812 169.727C122.442 169.647 122.102 169.517 121.792 169.337C121.492 169.157 121.242 168.922 121.042 168.632C120.842 168.342 120.732 167.987 120.712 167.567H121.987C121.997 167.797 122.067 167.992 122.197 168.152C122.337 168.312 122.502 168.442 122.692 168.542C122.892 168.642 123.107 168.712 123.337 168.752C123.567 168.802 123.787 168.827 123.997 168.827C124.417 168.827 124.772 168.752 125.062 168.602C125.352 168.462 125.592 168.262 125.782 168.002C125.972 167.752 126.107 167.447 126.187 167.087C126.277 166.727 126.322 166.332 126.322 165.902V165.392H126.292C126.072 165.872 125.737 166.227 125.287 166.457C124.847 166.677 124.377 166.787 123.877 166.787C123.297 166.787 122.792 166.682 122.362 166.472C121.932 166.262 121.572 165.982 121.282 165.632C120.992 165.272 120.772 164.857 120.622 164.387C120.482 163.907 120.412 163.402 120.412 162.872C120.412 162.412 120.472 161.942 120.592 161.462C120.712 160.972 120.912 160.532 121.192 160.142C121.472 159.742 121.842 159.417 122.302 159.167C122.762 158.907 123.327 158.777 123.997 158.777C124.487 158.777 124.937 158.887 125.347 159.107C125.757 159.317 126.077 159.637 126.307 160.067H126.322V158.957H127.522V166.052ZM123.952 165.677C124.372 165.677 124.727 165.592 125.017 165.422C125.317 165.242 125.557 165.012 125.737 164.732C125.917 164.442 126.047 164.117 126.127 163.757C126.217 163.397 126.262 163.037 126.262 162.677C126.262 162.337 126.222 162.002 126.142 161.672C126.062 161.342 125.932 161.047 125.752 160.787C125.582 160.517 125.357 160.302 125.077 160.142C124.797 159.982 124.457 159.902 124.057 159.902C123.647 159.902 123.297 159.982 123.007 160.142C122.717 160.292 122.477 160.497 122.287 160.757C122.107 161.017 121.972 161.317 121.882 161.657C121.802 161.997 121.762 162.352 121.762 162.722C121.762 163.072 121.797 163.422 121.867 163.772C121.937 164.122 122.057 164.442 122.227 164.732C122.397 165.012 122.622 165.242 122.902 165.422C123.182 165.592 123.532 165.677 123.952 165.677ZM136.315 166.682C136.095 166.812 135.79 166.877 135.4 166.877C135.07 166.877 134.805 166.787 134.605 166.607C134.415 166.417 134.32 166.112 134.32 165.692C133.97 166.112 133.56 166.417 133.09 166.607C132.63 166.787 132.13 166.877 131.59 166.877C131.24 166.877 130.905 166.837 130.585 166.757C130.275 166.677 130.005 166.552 129.775 166.382C129.545 166.212 129.36 165.992 129.22 165.722C129.09 165.442 129.025 165.107 129.025 164.717C129.025 164.277 129.1 163.917 129.25 163.637C129.4 163.357 129.595 163.132 129.835 162.962C130.085 162.782 130.365 162.647 130.675 162.557C130.995 162.467 131.32 162.392 131.65 162.332C132 162.262 132.33 162.212 132.64 162.182C132.96 162.142 133.24 162.092 133.48 162.032C133.72 161.962 133.91 161.867 134.05 161.747C134.19 161.617 134.26 161.432 134.26 161.192C134.26 160.912 134.205 160.687 134.095 160.517C133.995 160.347 133.86 160.217 133.69 160.127C133.53 160.037 133.345 159.977 133.135 159.947C132.935 159.917 132.735 159.902 132.535 159.902C131.995 159.902 131.545 160.007 131.185 160.217C130.825 160.417 130.63 160.802 130.6 161.372H129.325C129.345 160.892 129.445 160.487 129.625 160.157C129.805 159.827 130.045 159.562 130.345 159.362C130.645 159.152 130.985 159.002 131.365 158.912C131.755 158.822 132.17 158.777 132.61 158.777C132.96 158.777 133.305 158.802 133.645 158.852C133.995 158.902 134.31 159.007 134.59 159.167C134.87 159.317 135.095 159.532 135.265 159.812C135.435 160.092 135.52 160.457 135.52 160.907V164.897C135.52 165.197 135.535 165.417 135.565 165.557C135.605 165.697 135.725 165.767 135.925 165.767C136.035 165.767 136.165 165.742 136.315 165.692V166.682ZM134.245 162.707C134.085 162.827 133.875 162.917 133.615 162.977C133.355 163.027 133.08 163.072 132.79 163.112C132.51 163.142 132.225 163.182 131.935 163.232C131.645 163.272 131.385 163.342 131.155 163.442C130.925 163.542 130.735 163.687 130.585 163.877C130.445 164.057 130.375 164.307 130.375 164.627C130.375 164.837 130.415 165.017 130.495 165.167C130.585 165.307 130.695 165.422 130.825 165.512C130.965 165.602 131.125 165.667 131.305 165.707C131.485 165.747 131.675 165.767 131.875 165.767C132.295 165.767 132.655 165.712 132.955 165.602C133.255 165.482 133.5 165.337 133.69 165.167C133.88 164.987 134.02 164.797 134.11 164.597C134.2 164.387 134.245 164.192 134.245 164.012V162.707ZM147.212 162.842C147.212 162.512 147.177 162.197 147.107 161.897C147.037 161.597 146.927 161.332 146.777 161.102C146.627 160.872 146.437 160.692 146.207 160.562C145.987 160.422 145.717 160.352 145.397 160.352C145.087 160.352 144.817 160.422 144.587 160.562C144.357 160.692 144.167 160.872 144.017 161.102C143.867 161.332 143.757 161.597 143.687 161.897C143.617 162.197 143.582 162.512 143.582 162.842C143.582 163.162 143.617 163.472 143.687 163.772C143.757 164.072 143.867 164.337 144.017 164.567C144.167 164.797 144.357 164.982 144.587 165.122C144.817 165.252 145.087 165.317 145.397 165.317C145.717 165.317 145.987 165.252 146.207 165.122C146.437 164.982 146.627 164.797 146.777 164.567C146.927 164.337 147.037 164.072 147.107 163.772C147.177 163.472 147.212 163.162 147.212 162.842ZM141.527 156.002H143.657V159.902H143.687C143.947 159.502 144.297 159.212 144.737 159.032C145.187 158.842 145.652 158.747 146.132 158.747C146.522 158.747 146.907 158.827 147.287 158.987C147.667 159.147 148.007 159.392 148.307 159.722C148.617 160.052 148.867 160.477 149.057 160.997C149.247 161.507 149.342 162.117 149.342 162.827C149.342 163.537 149.247 164.152 149.057 164.672C148.867 165.182 148.617 165.602 148.307 165.932C148.007 166.262 147.667 166.507 147.287 166.667C146.907 166.827 146.522 166.907 146.132 166.907C145.562 166.907 145.052 166.817 144.602 166.637C144.152 166.457 143.812 166.152 143.582 165.722H143.552V166.712H141.527V156.002ZM152.587 162.842C152.587 163.152 152.617 163.457 152.677 163.757C152.737 164.047 152.837 164.312 152.977 164.552C153.127 164.782 153.322 164.967 153.562 165.107C153.802 165.247 154.102 165.317 154.462 165.317C154.822 165.317 155.122 165.247 155.362 165.107C155.612 164.967 155.807 164.782 155.947 164.552C156.097 164.312 156.202 164.047 156.262 163.757C156.322 163.457 156.352 163.152 156.352 162.842C156.352 162.532 156.322 162.227 156.262 161.927C156.202 161.627 156.097 161.362 155.947 161.132C155.807 160.902 155.612 160.717 155.362 160.577C155.122 160.427 154.822 160.352 154.462 160.352C154.102 160.352 153.802 160.427 153.562 160.577C153.322 160.717 153.127 160.902 152.977 161.132C152.837 161.362 152.737 161.627 152.677 161.927C152.617 162.227 152.587 162.532 152.587 162.842ZM150.457 162.842C150.457 162.222 150.552 161.662 150.742 161.162C150.932 160.652 151.202 160.222 151.552 159.872C151.902 159.512 152.322 159.237 152.812 159.047C153.302 158.847 153.852 158.747 154.462 158.747C155.072 158.747 155.622 158.847 156.112 159.047C156.612 159.237 157.037 159.512 157.387 159.872C157.737 160.222 158.007 160.652 158.197 161.162C158.387 161.662 158.482 162.222 158.482 162.842C158.482 163.462 158.387 164.022 158.197 164.522C158.007 165.022 157.737 165.452 157.387 165.812C157.037 166.162 156.612 166.432 156.112 166.622C155.622 166.812 155.072 166.907 154.462 166.907C153.852 166.907 153.302 166.812 152.812 166.622C152.322 166.432 151.902 166.162 151.552 165.812C151.202 165.452 150.932 165.022 150.742 164.522C150.552 164.022 150.457 163.462 150.457 162.842ZM160.077 156.002H162.207V158.297C162.217 158.627 162.167 158.937 162.057 159.227C161.957 159.517 161.812 159.772 161.622 159.992C161.432 160.212 161.202 160.397 160.932 160.547C160.672 160.687 160.387 160.777 160.077 160.817V159.827C160.457 159.697 160.717 159.507 160.857 159.257C160.997 158.997 161.067 158.682 161.067 158.312H160.077V156.002ZM164.101 156.002H166.231V166.712H164.101V156.002ZM170.099 157.757H167.969V156.002H170.099V157.757ZM167.969 158.957H170.099V166.712H167.969V158.957ZM177.461 162.842C177.461 162.512 177.426 162.197 177.356 161.897C177.286 161.597 177.176 161.332 177.026 161.102C176.876 160.872 176.686 160.692 176.456 160.562C176.236 160.422 175.966 160.352 175.646 160.352C175.336 160.352 175.066 160.422 174.836 160.562C174.606 160.692 174.416 160.872 174.266 161.102C174.116 161.332 174.006 161.597 173.936 161.897C173.866 162.197 173.831 162.512 173.831 162.842C173.831 163.162 173.866 163.472 173.936 163.772C174.006 164.072 174.116 164.337 174.266 164.567C174.416 164.797 174.606 164.982 174.836 165.122C175.066 165.252 175.336 165.317 175.646 165.317C175.966 165.317 176.236 165.252 176.456 165.122C176.686 164.982 176.876 164.797 177.026 164.567C177.176 164.337 177.286 164.072 177.356 163.772C177.426 163.472 177.461 163.162 177.461 162.842ZM171.776 156.002H173.906V159.902H173.936C174.196 159.502 174.546 159.212 174.986 159.032C175.436 158.842 175.901 158.747 176.381 158.747C176.771 158.747 177.156 158.827 177.536 158.987C177.916 159.147 178.256 159.392 178.556 159.722C178.866 160.052 179.116 160.477 179.306 160.997C179.496 161.507 179.591 162.117 179.591 162.827C179.591 163.537 179.496 164.152 179.306 164.672C179.116 165.182 178.866 165.602 178.556 165.932C178.256 166.262 177.916 166.507 177.536 166.667C177.156 166.827 176.771 166.907 176.381 166.907C175.811 166.907 175.301 166.817 174.851 166.637C174.401 166.457 174.061 166.152 173.831 165.722H173.801V166.712H171.776V156.002ZM187.821 158.957H189.381V160.382H187.821V164.222C187.821 164.582 187.881 164.822 188.001 164.942C188.121 165.062 188.361 165.122 188.721 165.122C188.841 165.122 188.956 165.117 189.066 165.107C189.176 165.097 189.281 165.082 189.381 165.062V166.712C189.201 166.742 189.001 166.762 188.781 166.772C188.561 166.782 188.346 166.787 188.136 166.787C187.806 166.787 187.491 166.762 187.191 166.712C186.901 166.672 186.641 166.587 186.411 166.457C186.191 166.327 186.016 166.142 185.886 165.902C185.756 165.662 185.691 165.347 185.691 164.957V160.382H184.401V158.957H185.691V156.632H187.821V158.957ZM192.284 162.842C192.284 163.152 192.314 163.457 192.374 163.757C192.434 164.047 192.534 164.312 192.674 164.552C192.824 164.782 193.019 164.967 193.259 165.107C193.499 165.247 193.799 165.317 194.159 165.317C194.519 165.317 194.819 165.247 195.059 165.107C195.309 164.967 195.504 164.782 195.644 164.552C195.794 164.312 195.899 164.047 195.959 163.757C196.019 163.457 196.049 163.152 196.049 162.842C196.049 162.532 196.019 162.227 195.959 161.927C195.899 161.627 195.794 161.362 195.644 161.132C195.504 160.902 195.309 160.717 195.059 160.577C194.819 160.427 194.519 160.352 194.159 160.352C193.799 160.352 193.499 160.427 193.259 160.577C193.019 160.717 192.824 160.902 192.674 161.132C192.534 161.362 192.434 161.627 192.374 161.927C192.314 162.227 192.284 162.532 192.284 162.842ZM190.154 162.842C190.154 162.222 190.249 161.662 190.439 161.162C190.629 160.652 190.899 160.222 191.249 159.872C191.599 159.512 192.019 159.237 192.509 159.047C192.999 158.847 193.549 158.747 194.159 158.747C194.769 158.747 195.319 158.847 195.809 159.047C196.309 159.237 196.734 159.512 197.084 159.872C197.434 160.222 197.704 160.652 197.894 161.162C198.084 161.662 198.179 162.222 198.179 162.842C198.179 163.462 198.084 164.022 197.894 164.522C197.704 165.022 197.434 165.452 197.084 165.812C196.734 166.162 196.309 166.432 195.809 166.622C195.319 166.812 194.769 166.907 194.159 166.907C193.549 166.907 192.999 166.812 192.509 166.622C192.019 166.432 191.599 166.162 191.249 165.812C190.899 165.452 190.629 165.022 190.439 164.522C190.249 164.022 190.154 163.462 190.154 162.842ZM199.774 156.002H201.904V158.297C201.914 158.627 201.864 158.937 201.754 159.227C201.654 159.517 201.509 159.772 201.319 159.992C201.129 160.212 200.899 160.397 200.629 160.547C200.369 160.687 200.084 160.777 199.774 160.817V159.827C200.154 159.697 200.414 159.507 200.554 159.257C200.694 158.997 200.764 158.682 200.764 158.312H199.774V156.002ZM203.799 156.002H205.929V166.712H203.799V156.002ZM207.516 161.342C207.546 160.842 207.671 160.427 207.891 160.097C208.111 159.767 208.391 159.502 208.731 159.302C209.071 159.102 209.451 158.962 209.871 158.882C210.301 158.792 210.731 158.747 211.161 158.747C211.551 158.747 211.946 158.777 212.346 158.837C212.746 158.887 213.111 158.992 213.441 159.152C213.771 159.312 214.041 159.537 214.251 159.827C214.461 160.107 214.566 160.482 214.566 160.952V164.987C214.566 165.337 214.586 165.672 214.626 165.992C214.666 166.312 214.736 166.552 214.836 166.712H212.676C212.636 166.592 212.601 166.472 212.571 166.352C212.551 166.222 212.536 166.092 212.526 165.962C212.186 166.312 211.786 166.557 211.326 166.697C210.866 166.837 210.396 166.907 209.916 166.907C209.546 166.907 209.201 166.862 208.881 166.772C208.561 166.682 208.281 166.542 208.041 166.352C207.801 166.162 207.611 165.922 207.471 165.632C207.341 165.342 207.276 164.997 207.276 164.597C207.276 164.157 207.351 163.797 207.501 163.517C207.661 163.227 207.861 162.997 208.101 162.827C208.351 162.657 208.631 162.532 208.941 162.452C209.261 162.362 209.581 162.292 209.901 162.242C210.221 162.192 210.536 162.152 210.846 162.122C211.156 162.092 211.431 162.047 211.671 161.987C211.911 161.927 212.101 161.842 212.241 161.732C212.381 161.612 212.446 161.442 212.436 161.222C212.436 160.992 212.396 160.812 212.316 160.682C212.246 160.542 212.146 160.437 212.016 160.367C211.896 160.287 211.751 160.237 211.581 160.217C211.421 160.187 211.246 160.172 211.056 160.172C210.636 160.172 210.306 160.262 210.066 160.442C209.826 160.622 209.686 160.922 209.646 161.342H207.516ZM212.436 162.917C212.346 162.997 212.231 163.062 212.091 163.112C211.961 163.152 211.816 163.187 211.656 163.217C211.506 163.247 211.346 163.272 211.176 163.292C211.006 163.312 210.836 163.337 210.666 163.367C210.506 163.397 210.346 163.437 210.186 163.487C210.036 163.537 209.901 163.607 209.781 163.697C209.671 163.777 209.581 163.882 209.511 164.012C209.441 164.142 209.406 164.307 209.406 164.507C209.406 164.697 209.441 164.857 209.511 164.987C209.581 165.117 209.676 165.222 209.796 165.302C209.916 165.372 210.056 165.422 210.216 165.452C210.376 165.482 210.541 165.497 210.711 165.497C211.131 165.497 211.456 165.427 211.686 165.287C211.916 165.147 212.086 164.982 212.196 164.792C212.306 164.592 212.371 164.392 212.391 164.192C212.421 163.992 212.436 163.832 212.436 163.712V162.917ZM217.869 164.192C217.869 164.422 217.914 164.622 218.004 164.792C218.104 164.952 218.229 165.087 218.379 165.197C218.529 165.297 218.699 165.372 218.889 165.422C219.089 165.472 219.294 165.497 219.504 165.497C219.654 165.497 219.809 165.482 219.969 165.452C220.139 165.412 220.289 165.357 220.419 165.287C220.559 165.207 220.674 165.107 220.764 164.987C220.854 164.857 220.899 164.697 220.899 164.507C220.899 164.187 220.684 163.947 220.254 163.787C219.834 163.627 219.244 163.467 218.484 163.307C218.174 163.237 217.869 163.157 217.569 163.067C217.279 162.967 217.019 162.842 216.789 162.692C216.559 162.532 216.374 162.337 216.234 162.107C216.094 161.867 216.024 161.577 216.024 161.237C216.024 160.737 216.119 160.327 216.309 160.007C216.509 159.687 216.769 159.437 217.089 159.257C217.409 159.067 217.769 158.937 218.169 158.867C218.569 158.787 218.979 158.747 219.399 158.747C219.819 158.747 220.224 158.787 220.614 158.867C221.014 158.947 221.369 159.082 221.679 159.272C221.989 159.462 222.244 159.717 222.444 160.037C222.654 160.347 222.779 160.742 222.819 161.222H220.794C220.764 160.812 220.609 160.537 220.329 160.397C220.049 160.247 219.719 160.172 219.339 160.172C219.219 160.172 219.089 160.182 218.949 160.202C218.809 160.212 218.679 160.242 218.559 160.292C218.449 160.342 218.354 160.417 218.274 160.517C218.194 160.607 218.154 160.732 218.154 160.892C218.154 161.082 218.224 161.237 218.364 161.357C218.504 161.477 218.684 161.577 218.904 161.657C219.134 161.727 219.394 161.792 219.684 161.852C219.974 161.912 220.269 161.977 220.569 162.047C220.879 162.117 221.179 162.202 221.469 162.302C221.769 162.402 222.034 162.537 222.264 162.707C222.494 162.867 222.679 163.072 222.819 163.322C222.959 163.562 223.029 163.862 223.029 164.222C223.029 164.732 222.924 165.162 222.714 165.512C222.514 165.852 222.249 166.127 221.919 166.337C221.589 166.547 221.209 166.692 220.779 166.772C220.359 166.862 219.929 166.907 219.489 166.907C219.039 166.907 218.599 166.862 218.169 166.772C217.739 166.682 217.354 166.532 217.014 166.322C216.684 166.112 216.409 165.837 216.189 165.497C215.979 165.147 215.864 164.712 215.844 164.192H217.869ZM224.276 156.002H226.406V160.037H226.451C226.721 159.587 227.066 159.262 227.486 159.062C227.906 158.852 228.316 158.747 228.716 158.747C229.286 158.747 229.751 158.827 230.111 158.987C230.481 159.137 230.771 159.352 230.981 159.632C231.191 159.902 231.336 160.237 231.416 160.637C231.506 161.027 231.551 161.462 231.551 161.942V166.712H229.421V162.332C229.421 161.692 229.321 161.217 229.121 160.907C228.921 160.587 228.566 160.427 228.056 160.427C227.476 160.427 227.056 160.602 226.796 160.952C226.536 161.292 226.406 161.857 226.406 162.647V166.712H224.276V156.002ZM236.782 164.882C237.082 164.882 237.347 164.822 237.577 164.702C237.807 164.582 237.997 164.422 238.147 164.222C238.297 164.022 238.407 163.797 238.477 163.547C238.557 163.287 238.597 163.017 238.597 162.737C238.597 162.417 238.567 162.117 238.507 161.837C238.447 161.547 238.347 161.292 238.207 161.072C238.067 160.852 237.882 160.677 237.652 160.547C237.422 160.417 237.132 160.352 236.782 160.352C236.482 160.352 236.222 160.412 236.002 160.532C235.792 160.652 235.612 160.817 235.462 161.027C235.322 161.227 235.217 161.462 235.147 161.732C235.087 161.992 235.057 162.267 235.057 162.557C235.057 162.837 235.082 163.117 235.132 163.397C235.192 163.667 235.287 163.912 235.417 164.132C235.557 164.352 235.737 164.532 235.957 164.672C236.177 164.812 236.452 164.882 236.782 164.882ZM240.622 166.217C240.622 166.527 240.577 166.882 240.487 167.282C240.407 167.682 240.227 168.052 239.947 168.392C239.667 168.742 239.262 169.037 238.732 169.277C238.202 169.517 237.492 169.637 236.602 169.637C236.222 169.637 235.832 169.587 235.432 169.487C235.042 169.397 234.682 169.252 234.352 169.052C234.032 168.852 233.762 168.592 233.542 168.272C233.332 167.962 233.212 167.587 233.182 167.147H235.297C235.397 167.547 235.592 167.822 235.882 167.972C236.172 168.132 236.507 168.212 236.887 168.212C237.487 168.212 237.922 168.032 238.192 167.672C238.472 167.312 238.607 166.857 238.597 166.307V165.287H238.567C238.337 165.697 238.007 166.002 237.577 166.202C237.157 166.392 236.712 166.487 236.242 166.487C235.662 166.487 235.162 166.387 234.742 166.187C234.322 165.977 233.977 165.697 233.707 165.347C233.437 164.987 233.237 164.572 233.107 164.102C232.987 163.622 232.927 163.117 232.927 162.587C232.927 162.087 232.997 161.607 233.137 161.147C233.287 160.677 233.502 160.267 233.782 159.917C234.062 159.557 234.407 159.272 234.817 159.062C235.237 158.852 235.717 158.747 236.257 158.747C236.767 158.747 237.212 158.842 237.592 159.032C237.982 159.222 238.307 159.542 238.567 159.992H238.597V158.957H240.622V166.217ZM242.247 161.342C242.277 160.842 242.402 160.427 242.622 160.097C242.842 159.767 243.122 159.502 243.462 159.302C243.802 159.102 244.182 158.962 244.602 158.882C245.032 158.792 245.462 158.747 245.892 158.747C246.282 158.747 246.677 158.777 247.077 158.837C247.477 158.887 247.842 158.992 248.172 159.152C248.502 159.312 248.772 159.537 248.982 159.827C249.192 160.107 249.297 160.482 249.297 160.952V164.987C249.297 165.337 249.317 165.672 249.357 165.992C249.397 166.312 249.467 166.552 249.567 166.712H247.407C247.367 166.592 247.332 166.472 247.302 166.352C247.282 166.222 247.267 166.092 247.257 165.962C246.917 166.312 246.517 166.557 246.057 166.697C245.597 166.837 245.127 166.907 244.647 166.907C244.277 166.907 243.932 166.862 243.612 166.772C243.292 166.682 243.012 166.542 242.772 166.352C242.532 166.162 242.342 165.922 242.202 165.632C242.072 165.342 242.007 164.997 242.007 164.597C242.007 164.157 242.082 163.797 242.232 163.517C242.392 163.227 242.592 162.997 242.832 162.827C243.082 162.657 243.362 162.532 243.672 162.452C243.992 162.362 244.312 162.292 244.632 162.242C244.952 162.192 245.267 162.152 245.577 162.122C245.887 162.092 246.162 162.047 246.402 161.987C246.642 161.927 246.832 161.842 246.972 161.732C247.112 161.612 247.177 161.442 247.167 161.222C247.167 160.992 247.127 160.812 247.047 160.682C246.977 160.542 246.877 160.437 246.747 160.367C246.627 160.287 246.482 160.237 246.312 160.217C246.152 160.187 245.977 160.172 245.787 160.172C245.367 160.172 245.037 160.262 244.797 160.442C244.557 160.622 244.417 160.922 244.377 161.342H242.247ZM247.167 162.917C247.077 162.997 246.962 163.062 246.822 163.112C246.692 163.152 246.547 163.187 246.387 163.217C246.237 163.247 246.077 163.272 245.907 163.292C245.737 163.312 245.567 163.337 245.397 163.367C245.237 163.397 245.077 163.437 244.917 163.487C244.767 163.537 244.632 163.607 244.512 163.697C244.402 163.777 244.312 163.882 244.242 164.012C244.172 164.142 244.137 164.307 244.137 164.507C244.137 164.697 244.172 164.857 244.242 164.987C244.312 165.117 244.407 165.222 244.527 165.302C244.647 165.372 244.787 165.422 244.947 165.452C245.107 165.482 245.272 165.497 245.442 165.497C245.862 165.497 246.187 165.427 246.417 165.287C246.647 165.147 246.817 164.982 246.927 164.792C247.037 164.592 247.102 164.392 247.122 164.192C247.152 163.992 247.167 163.832 247.167 163.712V162.917ZM257.105 162.632L254.555 158.957H256.985L258.35 160.982L259.7 158.957H262.055L259.505 162.587L262.37 166.712H259.94L258.32 164.267L256.7 166.712H254.315L257.105 162.632ZM265.072 162.842C265.072 163.152 265.102 163.457 265.162 163.757C265.222 164.047 265.322 164.312 265.462 164.552C265.612 164.782 265.807 164.967 266.047 165.107C266.287 165.247 266.587 165.317 266.947 165.317C267.307 165.317 267.607 165.247 267.847 165.107C268.097 164.967 268.292 164.782 268.432 164.552C268.582 164.312 268.687 164.047 268.747 163.757C268.807 163.457 268.837 163.152 268.837 162.842C268.837 162.532 268.807 162.227 268.747 161.927C268.687 161.627 268.582 161.362 268.432 161.132C268.292 160.902 268.097 160.717 267.847 160.577C267.607 160.427 267.307 160.352 266.947 160.352C266.587 160.352 266.287 160.427 266.047 160.577C265.807 160.717 265.612 160.902 265.462 161.132C265.322 161.362 265.222 161.627 265.162 161.927C265.102 162.227 265.072 162.532 265.072 162.842ZM262.942 162.842C262.942 162.222 263.037 161.662 263.227 161.162C263.417 160.652 263.687 160.222 264.037 159.872C264.387 159.512 264.807 159.237 265.297 159.047C265.787 158.847 266.337 158.747 266.947 158.747C267.557 158.747 268.107 158.847 268.597 159.047C269.097 159.237 269.522 159.512 269.872 159.872C270.222 160.222 270.492 160.652 270.682 161.162C270.872 161.662 270.967 162.222 270.967 162.842C270.967 163.462 270.872 164.022 270.682 164.522C270.492 165.022 270.222 165.452 269.872 165.812C269.522 166.162 269.097 166.432 268.597 166.622C268.107 166.812 267.557 166.907 266.947 166.907C266.337 166.907 265.787 166.812 265.297 166.622C264.807 166.432 264.387 166.162 264.037 165.812C263.687 165.452 263.417 165.022 263.227 164.522C263.037 164.022 262.942 163.462 262.942 162.842ZM272.352 158.957H274.377V160.037H274.422C274.692 159.587 275.042 159.262 275.472 159.062C275.902 158.852 276.342 158.747 276.792 158.747C277.362 158.747 277.827 158.827 278.187 158.987C278.557 159.137 278.847 159.352 279.057 159.632C279.267 159.902 279.412 160.237 279.492 160.637C279.582 161.027 279.627 161.462 279.627 161.942V166.712H277.497V162.332C277.497 161.692 277.397 161.217 277.197 160.907C276.997 160.587 276.642 160.427 276.132 160.427C275.552 160.427 275.132 160.602 274.872 160.952C274.612 161.292 274.482 161.857 274.482 162.647V166.712H272.352V158.957ZM281.154 161.342C281.184 160.842 281.309 160.427 281.529 160.097C281.749 159.767 282.029 159.502 282.369 159.302C282.709 159.102 283.089 158.962 283.509 158.882C283.939 158.792 284.369 158.747 284.799 158.747C285.189 158.747 285.584 158.777 285.984 158.837C286.384 158.887 286.749 158.992 287.079 159.152C287.409 159.312 287.679 159.537 287.889 159.827C288.099 160.107 288.204 160.482 288.204 160.952V164.987C288.204 165.337 288.224 165.672 288.264 165.992C288.304 166.312 288.374 166.552 288.474 166.712H286.314C286.274 166.592 286.239 166.472 286.209 166.352C286.189 166.222 286.174 166.092 286.164 165.962C285.824 166.312 285.424 166.557 284.964 166.697C284.504 166.837 284.034 166.907 283.554 166.907C283.184 166.907 282.839 166.862 282.519 166.772C282.199 166.682 281.919 166.542 281.679 166.352C281.439 166.162 281.249 165.922 281.109 165.632C280.979 165.342 280.914 164.997 280.914 164.597C280.914 164.157 280.989 163.797 281.139 163.517C281.299 163.227 281.499 162.997 281.739 162.827C281.989 162.657 282.269 162.532 282.579 162.452C282.899 162.362 283.219 162.292 283.539 162.242C283.859 162.192 284.174 162.152 284.484 162.122C284.794 162.092 285.069 162.047 285.309 161.987C285.549 161.927 285.739 161.842 285.879 161.732C286.019 161.612 286.084 161.442 286.074 161.222C286.074 160.992 286.034 160.812 285.954 160.682C285.884 160.542 285.784 160.437 285.654 160.367C285.534 160.287 285.389 160.237 285.219 160.217C285.059 160.187 284.884 160.172 284.694 160.172C284.274 160.172 283.944 160.262 283.704 160.442C283.464 160.622 283.324 160.922 283.284 161.342H281.154ZM286.074 162.917C285.984 162.997 285.869 163.062 285.729 163.112C285.599 163.152 285.454 163.187 285.294 163.217C285.144 163.247 284.984 163.272 284.814 163.292C284.644 163.312 284.474 163.337 284.304 163.367C284.144 163.397 283.984 163.437 283.824 163.487C283.674 163.537 283.539 163.607 283.419 163.697C283.309 163.777 283.219 163.882 283.149 164.012C283.079 164.142 283.044 164.307 283.044 164.507C283.044 164.697 283.079 164.857 283.149 164.987C283.219 165.117 283.314 165.222 283.434 165.302C283.554 165.372 283.694 165.422 283.854 165.452C284.014 165.482 284.179 165.497 284.349 165.497C284.769 165.497 285.094 165.427 285.324 165.287C285.554 165.147 285.724 164.982 285.834 164.792C285.944 164.592 286.009 164.392 286.029 164.192C286.059 163.992 286.074 163.832 286.074 163.712V162.917ZM295.362 162.812C295.362 162.492 295.332 162.187 295.272 161.897C295.212 161.597 295.107 161.337 294.957 161.117C294.817 160.887 294.632 160.702 294.402 160.562C294.172 160.422 293.882 160.352 293.532 160.352C293.182 160.352 292.887 160.422 292.647 160.562C292.407 160.702 292.212 160.887 292.062 161.117C291.922 161.347 291.817 161.612 291.747 161.912C291.687 162.202 291.657 162.507 291.657 162.827C291.657 163.127 291.692 163.427 291.762 163.727C291.832 164.027 291.942 164.297 292.092 164.537C292.252 164.767 292.447 164.957 292.677 165.107C292.917 165.247 293.202 165.317 293.532 165.317C293.882 165.317 294.172 165.247 294.402 165.107C294.642 164.967 294.832 164.782 294.972 164.552C295.112 164.312 295.212 164.042 295.272 163.742C295.332 163.442 295.362 163.132 295.362 162.812ZM295.392 165.722H295.362C295.112 166.142 294.782 166.447 294.372 166.637C293.972 166.817 293.517 166.907 293.007 166.907C292.427 166.907 291.917 166.797 291.477 166.577C291.037 166.347 290.672 166.042 290.382 165.662C290.102 165.272 289.887 164.827 289.737 164.327C289.597 163.827 289.527 163.307 289.527 162.767C289.527 162.247 289.597 161.747 289.737 161.267C289.887 160.777 290.102 160.347 290.382 159.977C290.672 159.607 291.032 159.312 291.462 159.092C291.892 158.862 292.392 158.747 292.962 158.747C293.422 158.747 293.857 158.847 294.267 159.047C294.687 159.237 295.017 159.522 295.257 159.902H295.287V156.002H297.417V166.712H295.392V165.722ZM300.917 162.842C300.917 163.152 300.947 163.457 301.007 163.757C301.067 164.047 301.167 164.312 301.307 164.552C301.457 164.782 301.652 164.967 301.892 165.107C302.132 165.247 302.432 165.317 302.792 165.317C303.152 165.317 303.452 165.247 303.692 165.107C303.942 164.967 304.137 164.782 304.277 164.552C304.427 164.312 304.532 164.047 304.592 163.757C304.652 163.457 304.682 163.152 304.682 162.842C304.682 162.532 304.652 162.227 304.592 161.927C304.532 161.627 304.427 161.362 304.277 161.132C304.137 160.902 303.942 160.717 303.692 160.577C303.452 160.427 303.152 160.352 302.792 160.352C302.432 160.352 302.132 160.427 301.892 160.577C301.652 160.717 301.457 160.902 301.307 161.132C301.167 161.362 301.067 161.627 301.007 161.927C300.947 162.227 300.917 162.532 300.917 162.842ZM298.787 162.842C298.787 162.222 298.882 161.662 299.072 161.162C299.262 160.652 299.532 160.222 299.882 159.872C300.232 159.512 300.652 159.237 301.142 159.047C301.632 158.847 302.182 158.747 302.792 158.747C303.402 158.747 303.952 158.847 304.442 159.047C304.942 159.237 305.367 159.512 305.717 159.872C306.067 160.222 306.337 160.652 306.527 161.162C306.717 161.662 306.812 162.222 306.812 162.842C306.812 163.462 306.717 164.022 306.527 164.522C306.337 165.022 306.067 165.452 305.717 165.812C305.367 166.162 304.942 166.432 304.442 166.622C303.952 166.812 303.402 166.907 302.792 166.907C302.182 166.907 301.632 166.812 301.142 166.622C300.652 166.432 300.232 166.162 299.882 165.812C299.532 165.452 299.262 165.022 299.072 164.522C298.882 164.022 298.787 163.462 298.787 162.842ZM308.197 158.957H310.222V160.037H310.267C310.537 159.587 310.887 159.262 311.317 159.062C311.747 158.852 312.187 158.747 312.637 158.747C313.207 158.747 313.672 158.827 314.032 158.987C314.402 159.137 314.692 159.352 314.902 159.632C315.112 159.902 315.257 160.237 315.337 160.637C315.427 161.027 315.472 161.462 315.472 161.942V166.712H313.342V162.332C313.342 161.692 313.242 161.217 313.042 160.907C312.842 160.587 312.487 160.427 311.977 160.427C311.397 160.427 310.977 160.602 310.717 160.952C310.457 161.292 310.327 161.857 310.327 162.647V166.712H308.197V158.957ZM321.413 156.002H322.688V160.097H322.718C322.818 159.857 322.958 159.657 323.138 159.497C323.318 159.327 323.518 159.192 323.738 159.092C323.968 158.982 324.203 158.902 324.443 158.852C324.693 158.802 324.933 158.777 325.163 158.777C325.673 158.777 326.098 158.847 326.438 158.987C326.778 159.127 327.053 159.322 327.263 159.572C327.473 159.822 327.618 160.122 327.698 160.472C327.788 160.812 327.833 161.192 327.833 161.612V166.712H326.558V161.462C326.558 160.982 326.418 160.602 326.138 160.322C325.858 160.042 325.473 159.902 324.983 159.902C324.593 159.902 324.253 159.962 323.963 160.082C323.683 160.202 323.448 160.372 323.258 160.592C323.068 160.812 322.923 161.072 322.823 161.372C322.733 161.662 322.688 161.982 322.688 162.332V166.712H321.413V156.002ZM336.618 166.682C336.398 166.812 336.093 166.877 335.703 166.877C335.373 166.877 335.108 166.787 334.908 166.607C334.718 166.417 334.623 166.112 334.623 165.692C334.273 166.112 333.863 166.417 333.393 166.607C332.933 166.787 332.433 166.877 331.893 166.877C331.543 166.877 331.208 166.837 330.888 166.757C330.578 166.677 330.308 166.552 330.078 166.382C329.848 166.212 329.663 165.992 329.523 165.722C329.393 165.442 329.328 165.107 329.328 164.717C329.328 164.277 329.403 163.917 329.553 163.637C329.703 163.357 329.898 163.132 330.138 162.962C330.388 162.782 330.668 162.647 330.978 162.557C331.298 162.467 331.623 162.392 331.953 162.332C332.303 162.262 332.633 162.212 332.943 162.182C333.263 162.142 333.543 162.092 333.783 162.032C334.023 161.962 334.213 161.867 334.353 161.747C334.493 161.617 334.563 161.432 334.563 161.192C334.563 160.912 334.508 160.687 334.398 160.517C334.298 160.347 334.163 160.217 333.993 160.127C333.833 160.037 333.648 159.977 333.438 159.947C333.238 159.917 333.038 159.902 332.838 159.902C332.298 159.902 331.848 160.007 331.488 160.217C331.128 160.417 330.933 160.802 330.903 161.372H329.628C329.648 160.892 329.748 160.487 329.928 160.157C330.108 159.827 330.348 159.562 330.648 159.362C330.948 159.152 331.288 159.002 331.668 158.912C332.058 158.822 332.473 158.777 332.913 158.777C333.263 158.777 333.608 158.802 333.948 158.852C334.298 158.902 334.613 159.007 334.893 159.167C335.173 159.317 335.398 159.532 335.568 159.812C335.738 160.092 335.823 160.457 335.823 160.907V164.897C335.823 165.197 335.838 165.417 335.868 165.557C335.908 165.697 336.028 165.767 336.228 165.767C336.338 165.767 336.468 165.742 336.618 165.692V166.682ZM334.548 162.707C334.388 162.827 334.178 162.917 333.918 162.977C333.658 163.027 333.383 163.072 333.093 163.112C332.813 163.142 332.528 163.182 332.238 163.232C331.948 163.272 331.688 163.342 331.458 163.442C331.228 163.542 331.038 163.687 330.888 163.877C330.748 164.057 330.678 164.307 330.678 164.627C330.678 164.837 330.718 165.017 330.798 165.167C330.888 165.307 330.998 165.422 331.128 165.512C331.268 165.602 331.428 165.667 331.608 165.707C331.788 165.747 331.978 165.767 332.178 165.767C332.598 165.767 332.958 165.712 333.258 165.602C333.558 165.482 333.803 165.337 333.993 165.167C334.183 164.987 334.323 164.797 334.413 164.597C334.503 164.387 334.548 164.192 334.548 164.012V162.707ZM337.76 158.957H338.96V160.592H338.99C339.3 159.962 339.68 159.497 340.13 159.197C340.58 158.897 341.15 158.757 341.84 158.777V160.127C341.33 160.127 340.895 160.197 340.535 160.337C340.175 160.477 339.885 160.682 339.665 160.952C339.445 161.222 339.285 161.552 339.185 161.942C339.085 162.322 339.035 162.762 339.035 163.262V166.712H337.76V158.957ZM344.15 157.562H342.875V156.002H344.15V157.562ZM342.875 158.957H344.15V166.712H342.875V158.957ZM347.055 162.902C347.055 163.262 347.1 163.617 347.19 163.967C347.29 164.307 347.435 164.612 347.625 164.882C347.825 165.152 348.075 165.367 348.375 165.527C348.685 165.687 349.045 165.767 349.455 165.767C349.885 165.767 350.25 165.682 350.55 165.512C350.85 165.342 351.095 165.122 351.285 164.852C351.475 164.572 351.61 164.257 351.69 163.907C351.78 163.557 351.825 163.202 351.825 162.842C351.825 162.462 351.78 162.097 351.69 161.747C351.6 161.387 351.455 161.072 351.255 160.802C351.065 160.532 350.815 160.317 350.505 160.157C350.195 159.987 349.82 159.902 349.38 159.902C348.95 159.902 348.585 159.987 348.285 160.157C347.985 160.327 347.745 160.552 347.565 160.832C347.385 161.112 347.255 161.432 347.175 161.792C347.095 162.152 347.055 162.522 347.055 162.902ZM353.055 166.712H351.78V165.662H351.75C351.54 166.092 351.21 166.402 350.76 166.592C350.31 166.782 349.815 166.877 349.275 166.877C348.675 166.877 348.15 166.767 347.7 166.547C347.26 166.327 346.89 166.032 346.59 165.662C346.3 165.292 346.08 164.862 345.93 164.372C345.78 163.882 345.705 163.362 345.705 162.812C345.705 162.262 345.775 161.742 345.915 161.252C346.065 160.762 346.285 160.337 346.575 159.977C346.875 159.607 347.245 159.317 347.685 159.107C348.135 158.887 348.655 158.777 349.245 158.777C349.445 158.777 349.66 158.797 349.89 158.837C350.12 158.877 350.35 158.947 350.58 159.047C350.81 159.137 351.025 159.262 351.225 159.422C351.435 159.572 351.61 159.762 351.75 159.992H351.78V156.002H353.055V166.712ZM165.136 183.902C165.136 184.262 165.181 184.617 165.271 184.967C165.371 185.307 165.516 185.612 165.706 185.882C165.906 186.152 166.156 186.367 166.456 186.527C166.766 186.687 167.126 186.767 167.536 186.767C167.966 186.767 168.331 186.682 168.631 186.512C168.931 186.342 169.176 186.122 169.366 185.852C169.556 185.572 169.691 185.257 169.771 184.907C169.861 184.557 169.906 184.202 169.906 183.842C169.906 183.462 169.861 183.097 169.771 182.747C169.681 182.387 169.536 182.072 169.336 181.802C169.146 181.532 168.896 181.317 168.586 181.157C168.276 180.987 167.901 180.902 167.461 180.902C167.031 180.902 166.666 180.987 166.366 181.157C166.066 181.327 165.826 181.552 165.646 181.832C165.466 182.112 165.336 182.432 165.256 182.792C165.176 183.152 165.136 183.522 165.136 183.902ZM171.136 190.667H169.861V186.662H169.831C169.621 187.092 169.291 187.402 168.841 187.592C168.391 187.782 167.896 187.877 167.356 187.877C166.756 187.877 166.231 187.767 165.781 187.547C165.341 187.327 164.971 187.032 164.671 186.662C164.381 186.292 164.161 185.862 164.011 185.372C163.861 184.882 163.786 184.362 163.786 183.812C163.786 183.262 163.856 182.742 163.996 182.252C164.146 181.762 164.366 181.337 164.656 180.977C164.956 180.607 165.326 180.317 165.766 180.107C166.216 179.887 166.736 179.777 167.326 179.777C167.526 179.777 167.741 179.797 167.971 179.837C168.201 179.877 168.431 179.947 168.661 180.047C168.891 180.137 169.106 180.262 169.306 180.422C169.516 180.572 169.691 180.762 169.831 180.992H169.861V179.957H171.136V190.667ZM174.448 178.562H173.173V177.002H174.448V178.562ZM173.173 179.957H174.448V187.712H173.173V179.957ZM176.498 177.002H177.773V187.712H176.498V177.002ZM181.098 178.562H179.823V177.002H181.098V178.562ZM179.823 179.957H181.098V187.712H179.823V179.957ZM183.853 185.267C183.863 185.547 183.928 185.787 184.048 185.987C184.168 186.177 184.323 186.332 184.513 186.452C184.713 186.562 184.933 186.642 185.173 186.692C185.423 186.742 185.678 186.767 185.938 186.767C186.138 186.767 186.348 186.752 186.568 186.722C186.788 186.692 186.988 186.637 187.168 186.557C187.358 186.477 187.513 186.362 187.633 186.212C187.753 186.052 187.813 185.852 187.813 185.612C187.813 185.282 187.688 185.032 187.438 184.862C187.188 184.692 186.873 184.557 186.493 184.457C186.123 184.347 185.718 184.252 185.278 184.172C184.838 184.082 184.428 183.962 184.048 183.812C183.678 183.652 183.368 183.432 183.118 183.152C182.868 182.872 182.743 182.482 182.743 181.982C182.743 181.592 182.828 181.257 182.998 180.977C183.178 180.697 183.403 180.472 183.673 180.302C183.953 180.122 184.263 179.992 184.603 179.912C184.953 179.822 185.298 179.777 185.638 179.777C186.078 179.777 186.483 179.817 186.853 179.897C187.223 179.967 187.548 180.097 187.828 180.287C188.118 180.467 188.348 180.717 188.518 181.037C188.688 181.347 188.788 181.737 188.818 182.207H187.543C187.523 181.957 187.458 181.752 187.348 181.592C187.238 181.422 187.098 181.287 186.928 181.187C186.758 181.087 186.568 181.017 186.358 180.977C186.158 180.927 185.953 180.902 185.743 180.902C185.553 180.902 185.358 180.917 185.158 180.947C184.968 180.977 184.793 181.032 184.633 181.112C184.473 181.182 184.343 181.282 184.243 181.412C184.143 181.532 184.093 181.692 184.093 181.892C184.093 182.112 184.168 182.297 184.318 182.447C184.478 182.587 184.678 182.707 184.918 182.807C185.158 182.897 185.428 182.977 185.728 183.047C186.028 183.107 186.328 183.172 186.628 183.242C186.948 183.312 187.258 183.397 187.558 183.497C187.868 183.597 188.138 183.732 188.368 183.902C188.608 184.062 188.798 184.267 188.938 184.517C189.088 184.767 189.163 185.077 189.163 185.447C189.163 185.917 189.063 186.307 188.863 186.617C188.673 186.927 188.418 187.177 188.098 187.367C187.788 187.557 187.433 187.687 187.033 187.757C186.643 187.837 186.253 187.877 185.863 187.877C185.433 187.877 185.023 187.832 184.633 187.742C184.243 187.652 183.898 187.507 183.598 187.307C183.298 187.097 183.058 186.827 182.878 186.497C182.698 186.157 182.598 185.747 182.578 185.267H183.853ZM190.573 177.002H191.848V181.097H191.878C191.978 180.857 192.118 180.657 192.298 180.497C192.478 180.327 192.678 180.192 192.898 180.092C193.128 179.982 193.363 179.902 193.603 179.852C193.853 179.802 194.093 179.777 194.323 179.777C194.833 179.777 195.258 179.847 195.598 179.987C195.938 180.127 196.213 180.322 196.423 180.572C196.633 180.822 196.778 181.122 196.858 181.472C196.948 181.812 196.993 182.192 196.993 182.612V187.712H195.718V182.462C195.718 181.982 195.578 181.602 195.298 181.322C195.018 181.042 194.633 180.902 194.143 180.902C193.753 180.902 193.413 180.962 193.123 181.082C192.843 181.202 192.608 181.372 192.418 181.592C192.228 181.812 192.083 182.072 191.983 182.372C191.893 182.662 191.848 182.982 191.848 183.332V187.712H190.573V177.002ZM200.258 178.562H198.983V177.002H200.258V178.562ZM198.983 179.957H200.258V187.712H198.983V179.957ZM202.233 179.957H203.433V181.187H203.463C203.993 180.247 204.833 179.777 205.983 179.777C206.493 179.777 206.918 179.847 207.258 179.987C207.598 180.127 207.873 180.322 208.083 180.572C208.293 180.822 208.438 181.122 208.518 181.472C208.608 181.812 208.653 182.192 208.653 182.612V187.712H207.378V182.462C207.378 181.982 207.238 181.602 206.958 181.322C206.678 181.042 206.293 180.902 205.803 180.902C205.413 180.902 205.073 180.962 204.783 181.082C204.503 181.202 204.268 181.372 204.078 181.592C203.888 181.812 203.743 182.072 203.643 182.372C203.553 182.662 203.508 182.982 203.508 183.332V187.712H202.233V179.957ZM217.258 187.052C217.258 188.322 216.968 189.272 216.388 189.902C215.808 190.532 214.898 190.847 213.658 190.847C213.298 190.847 212.928 190.807 212.548 190.727C212.178 190.647 211.838 190.517 211.528 190.337C211.228 190.157 210.978 189.922 210.778 189.632C210.578 189.342 210.468 188.987 210.448 188.567H211.723C211.733 188.797 211.803 188.992 211.933 189.152C212.073 189.312 212.238 189.442 212.428 189.542C212.628 189.642 212.843 189.712 213.073 189.752C213.303 189.802 213.523 189.827 213.733 189.827C214.153 189.827 214.508 189.752 214.798 189.602C215.088 189.462 215.328 189.262 215.518 189.002C215.708 188.752 215.843 188.447 215.923 188.087C216.013 187.727 216.058 187.332 216.058 186.902V186.392H216.028C215.808 186.872 215.473 187.227 215.023 187.457C214.583 187.677 214.113 187.787 213.613 187.787C213.033 187.787 212.528 187.682 212.098 187.472C211.668 187.262 211.308 186.982 211.018 186.632C210.728 186.272 210.508 185.857 210.358 185.387C210.218 184.907 210.148 184.402 210.148 183.872C210.148 183.412 210.208 182.942 210.328 182.462C210.448 181.972 210.648 181.532 210.928 181.142C211.208 180.742 211.578 180.417 212.038 180.167C212.498 179.907 213.063 179.777 213.733 179.777C214.223 179.777 214.673 179.887 215.083 180.107C215.493 180.317 215.813 180.637 216.043 181.067H216.058V179.957H217.258V187.052ZM213.688 186.677C214.108 186.677 214.463 186.592 214.753 186.422C215.053 186.242 215.293 186.012 215.473 185.732C215.653 185.442 215.783 185.117 215.863 184.757C215.953 184.397 215.998 184.037 215.998 183.677C215.998 183.337 215.958 183.002 215.878 182.672C215.798 182.342 215.668 182.047 215.488 181.787C215.318 181.517 215.093 181.302 214.813 181.142C214.533 180.982 214.193 180.902 213.793 180.902C213.383 180.902 213.033 180.982 212.743 181.142C212.453 181.292 212.213 181.497 212.023 181.757C211.843 182.017 211.708 182.317 211.618 182.657C211.538 182.997 211.498 183.352 211.498 183.722C211.498 184.072 211.533 184.422 211.603 184.772C211.673 185.122 211.793 185.442 211.963 185.732C212.133 186.012 212.358 186.242 212.638 186.422C212.918 186.592 213.268 186.677 213.688 186.677ZM220.532 178.562H219.257V177.002H220.532V178.562ZM219.257 179.957H220.532V187.712H219.257V179.957ZM221.877 186.737L226.557 181.082H222.177V179.957H228.207V180.827L223.467 186.587H228.417V187.712H221.877V186.737Z"/>
<defs>
<filter color-interpolation-filters="sRGB" filterUnits="userSpaceOnUse" height="305.249" width="505.249" y="1.90735e-06" x="-56.1247" id="filter0_d_12_78">
<feFlood result="BackgroundImageFix" flood-opacity="0"/>
<feColorMatrix result="hardAlpha" values="0 0 0 0 0 0 0 0 0 0 0 0 0 0 0 0 0 0 127 0" type="matrix" in="SourceAlpha"/>
<feOffset dy="13.5234"/>
<feGaussianBlur stdDeviation="36.0623"/>
<feComposite operator="out" in2="hardAlpha"/>
<feColorMatrix values="0 0 0 0 0 0 0 0 0 0 0 0 0 0 0 0 0 0 0.05 0" type="matrix"/>
<feBlend result="effect1_dropShadow_12_78" in2="BackgroundImageFix" mode="normal"/>
<feBlend result="shape" in2="effect1_dropShadow_12_78" in="SourceGraphic" mode="normal"/>
</filter>
</defs>
</svg>